{
.formatVersion = 3;
DisplayStrings = (
Radsed,
"ó/o.2",
"/c_t"
);
axes = (
{
name = Weight;
tag = wght;
}
);
classes = (
{
code = "A.alt B.7 D.7 E.7 F.7 H.alt K.alt M.7 N.alt P.7 R.7.001 S.2 T.7 U.alt";
name = capsinit;
},
{
code = "A B D E F H K M N P R S T U";
name = decapsinit;
},
{
code = "a.7 b.44 e.8 g.77 h.44 i.7 j.7 k.7 m.7 n.7 o.77 q.2 r.7 s.7 t.7 u.005.7 v.7.001 x.002332 z.7 ampersand.77 exclam.7";
name = rulote;
},
{
code = "a b e g h i j k m n o q r s t u v x z ampersand exclam";
name = derulote;
},
{
code = "a.5 d.5 l.5 m.5 n.5 s.4 u.5 z.baja";
name = bajan;
},
{
code = "a d l m n s u z";
name = debajan;
},
{
code = "a.7.b b.4.acc e.8.acc g.77.acc h.44.acc i.7.acc j.7.acc k.7.acc m.7.acc n.7.acc o.77.acc s.7.acc t.7.acc u.005.acc v.7.acc w.7 z.7.acc";
name = rulotefat;
},
{
code = "a b e g h i j k m n o s t u v w z";
name = derulotefat;
},
{
code = "a.4 c.4 d.4 e.4 f.7 h.4 j.4 l.4 m.4 n.4 p.4 r.4 u.4 v.4 y.44 z.4";
name = encierran;
},
{
code = "a c d e f h j l m n p r u v y z";
name = deencierran;
},
{
code = "b.6 d.6 h.6 k.6 l.6 u.005 y.4";
name = encierranup;
},
{
code = "b d h k l u y";
name = deencierranup;
},
{
code = "a.7.more d.6.more g.7 h.6.more l.6.more m.7.more n.7.more o.7.001 p.4.more r.4.more t.7.more v.7.more y.1.7.more quotesingle.alt";
name = more;
},
{
code = "a d g h l m n o p r t v y quotesingle";
name = demore;
},
{
code = "a.8 g.7777 h.44 k.44 o.7 t.7.4 u.4.2 x.7 y.7";
name = otrorulote;
},
{
code = "a g h k o t u x y";
name = deotrorulote;
},
{
code = "a.9 d.9 e.999 h.9 i.9 k.9 l.9 m.9 n.9 r.sube t.9 u.9 v.sube w.sube y.1.sube";
name = gota;
},
{
code = "a d e h i k l m n r t u v w y";
name = degota;
},
{
code = "a.7.more.acc d.6.more.acc h.6.more.acc l.6.more.acc m.7.more.acc n.7.more.acc o.7.acc p.4.more.acc t.7.more.acc y.1.7.more.acc";
name = morefat;
},
{
code = "a d h l m n o p t y";
name = demorefat;
},
{
code = "a.8.acc g.777 k.44.acc r.4.4 y.4.acc b.new h.new l.new";
name = extra1;
},
{
code = "a g k r y b h l";

glyphs = (
{
color = (255, 153, 153, 255);
glyphname = a;
layers = (
{
anchors = (
{
name = top;
position = "{230, 577}";
},
{
name = bottom;
position = "{214, -77}";
}
);
guides = (
{
position = "{0, -77}";
}
);
hints = (
{
horizontal = 1;
place = (-6,43);
type = Stem;
},
{
horizontal = 1;
place = (250,217);
type = Stem;
},
{
place = (-121,192);
type = Stem;
},
{
place = (-88,208);
type = Stem;
},
{
place = (195,195);
type = Stem;
},
{
place = (195,248);
type = Stem;
}
);
layerId = "CA214F42-74A2-49D4-A9E4-C2081DD5CDFC";
shapes = (
{
closed = 1;
nodes = (
(321,168,l),
(320,142,o),
(320,127,o),
(319,101,cs),
(317,26,o),
(349,-9,o),
(402,-9,cs),
(444,-9,o),
(465,12,o),
(476,35,c),
(472,38,l),
(463,20,o),
(451,11,o),
(433,11,cs),
(397,11,o),
(392,48,o),
(392,106,cs),
(392,335,ls),
(392,428,o),
(353,500,o),
(235,500,cs),
(121,500,o),
(54,431,o),
(54,356,cs),
(54,326,o),
(66,306,o),
(95,306,cs),
(126,306,o),
(142,330,o),
(142,359,cs),
(142,386,o),
(128,411,o),
(116,422,c),
(137,469,o),
(174,495,o),
(224,495,cs),
(307,495,o),
(322,435,o),
(322,371,cs),
(322,301,l),
(228,240,o),
(32,223,o),
(32,89,cs),
(32,22,o),
(85,-9,o),
(145,-9,cs),
(252,-9,o),
(299,69,o),
(319,168,c)
);
},
{
closed = 1;
nodes = (
(322,252,ls),
(322,160,o),
(296,28,o),
(184,28,cs),
(123,28,o),
(103,74,o),
(103,109,cs),
(103,186,o),
(189,231,o),
(268,267,cs),
(287,276,o),
(305,284,o),
(322,292,c)
);
}
);
width = 472;
},
{
anchors = (
{
name = top;
position = "{267, 577}";
},
{
name = bottom;
position = "{268, -77}";
}
);
guides = (
{
position = "{0, -77}";
}
);
hints = (
{
horizontal = 1;
place = (-6,43);
type = Stem;
},
{
horizontal = 1;
place = (250,217);
type = Stem;
},
{
place = (-58,192);
type = Stem;
},
{
place = (-25,208);
type = Stem;
},
{
place = (258,195);
type = Stem;
},
{
place = (258,248);
type = Stem;
}
);
layerId = "50E4EC5D-70F1-40A1-976B-CDBCAECFE4D4";
shapes = (
{
closed = 1;
nodes = (
(315,149,l),
(315,137,o),
(316,125,o),
(317,114,cs),
(325,36,o),
(365,-9,o),
(436,-9,cs),
(479,-9,o),
(525,5,o),
(543,43,c),
(540,46,l),
(535,35,o),
(529,31,o),
(523,31,cs),
(510,31,o),
(506,49,o),
(506,110,cs),
(506,268,ls),
(506,428,o),
(436,500,o),
(280,500,cs),
(115,500,o),
(47,418,o),
(47,351,cs),
(47,299,o),
(75,266,o),
(123,266,cs),
(177,266,o),
(203,310,o),
(203,353,cs),
(203,388,o),
(187,422,o),
(154,437,c),
(165,464,o),
(200,492,o),
(239,492,cs),
(298,492,o),
(316,436,o),
(316,388,cs),
(316,301,l),
(206,236,o),
(16,221,o),
(16,96,cs),
(16,35,o),
(70,-9,o),
(146,-9,cs),
(240,-9,o),
(289,51,o),
(311,149,c)
);
},
{
closed = 1;
nodes = (
(316,241,ls),
(316,123,o),
(278,49,o),
(238,49,cs),
(209,49,o),
(199,84,o),
(199,120,cs),
(199,184,o),
(235,234,o),
(278,269,cs),
(290,279,o),
(303,287,o),
(316,295,c)
);
}
);
width = 557;
}
);
leftKerningGroup = _kern1;
rightKerningGroup = _kern1;
unicode = 97;
},
{
color = (153, 255, 154, 255);
glyphname = a.5;
layers = (
{
background = {
shapes = (
{
closed = 1;
nodes = (
(338,309,l),
(230,237,o),
(21,226,o),
(21,96,cs),
(21,19,o),
(92,-7,o),
(146,-7,cs),
(250,-7,o),
(302,57,o),
(323,163,c),
(328,163,l),
(328,159,o),
(327,155,o),
(327,151,c),
(515,16,o),
(510,41,o),
(510,110,cs),
(510,268,ls),
(510,402,o),
(470,499,o),
(284,499,cs),
(127,499,o),
(56,418,o),
(56,350,cs),
(56,298,o),
(84,265,o),
(132,265,cs),
(186,265,o),
(212,309,o),
(212,352,cs),
(212,387,o),
(196,421,o),
(163,436,c),
(174,463,o),
(208,488,o),
(250,488,cs),
(306,488,o),
(325,433,o),
(325,385,cs),
(325,275,ls),
(325,135,o),
(283,49,o),
(238,49,cs),
(209,49,o),
(199,84,o),
(199,120,cs),
(199,208,o),
(275,268,o),
(344,299,c)
);
},
{
closed = 1;
nodes = (
(327,171,l),
(327,63,ls),
(327,-173,o),
(453,-420,o),
(764,-420,cs),
(942,-420,o),
(1024,-279,o),
(1024,-193,cs),
(1024,-123,o),
(983,-55,o),
(936,-47,c),
(935,-52,l),
(977,-62,o),
(1018,-125,o),
(1018,-193,cs),
(1018,-277,o),
(935,-411,o),
(765,-411,cs),
(515,-411,o),
(510,-168,o),
(510,63,cs),
(510,171,l)
);
}
);
};
layerId = "CA214F42-74A2-49D4-A9E4-C2081DD5CDFC";
leftMetricsKey = a;
shapes = (
{
closed = 1;
nodes = (
(322,178,l),
(322,69,ls),
(322,-108,o),
(415,-230,o),
(575,-230,cs),
(651,-230,o),
(731,-202,o),
(758,-139,c),
(755,-136,l),
(732,-193,o),
(657,-223,o),
(593,-223,cs),
(484,-223,o),
(392,-144,o),
(392,31,cs),
(392,335,ls),
(392,428,o),
(353,500,o),
(235,500,cs),
(121,500,o),
(54,431,o),
(54,356,cs),
(54,326,o),
(66,306,o),
(95,306,cs),
(126,306,o),
(142,330,o),
(142,359,cs),
(142,386,o),
(128,411,o),
(116,422,c),
(137,469,o),
(174,495,o),
(224,495,cs),
(307,495,o),
(322,435,o),
(322,371,cs),
(322,301,l),
(229,238,o),
(32,224,o),
(32,89,cs),
(32,24,o),
(82,-9,o),
(141,-9,cs),
(253,-9,o),
(300,73,o),
(320,178,c)
);
},
{
closed = 1;
nodes = (
(322,253,ls),
(322,161,o),
(296,28,o),
(184,28,cs),
(123,28,o),
(103,74,o),
(103,109,cs),
(103,204,o),
(234,250,o),
(322,293,c)
);
}
);
width = 468;
},
{
background = {
shapes = (
{
closed = 1;
nodes = (
(324,149,l),
(324,137,o),
(325,125,o),
(326,114,cs),
(334,36,o),
(374,-9,o),
(445,-9,cs),
(488,-9,o),
(534,5,o),
(552,43,c),
(549,46,l),
(544,35,o),
(538,31,o),
(532,31,cs),
(519,31,o),
(515,49,o),
(515,110,cs),
(515,268,ls),
(515,428,o),
(445,500,o),
(289,500,cs),
(124,500,o),
(56,418,o),
(56,351,cs),
(56,299,o),
(84,266,o),
(132,266,cs),
(186,266,o),
(212,310,o),
(212,353,cs),
(212,388,o),
(196,422,o),
(163,437,c),
(174,464,o),
(209,492,o),
(248,492,cs),
(307,492,o),
(325,436,o),
(325,388,cs),
(325,301,l),
(215,236,o),
(25,221,o),
(25,96,cs),
(25,35,o),
(79,-9,o),
(155,-9,cs),
(249,-9,o),
(298,51,o),
(320,149,c)
);
},
{
closed = 1;
nodes = (
(325,241,ls),
(325,123,o),
(287,49,o),
(247,49,cs),
(218,49,o),
(208,84,o),
(208,120,cs),
(208,184,o),
(244,234,o),
(287,269,cs),
(299,279,o),
(312,287,o),
(325,295,c)
);
}
);
};
layerId = "50E4EC5D-70F1-40A1-976B-CDBCAECFE4D4";
shapes = (
{
closed = 1;
nodes = (
(319,163,l),
(319,129,ls),
(319,-52,o),
(361,-239,o),
(675,-239,cs),
(763,-239,o),
(858,-208,o),
(887,-139,c),
(884,-136,l),
(861,-194,o),
(785,-224,o),
(720,-224,cs),
(612,-224,o),
(502,-145,o),
(502,31,cs),
(502,268,ls),
(502,403,o),
(465,500,o),
(279,500,cs),
(114,500,o),
(48,418,o),
(48,351,cs),
(48,299,o),
(76,266,o),
(124,266,cs),
(178,266,o),
(204,310,o),
(204,353,cs),
(204,388,o),
(188,422,o),
(155,437,c),
(166,464,o),
(201,492,o),
(240,492,cs),
(299,492,o),
(317,436,o),
(317,388,cs),
(317,301,l),
(210,236,o),
(16,221,o),
(16,96,cs),
(16,19,o),
(90,-9,o),
(146,-9,cs),
(248,-9,o),
(300,57,o),
(315,163,c)
);
},
{
closed = 1;
nodes = (
(317,256,ls),
(317,116,o),
(281,49,o),
(238,49,cs),
(209,49,o),
(199,84,o),
(199,120,cs),
(199,203,o),
(261,261,o),
(317,295,c)
);
}
);
width = 558;
}
);
leftKerningGroup = _kern1;
rightKerningGroup = _kern1;
},
{
color = (153, 255, 154, 255);
glyphname = a.7;
layers = (
{
guides = (
{
angle = 90;
position = "{994, 0}";
}
);
layerId = "CA214F42-74A2-49D4-A9E4-C2081DD5CDFC";
shapes = (
{
closed = 1;
nodes = (
(143,386,o),
(129,411,o),
(117,422,c),
(138,468,o),
(175,495,o),
(225,495,cs),
(308,495,o),
(323,434,o),
(323,371,cs),
(323,305,l),
(236,246,o),
(33,224,o),
(33,89,cs),
(33,19,o),
(91,-9,o),
(134,-9,cs),
(257,-9,o),
(300,71,o),
(321,178,c),
(320,166,l),
(320,155,l),
(321,-177,o),
(570,-393,o),
(944,-393,cs),
(1254,-393,o),
(1585,-153,o),
(1585,201,cs),
(1585,526,o),
(1322,787,o),
(997,787,cs),
(749,787,o),
(541,645,o),
(337,450,c),
(340,447,l),
(543,640,o),
(753,783,o),
(997,783,cs),
(1318,783,o),
(1581,522,o),
(1581,201,cs),
(1581,-146,o),
(1254,-385,o),
(963,-385,c),
(650,-384,o),
(393,-199,o),
(393,144,cs),
(393,335,ls),
(393,436,o),
(340,500,o),
(236,500,cs),
(122,500,o),
(55,428,o),
(55,356,cs),
(55,326,o),
(67,306,o),
(96,306,cs),
(127,306,o),
(143,330,o),
(143,359,cs)
);
},
{
closed = 1;
nodes = (
(46,131,l),
(-283,-235,o),
(-630,-618,o),
(-1111,-618,cs),
(-1588,-618,o),
(-1976,-229,o),
(-1976,247,cs),
(-1976,723,o),
(-1588,1110,o),
(-1111,1110,cs),
(-900,1110,o),
(-706,1034,o),
(-556,907,c),
(-551,911,l),
(-702,1039,o),
(-898,1114,o),
(-1111,1114,cs),
(-1591,1114,o),
(-1980,727,o),
(-1980,247,cs),
(-1980,-233,o),
(-1591,-622,o),
(-1111,-622,cs),
(-631,-622,o),
(-285,-244,o),
(44,119,c)
);
},
{
closed = 1;
nodes = (
(323,259,ls),
(323,167,o),
(297,28,o),
(185,28,cs),
(124,28,o),
(104,74,o),
(104,109,cs),
(104,204,o),
(235,254,o),
(323,297,c)
);
}
);
width = 462;
},
{
guides = (
{
angle = 90;
position = "{1016, 0}";
}
);
layerId = "50E4EC5D-70F1-40A1-976B-CDBCAECFE4D4";
shapes = (
{
closed = 1;
nodes = (
(212,388,o),
(196,422,o),
(163,437,c),
(174,465,o),
(207,492,o),
(248,492,cs),
(306,492,o),
(325,434,o),
(325,385,cs),
(325,301,l),
(214,236,o),
(22,219,o),
(22,95,cs),
(22,23,o),
(87,-9,o),
(152,-9,cs),
(252,-9,o),
(303,56,o),
(323,163,c),
(328,163,l),
(327,151,l),
(327,-213,o),
(632,-386,o),
(1016,-386,cs),
(1341,-386,o),
(1602,-124,o),
(1602,201,cs),
(1602,526,o),
(1341,787,o),
(1016,787,cs),
(778,787,o),
(573,658,o),
(377,475,c),
(386,472,l),
(581,653,o),
(782,783,o),
(1016,783,cs),
(1337,783,o),
(1598,522,o),
(1598,201,cs),
(1598,-120,o),
(1337,-382,o),
(1016,-382,cs),
(744,-382,o),
(510,-273,o),
(510,134,cs),
(510,268,ls),
(510,428,o),
(448,500,o),
(284,500,cs),
(127,500,o),
(56,418,o),
(56,351,cs),
(56,299,o),
(84,266,o),
(132,266,cs),
(186,266,o),
(212,310,o),
(212,353,cs)
);
},
{
closed = 1;
nodes = (
(32,106,l),
(-293,-253,o),
(-635,-618,o),
(-1107,-618,cs),
(-1583,-618,o),
(-1972,-230,o),
(-1972,247,cs),
(-1972,723,o),
(-1583,1110,o),
(-1107,1110,cs),
(-896,1110,o),
(-702,1034,o),
(-552,907,c),
(-547,911,l),
(-698,1038,o),
(-894,1114,o),
(-1107,1114,cs),
(-1587,1114,o),
(-1976,726,o),
(-1976,247,cs),
(-1976,-233,o),
(-1587,-622,o),
(-1107,-622,cs),
(-636,-622,o),
(-292,-260,o),
(34,96,c)
);
},
{
closed = 1;
nodes = (
(325,264,ls),
(325,124,o),
(286,49,o),
(244,49,cs),
(215,49,o),
(205,84,o),
(205,120,cs),
(205,202,o),
(265,260,o),
(325,294,c)
);
}
);
width = 564;
}
);
leftKerningGroup = _kern1;
rightKerningGroup = _kern1;
},
{
color = (153, 255, 154, 255);
glyphname = a.7.b;
layers = (
{
anchors = (
{
name = top;
position = "{236, 577}";
}
);
background = {
shapes = (
{
closed = 1;
nodes = (
(337,151,l),
(337,-193,o),
(602,-388,o),
(952,-388,cs),
(1271,-388,o),
(1600,-179,o),
(1604,201,c),
(1616,550,o),
(1341,804,o),
(1016,804,cs),
(770,804,o),
(559,672,o),
(357,456,c),
(362,452,l),
(563,643,o),
(774,758,o),
(1016,758,cs),
(1337,758,o),
(1610,524,o),
(1598,201,c),
(1593,-173,o),
(1265,-382,o),
(952,-382,cs),
(674,-382,o),
(412,-217,o),
(412,144,c)
);
},
{
closed = 1;
nodes = (
(347,308,l),
(256,243,o),
(32,226,o),
(32,89,cs),
(32,19,o),
(90,-9,o),
(133,-9,cs),
(254,-9,o),
(316,82,o),
(340,188,c),
(337,202,l),
(337,200,o),
(337,173,o),
(337,151,c),
(412,144,l),
(412,335,ls),
(412,424,o),
(380,500,o),
(247,500,cs),
(133,500,o),
(60,428,o),
(60,356,cs),
(60,326,o),
(72,306,o),
(101,306,cs),
(132,306,o),
(148,330,o),
(148,359,cs),
(148,386,o),
(134,411,o),
(122,422,c),
(143,465,o),
(186,490,o),
(236,490,cs),
(323,490,o),
(342,432,o),
(342,371,cs),
(342,265,ls),
(342,173,o),
(295,28,o),
(183,28,cs),
(122,28,o),
(102,74,o),
(102,109,cs),
(102,208,o),
(266,254,o),
(353,298,c)
);
},
{
closed = 1;
nodes = (
(51,128,l),
(-278,-217,o),
(-627,-596,o),
(-1107,-596,cs),
(-1583,-596,o),
(-1970,-207,o),
(-1970,247,cs),
(-1970,723,o),
(-1583,1110,o),
(-1107,1110,cs),
(-896,1110,o),
(-702,1034,o),
(-552,907,c),
(-547,911,l),
(-698,1039,o),
(-894,1116,o),
(-1107,1116,cs),
(-1587,1116,o),
(-1976,727,o),
(-1976,247,cs),
(-1976,-255,o),
(-1587,-666,o),
(-1107,-666,cs),
(-623,-666,o),
(-275,-258,o),
(57,128,c)
);
},
{
closed = 1;
nodes = (
(329,305,l),
(238,240,o),
(32,226,o),
(32,89,cs),
(32,22,o),
(85,-9,o),
(145,-9,cs),
(256,-9,o),
(302,75,o),
(321,178,c),
(319,186,l),
(319,182,o),
(319,105,o),
(319,101,cs),
(319,26,o),
(349,-9,o),
(402,-9,cs),
(444,-9,o),
(465,12,o),
(476,35,c),
(472,38,l),
(463,20,o),
(451,11,o),
(433,11,cs),
(397,11,o),
(392,48,o),
(392,106,cs),
(392,335,ls),
(392,428,o),
(353,500,o),
(235,500,cs),
(121,500,o),
(54,431,o),
(54,356,cs),
(54,326,o),
(66,306,o),
(95,306,cs),
(126,306,o),
(142,330,o),
(142,359,cs),
(142,386,o),
(128,411,o),
(116,422,c),
(137,469,o),
(174,495,o),
(224,495,cs),
(307,495,o),
(322,435,o),
(322,371,cs),
(322,252,ls),
(322,160,o),
(296,28,o),
(184,28,cs),
(123,28,o),
(103,74,o),
(103,109,cs),
(103,208,o),
(245,253,o),
(332,297,c)
);
}
);
};
guides = (
{
position = "{0, -536}";
}
);
layerId = "CA214F42-74A2-49D4-A9E4-C2081DD5CDFC";
shapes = (
{
closed = 1;
nodes = (
(33,19,o),
(94,-9,o),
(139,-9,cs),
(242,-9,o),
(301,71,o),
(321,178,c),
(320,166,l),
(320,155,ls),
(320,-191,o),
(584,-388,o),
(933,-388,cs),
(1252,-388,o),
(1585,-179,o),
(1585,201,cs),
(1585,550,o),
(1322,804,o),
(997,804,cs),
(749,804,o),
(538,670,o),
(334,451,c),
(339,448,l),
(541,641,o),
(753,758,o),
(997,758,cs),
(1319,758,o),
(1581,524,o),
(1581,201,cs),
(1581,-176,o),
(1247,-384,o),
(933,-384,cs),
(655,-384,o),
(393,-218,o),
(393,144,cs),
(393,335,ls),
(393,438,o),
(341,500,o),
(236,500,cs),
(122,500,o),
(55,428,o),
(55,356,cs),
(55,326,o),
(67,306,o),
(96,306,cs),
(127,306,o),
(143,330,o),
(143,359,cs),
(143,386,o),
(129,411,o),
(117,422,c),
(137,468,o),
(173,495,o),
(221,495,cs),
(307,495,o),
(323,435,o),
(323,371,cs),
(323,301,l),
(238,246,o),
(33,221,o),
(33,89,cs)
);
},
{
closed = 1;
nodes = (
(-547,911,l),
(-698,1039,o),
(-894,1116,o),
(-1107,1116,cs),
(-1586,1116,o),
(-1974,727,o),
(-1974,247,cs),
(-1974,-255,o),
(-1586,-666,o),
(-1107,-666,cs),
(-629,-666,o),
(-284,-269,o),
(44,113,c),
(46,122,l),
(-282,-221,o),
(-630,-596,o),
(-1107,-596,cs),
(-1583,-596,o),
(-1970,-207,o),
(-1970,247,cs),
(-1970,724,o),
(-1583,1112,o),
(-1107,1112,cs),
(-896,1112,o),
(-700,1035,o),
(-550,908,c)
);
},
{
closed = 1;
nodes = (
(323,265,ls),
(323,173,o),
(297,28,o),
(185,28,cs),
(124,28,o),
(104,74,o),
(104,109,cs),
(104,205,o),
(236,250,o),
(323,293,c)
);
}
);
width = 462;
},
{
anchors = (
{
name = top;
position = "{285, 577}";
}
);
guides = (
{
position = "{0, -536}";
}
);
layerId = "50E4EC5D-70F1-40A1-976B-CDBCAECFE4D4";
shapes = (
{
closed = 1;
nodes = (
(25,29,o),
(85,-7,o),
(152,-7,cs),
(252,-7,o),
(303,57,o),
(323,163,c),
(328,163,l),
(327,151,l),
(327,-219,o),
(628,-396,o),
(1006,-396,cs),
(1337,-396,o),
(1608,-132,o),
(1608,216,cs),
(1608,565,o),
(1341,820,o),
(1016,820,cs),
(778,820,o),
(573,678,o),
(377,474,c),
(386,472,l),
(580,650,o),
(782,760,o),
(1016,760,cs),
(1337,760,o),
(1598,522,o),
(1598,201,cs),
(1598,-120,o),
(1348,-380,o),
(1016,-380,cs),
(744,-380,o),
(510,-273,o),
(510,134,cs),
(510,268,ls),
(510,428,o),
(448,500,o),
(284,500,cs),
(127,500,o),
(56,418,o),
(56,351,cs),
(56,299,o),
(84,266,o),
(132,266,cs),
(186,266,o),
(212,310,o),
(212,353,cs),
(212,388,o),
(196,422,o),
(163,437,c),
(174,466,o),
(207,492,o),
(248,492,cs),
(305,492,o),
(325,434,o),
(325,385,cs),
(325,301,l),
(218,237,o),
(31,221,o),
(27,102,cs)
);
},
{
closed = 1;
nodes = (
(-547,911,l),
(-698,1039,o),
(-892,1116,o),
(-1107,1116,cs),
(-1586,1116,o),
(-1976,738,o),
(-1976,237,cs),
(-1976,-264,o),
(-1587,-702,o),
(-1119,-702,cs),
(-634,-702,o),
(-265,-251,o),
(36,101,c),
(38,113,l),
(-280,-205,o),
(-630,-509,o),
(-1103,-509,cs),
(-1585,-509,o),
(-1968,-189,o),
(-1968,264,cs),
(-1968,718,o),
(-1585,1112,o),
(-1107,1112,cs),
(-892,1112,o),
(-697,1031,o),
(-552,907,c)
);
},
{
closed = 1;
nodes = (
(325,267,ls),
(325,127,o),
(286,49,o),
(244,49,cs),
(215,49,o),
(205,84,o),
(205,120,cs),
(205,202,o),
(265,260,o),
(325,294,c)
);
}
);
width = 564;
}
);
leftKerningGroup = _kern1;
rightKerningGroup = _kern1;
},
{
color = (153, 255, 154, 255);
glyphname = a.7.more;
layers = (
{
background = {
shapes = (
{
closed = 1;
nodes = (
(-623,-622,o),
(-275,-238,o),
(57,128,c),
(47,128,l),
(-282,-236,o),
(-627,-616,o),
(-1107,-616,cs),
(-1583,-616,o),
(-1970,-229,o),
(-1970,247,cs),
(-1970,723,o),
(-1583,1110,o),
(-1107,1110,cs),
(-685,1110,o),
(-414,868,o),
(-32,868,cs),
(139,868,o),
(293,933,o),
(396,1046,c),
(388,1048,l),
(286,938,o),
(136,874,o),
(-32,874,cs),
(-411,874,o),
(-677,1116,o),
(-1107,1116,cs),
(-1587,1116,o),
(-1976,727,o),
(-1976,247,cs),
(-1976,-233,o),
(-1587,-622,o),
(-1107,-622,cs)
);
}
);
};
layerId = "CA214F42-74A2-49D4-A9E4-C2081DD5CDFC";
shapes = (
{
closed = 1;
nodes = (
(323,305,l),
(237,246,o),
(33,223,o),
(33,89,cs),
(33,19,o),
(91,-9,o),
(134,-9,cs),
(257,-9,o),
(300,71,o),
(321,178,c),
(320,166,l),
(320,155,l),
(321,-177,o),
(570,-393,o),
(944,-393,cs),
(1254,-393,o),
(1587,-153,o),
(1587,201,cs),
(1587,526,o),
(1322,789,o),
(997,789,cs),
(755,789,o),
(542,647,o),
(343,458,c),
(346,453,l),
(545,642,o),
(758,785,o),
(997,785,cs),
(1319,785,o),
(1583,523,o),
(1583,201,cs),
(1583,-146,o),
(1255,-385,o),
(963,-385,cs),
(650,-385,o),
(393,-199,o),
(393,144,cs),
(393,335,ls),
(393,438,o),
(341,500,o),
(236,500,cs),
(122,500,o),
(55,428,o),
(55,356,cs),
(55,326,o),
(67,306,o),
(96,306,cs),
(127,306,o),
(143,330,o),
(143,359,cs),
(143,386,o),
(129,411,o),
(117,422,c),
(138,468,o),
(175,495,o),
(225,495,cs),
(308,495,o),
(323,434,o),
(323,371,cs)
);
},
{
closed = 1;
nodes = (
(45,125,l),
(-284,-240,o),
(-628,-618,o),
(-1107,-618,cs),
(-1584,-618,o),
(-1972,-230,o),
(-1972,247,cs),
(-1972,724,o),
(-1584,1112,o),
(-1107,1112,cs),
(-685,1112,o),
(-414,870,o),
(-32,870,cs),
(138,870,o),
(291,934,o),
(394,1046,c),
(388,1048,l),
(286,938,o),
(136,874,o),
(-32,874,cs),
(-411,874,o),
(-677,1116,o),
(-1107,1116,cs),
(-1587,1116,o),
(-1976,727,o),
(-1976,247,cs),
(-1976,-233,o),
(-1587,-622,o),
(-1107,-622,cs),
(-629,-622,o),
(-284,-248,o),
(44,114,c)
);
},
{
closed = 1;
nodes = (
(323,259,ls),
(323,167,o),
(297,28,o),
(185,28,cs),
(124,28,o),
(104,74,o),
(104,109,cs),
(104,204,o),
(235,254,o),
(323,297,c)
);
}
);
width = 462;
},
{
layerId = "50E4EC5D-70F1-40A1-976B-CDBCAECFE4D4";
shapes = (
{
closed = 1;
nodes = (
(325,301,l),
(216,236,o),
(22,213,o),
(26,93,cs),
(29,21,o),
(101,-7,o),
(152,-7,cs),
(252,-7,o),
(303,57,o),
(323,163,c),
(328,163,l),
(327,151,l),
(327,-213,o),
(632,-386,o),
(1016,-386,cs),
(1341,-386,o),
(1604,-124,o),
(1604,201,cs),
(1604,526,o),
(1341,789,o),
(1016,789,cs),
(778,789,o),
(575,658,o),
(380,474,c),
(386,472,l),
(581,654,o),
(782,785,o),
(1016,785,cs),
(1338,785,o),
(1600,523,o),
(1600,201,cs),
(1600,-121,o),
(1338,-382,o),
(1016,-382,cs),
(744,-382,o),
(510,-275,o),
(510,134,cs),
(510,268,ls),
(510,431,o),
(437,500,o),
(284,500,cs),
(127,500,o),
(56,418,o),
(56,351,cs),
(56,299,o),
(84,266,o),
(132,266,cs),
(186,266,o),
(212,310,o),
(212,353,cs),
(212,388,o),
(196,422,o),
(163,437,c),
(174,466,o),
(208,494,o),
(250,494,cs),
(306,494,o),
(325,451,o),
(325,401,cs)
);
},
{
closed = 1;
nodes = (
(38,109,l),
(-290,-250,o),
(-633,-618,o),
(-1107,-618,cs),
(-1584,-618,o),
(-1972,-230,o),
(-1972,247,cs),
(-1972,724,o),
(-1584,1112,o),
(-1107,1112,cs),
(-685,1112,o),
(-414,870,o),
(-32,870,cs),
(138,870,o),
(291,934,o),
(394,1046,c),
(388,1048,l),
(286,938,o),
(136,874,o),
(-32,874,cs),
(-411,874,o),
(-677,1116,o),
(-1107,1116,cs),
(-1587,1116,o),
(-1976,727,o),
(-1976,247,cs),
(-1976,-233,o),
(-1587,-622,o),
(-1107,-622,cs),
(-633,-622,o),
(-289,-257,o),
(37,101,c)
);
},
{
closed = 1;
nodes = (
(325,263,ls),
(325,123,o),
(286,49,o),
(244,49,cs),
(215,49,o),
(205,84,o),
(205,120,cs),
(205,203,o),
(265,262,o),
(325,296,c)
);
}
);
width = 564;
}
);
leftKerningGroup = _kern1;
rightKerningGroup = _kern1;
},
{
color = (153, 255, 154, 255);
glyphname = a.7.more.acc;
layers = (
{
background = {
shapes = (
{
closed = 1;
nodes = (
(1273,-393,o),
(1606,-153,o),
(1606,201,cs),
(1606,544,o),
(1341,822,o),
(1016,822,cs),
(770,822,o),
(559,667,o),
(357,455,c),
(365,452,l),
(566,643,o),
(774,783,o),
(1016,783,cs),
(1337,783,o),
(1600,522,o),
(1600,201,cs),
(1600,-145,o),
(1273,-383,o),
(982,-383,cs),
(669,-382,o),
(412,-198,o),
(412,144,c),
(337,151,l),
(337,-179,o),
(588,-393,o),
(963,-393,cs)
);
},
{
closed = 1;
nodes = (
(-623,-654,o),
(-275,-253,o),
(57,128,c),
(47,128,l),
(-282,-215,o),
(-627,-564,o),
(-1107,-564,cs),
(-1583,-564,o),
(-1970,-205,o),
(-1970,247,cs),
(-1970,723,o),
(-1583,1110,o),
(-1107,1110,cs),
(-685,1110,o),
(-414,868,o),
(-32,868,cs),
(139,868,o),
(293,933,o),
(396,1046,c),
(388,1048,l),
(286,938,o),
(136,874,o),
(-32,874,cs),
(-411,874,o),
(-677,1116,o),
(-1107,1116,cs),
(-1587,1116,o),
(-1976,727,o),
(-1976,247,cs),
(-1976,-250,o),
(-1586,-654,o),
(-1107,-654,cs)
);
},
{
closed = 1;
nodes = (
(347,308,l),
(256,243,o),
(32,226,o),
(32,89,cs),
(32,19,o),
(90,-9,o),
(133,-9,cs),
(254,-9,o),
(316,82,o),
(340,188,c),
(337,202,l),
(337,200,o),
(337,173,o),
(337,151,c),
(412,144,l),
(412,335,ls),
(412,424,o),
(380,500,o),
(247,500,cs),
(133,500,o),
(60,428,o),
(60,356,cs),
(60,326,o),
(72,306,o),
(101,306,cs),
(132,306,o),
(148,330,o),
(148,359,cs),
(148,386,o),
(134,411,o),
(122,422,c),
(143,465,o),
(186,490,o),
(236,490,cs),
(320,490,o),
(342,432,o),
(342,371,cs),
(342,265,ls),
(342,173,o),
(295,28,o),
(183,28,cs),
(122,28,o),
(102,74,o),
(102,109,cs),
(102,208,o),
(266,254,o),
(353,298,c)
);
}
);
};
layerId = "CA214F42-74A2-49D4-A9E4-C2081DD5CDFC";
shapes = (
{
closed = 1;
nodes = (
(323,305,l),
(302,291,o),
(274,279,o),
(243,266,cs),
(149,229,o),
(33,190,o),
(33,89,cs),
(33,19,o),
(91,-9,o),
(134,-9,cs),
(257,-9,o),
(300,71,o),
(321,178,c),
(320,166,l),
(320,155,ls),
(320,-177,o),
(570,-393,o),
(944,-393,cs),
(1254,-393,o),
(1587,-153,o),
(1587,201,cs),
(1587,544,o),
(1322,822,o),
(997,822,cs),
(749,822,o),
(538,665,o),
(334,452,c),
(338,450,l),
(539,641,o),
(754,783,o),
(997,783,cs),
(1319,783,o),
(1583,522,o),
(1583,201,cs),
(1583,-146,o),
(1255,-385,o),
(963,-385,cs),
(650,-385,o),
(393,-199,o),
(393,144,cs),
(393,335,ls),
(393,438,o),
(341,500,o),
(236,500,cs),
(122,500,o),
(55,428,o),
(55,356,cs),
(55,326,o),
(67,306,o),
(96,306,cs),
(127,306,o),
(143,330,o),
(143,359,cs),
(143,386,o),
(129,411,o),
(117,422,c),
(138,468,o),
(175,495,o),
(225,495,cs),
(308,495,o),
(323,434,o),
(323,371,cs)
);
},
{
closed = 1;
nodes = (
(46,122,l),
(-281,-219,o),
(-630,-564,o),
(-1107,-564,cs),
(-1584,-564,o),
(-1972,-205,o),
(-1972,247,cs),
(-1972,723,o),
(-1584,1112,o),
(-1107,1112,cs),
(-685,1112,o),
(-414,870,o),
(-32,870,cs),
(139,870,o),
(291,933,o),
(394,1046,c),
(389,1047,l),
(287,937,o),
(136,874,o),
(-32,874,cs),
(-411,874,o),
(-677,1116,o),
(-1107,1116,cs),
(-1587,1116,o),
(-1976,727,o),
(-1976,247,cs),
(-1976,-250,o),
(-1586,-654,o),
(-1107,-654,cs),
(-629,-654,o),
(-284,-264,o),
(44,113,c)
);
},
{
closed = 1;
nodes = (
(323,259,ls),
(323,167,o),
(297,28,o),
(185,28,cs),
(124,28,o),
(104,74,o),
(104,109,cs),
(104,204,o),
(235,254,o),
(323,297,c)
);
}
);
width = 462;
},
{
layerId = "50E4EC5D-70F1-40A1-976B-CDBCAECFE4D4";
shapes = (
{
closed = 1;
nodes = (
(325,301,l),
(307,290,o),
(286,281,o),
(264,271,cs),
(158,224,o),
(23,189,o),
(26,90,cs),
(29,19,o),
(101,-7,o),
(152,-7,cs),
(252,-7,o),
(303,57,o),
(323,163,c),
(328,163,l),
(327,151,l),
(327,-213,o),
(632,-386,o),
(1016,-386,cs),
(1341,-386,o),
(1604,-124,o),
(1604,201,cs),
(1604,539,o),
(1341,823,o),
(1016,823,cs),
(777,823,o),
(572,672,o),
(375,474,c),
(382,473,l),
(576,654,o),
(783,783,o),
(1016,783,cs),
(1338,783,o),
(1600,522,o),
(1600,201,cs),
(1600,-121,o),
(1338,-382,o),
(1016,-382,cs),
(744,-382,o),
(510,-275,o),
(510,134,cs),
(510,268,ls),
(510,434,o),
(442,500,o),
(284,500,cs),
(127,500,o),
(56,418,o),
(56,351,cs),
(56,299,o),
(84,266,o),
(132,266,cs),
(186,266,o),
(212,310,o),
(212,353,cs),
(212,388,o),
(196,422,o),
(163,437,c),
(174,466,o),
(207,492,o),
(248,492,cs),
(305,492,o),
(325,434,o),
(325,385,cs)
);
},
{
closed = 1;
nodes = (
(38,109,l),
(-287,-214,o),
(-635,-544,o),
(-1107,-544,cs),
(-1584,-544,o),
(-1972,-189,o),
(-1972,247,cs),
(-1972,723,o),
(-1584,1112,o),
(-1107,1112,cs),
(-685,1112,o),
(-414,870,o),
(-32,870,cs),
(139,870,o),
(291,933,o),
(394,1046,c),
(389,1047,l),
(287,937,o),
(136,874,o),
(-32,874,cs),
(-411,874,o),
(-677,1116,o),
(-1107,1116,cs),
(-1587,1116,o),
(-1976,727,o),
(-1976,247,cs),
(-1976,-262,o),
(-1587,-674,o),
(-1107,-674,cs),
(-633,-674,o),
(-289,-284,o),
(37,98,c)
);
},
{
closed = 1;
nodes = (
(325,265,ls),
(325,125,o),
(286,49,o),
(244,49,cs),
(215,49,o),
(205,84,o),
(205,120,cs),
(205,202,o),
(265,260,o),
(325,294,c)
);
}
);
width = 564;
}
);
leftKerningGroup = _kern1;
rightKerningGroup = _kern1;
},
{
color = (153, 255, 154, 255);
glyphname = a.4;
layers = (
{
background = {
shapes = (
{
closed = 1;
nodes = (
(338,309,l),
(228,237,o),
(16,226,o),
(16,96,cs),
(16,19,o),
(90,-9,o),
(146,-9,cs),
(250,-9,o),
(302,57,o),
(323,163,c),
(328,163,l),
(328,159,o),
(327,155,o),
(327,151,c),
(515,138,l),
(515,268,ls),
(515,402,o),
(474,499,o),
(284,499,cs),
(127,499,o),
(56,418,o),
(56,350,cs),
(56,298,o),
(84,265,o),
(132,265,cs),
(186,265,o),
(212,309,o),
(212,352,cs),
(212,387,o),
(196,421,o),
(163,436,c),
(174,463,o),
(208,488,o),
(250,488,cs),
(306,488,o),
(325,433,o),
(325,385,cs),
(325,275,ls),
(325,135,o),
(283,49,o),
(238,49,cs),
(209,49,o),
(199,84,o),
(199,120,cs),
(199,208,o),
(275,268,o),
(344,299,c)
);
},
{
closed = 1;
nodes = (
(342,290,l),
(337,99,l),
(337,-231,o),
(629,-413,o),
(971,-413,cs),
(1314,-413,o),
(1591,-136,o),
(1591,207,cs),
(1591,544,o),
(1318,817,o),
(981,817,cs),
(823,817,o),
(679,757,o),
(571,659,c),
(577,655,l),
(684,752,o),
(826,811,o),
(981,811,cs),
(1314,811,o),
(1585,540,o),
(1585,207,cs),
(1585,-126,o),
(1314,-397,o),
(981,-397,cs),
(684,-397,o),
(414,-231,o),
(412,138,c),
(393,258,l)
);
}
);
};
layerId = "CA214F42-74A2-49D4-A9E4-C2081DD5CDFC";
leftMetricsKey = a;
shapes = (
{
closed = 1;
nodes = (
(121,500,o),
(54,428,o),
(54,356,cs),
(54,326,o),
(66,306,o),
(95,306,cs),
(126,306,o),
(142,330,o),
(142,359,cs),
(142,386,o),
(128,411,o),
(116,422,c),
(137,468,o),
(174,495,o),
(224,495,cs),
(307,495,o),
(322,434,o),
(322,371,cs),
(322,305,l),
(229,242,o),
(32,224,o),
(32,89,cs),
(32,19,o),
(90,-9,o),
(133,-9,cs),
(250,-9,o),
(298,66,o),
(319,168,c),
(319,114,ls),
(319,-254,o),
(584,-414,o),
(910,-414,cs),
(1263,-414,o),
(1571,-161,o),
(1571,207,cs),
(1571,544,o),
(1298,817,o),
(961,817,cs),
(803,817,o),
(659,757,o),
(551,659,c),
(554,655,l),
(662,753,o),
(805,813,o),
(961,813,cs),
(1295,813,o),
(1567,541,o),
(1567,207,cs),
(1567,-149,o),
(1273,-405,o),
(921,-405,cs),
(640,-405,o),
(392,-233,o),
(392,109,cs),
(392,335,ls),
(392,424,o),
(353,500,o),
(235,500,cs)
);
},
{
closed = 1;
nodes = (
(322,259,ls),
(322,167,o),
(296,28,o),
(184,28,cs),
(123,28,o),
(103,74,o),
(103,109,cs),
(103,204,o),
(234,254,o),
(322,297,c)
);
}
);
width = 463;
},
{
layerId = "50E4EC5D-70F1-40A1-976B-CDBCAECFE4D4";
shapes = (
{
closed = 1;
nodes = (
(123,500,o),
(52,418,o),
(52,351,cs),
(52,299,o),
(80,266,o),
(128,266,cs),
(182,266,o),
(208,310,o),
(208,353,cs),
(208,388,o),
(192,422,o),
(159,437,c),
(170,466,o),
(203,492,o),
(244,492,cs),
(301,492,o),
(321,434,o),
(321,385,cs),
(321,301,l),
(210,236,o),
(18,221,o),
(18,96,cs),
(18,19,o),
(92,-9,o),
(148,-9,cs),
(248,-9,o),
(299,57,o),
(319,163,c),
(321,156,l),
(333,-199,o),
(646,-413,o),
(1020,-413,cs),
(1363,-413,o),
(1640,-136,o),
(1640,207,cs),
(1640,544,o),
(1367,817,o),
(1030,817,cs),
(872,817,o),
(728,757,o),
(620,659,c),
(623,655,l),
(731,753,o),
(874,813,o),
(1030,813,cs),
(1364,813,o),
(1636,541,o),
(1636,207,cs),
(1636,-129,o),
(1364,-403,o),
(1030,-403,cs),
(759,-403,o),
(511,-234,o),
(511,138,cs),
(511,268,ls),
(511,403,o),
(470,500,o),
(280,500,cs)
);
},
{
closed = 1;
nodes = (
(321,264,ls),
(321,124,o),
(282,49,o),
(240,49,cs),
(211,49,o),
(201,84,o),
(201,120,cs),
(201,200,o),
(261,257,o),
(321,290,c)
);
}
);
width = 565;
}
);
leftKerningGroup = _kern1;
rightKerningGroup = _kern1;
},
{
color = (153, 255, 154, 255);
glyphname = a.8;
layers = (
{
layerId = "CA214F42-74A2-49D4-A9E4-C2081DD5CDFC";
rightMetricsKey = "=n-2";
shapes = (
{
closed = 1;
nodes = (
(-1031,628,l),
(-1145,722,o),
(-1292,779,o),
(-1451,779,cs),
(-1814,779,o),
(-2107,485,o),
(-2107,119,cs),
(-2107,-242,o),
(-1823,-536,o),
(-1429,-536,cs),
(-1051,-536,o),
(-757,-281,o),
(-490,-23,cs),
(-232,226,o),
(31,493,o),
(217,493,cs),
(300,493,o),
(322,434,o),
(322,371,cs),
(322,305,l),
(229,242,o),
(32,224,o),
(32,89,cs),
(32,19,o),
(90,-9,o),
(133,-9,cs),
(250,-9,o),
(298,66,o),
(319,168,c),
(319,165,l),
(317,114,ls),
(314,24,o),
(346,-9,o),
(401,-9,cs),
(437,-9,o),
(470,5,o),
(482,30,c),
(480,33,l),
(471,19,o),
(459,12,o),
(441,12,cs),
(408,12,o),
(392,35,o),
(392,110,cs),
(392,335,ls),
(392,424,o),
(346,500,o),
(228,500,cs),
(28,500,o),
(-232,231,o),
(-498,-22,cs),
(-764,-275,o),
(-1062,-530,o),
(-1425,-530,cs),
(-1822,-530,o),
(-2101,-238,o),
(-2101,118,cs),
(-2101,482,o),
(-1810,773,o),
(-1450,773,cs),
(-1292,773,o),
(-1148,717,o),
(-1035,624,c)
);
},
{
closed = 1;
nodes = (
(322,259,ls),
(322,167,o),
(296,28,o),
(184,28,cs),
(123,28,o),
(103,74,o),
(103,109,cs),
(103,204,o),
(234,254,o),
(322,297,c)
);
},
{
closed = 1;
nodes = (
(142,317,o),
(164,344,o),
(164,377,cs),
(164,410,o),
(142,437,o),
(114,437,cs),
(86,437,o),
(65,410,o),
(65,377,cs),
(65,344,o),
(86,317,o),
(114,317,cs)
);
}
);
width = 472;
},
{
layerId = "50E4EC5D-70F1-40A1-976B-CDBCAECFE4D4";
shapes = (
{
closed = 1;
nodes = (
(-1011,628,l),
(-1125,722,o),
(-1272,779,o),
(-1431,779,cs),
(-1794,779,o),
(-2087,485,o),
(-2087,119,cs),
(-2087,-242,o),
(-1803,-536,o),
(-1409,-536,cs),
(-1031,-536,o),
(-733,-282,o),
(-467,-24,cs),
(-210,226,o),
(10,492,o),
(231,492,cs),
(307,492,o),
(325,453,o),
(325,385,cs),
(325,301,l),
(214,236,o),
(22,221,o),
(22,96,cs),
(22,19,o),
(96,-9,o),
(152,-9,cs),
(252,-9,o),
(303,57,o),
(323,163,c),
(328,163,l),
(327,151,l),
(327,42,o),
(361,-9,o),
(445,-9,cs),
(488,-9,o),
(534,5,o),
(552,43,c),
(548,49,l),
(543,38,o),
(538,34,o),
(532,34,cs),
(519,34,o),
(515,52,o),
(515,110,cs),
(515,268,ls),
(515,455,o),
(418,503,o),
(260,503,cs),
(10,503,o),
(-208,239,o),
(-478,-22,cs),
(-742,-278,o),
(-1042,-530,o),
(-1405,-530,cs),
(-1802,-530,o),
(-2081,-238,o),
(-2081,118,cs),
(-2081,482,o),
(-1790,773,o),
(-1430,773,cs),
(-1272,773,o),
(-1128,717,o),
(-1015,624,c)
);
},
{
closed = 1;
nodes = (
(325,262,ls),
(325,122,o),
(286,49,o),
(244,49,cs),
(215,49,o),
(205,84,o),
(205,120,cs),
(205,200,o),
(265,257,o),
(325,290,c)
);
},
{
closed = 1;
nodes = (
(181,266,o),
(216,304,o),
(216,351,cs),
(216,398,o),
(181,437,o),
(138,437,cs),
(95,437,o),
(60,398,o),
(60,351,cs),
(60,304,o),
(95,266,o),
(138,266,cs)
);
}
);
width = 568;
}
);
leftKerningGroup = _kern1;
rightKerningGroup = _kern1;
},
{
color = (153, 255, 154, 255);
glyphname = a.8.acc;
layers = (
{
layerId = "CA214F42-74A2-49D4-A9E4-C2081DD5CDFC";
rightMetricsKey = "=n-2";
shapes = (
{
closed = 1;
nodes = (
(49,500,o),
(-210,256,o),
(-477,-22,cs),
(-721,-276,o),
(-1041,-486,o),
(-1404,-486,cs),
(-1802,-486,o),
(-2082,-214,o),
(-2082,119,cs),
(-2082,483,o),
(-1790,775,o),
(-1430,775,cs),
(-1272,775,o),
(-1126,719,o),
(-1013,625,c),
(-1010,628,l),
(-1124,722,o),
(-1271,779,o),
(-1430,779,cs),
(-1793,779,o),
(-2086,485,o),
(-2086,119,cs),
(-2086,-285,o),
(-1779,-576,o),
(-1404,-576,cs),
(-1027,-576,o),
(-735,-301,o),
(-469,-23,cs),
(-221,236,o),
(46,493,o),
(238,493,cs),
(321,493,o),
(343,434,o),
(343,371,cs),
(343,305,l),
(253,242,o),
(47,224,o),
(47,89,cs),
(47,19,o),
(105,-9,o),
(148,-9,cs),
(256,-9,o),
(314,75,o),
(338,176,c),
(340,176,l),
(338,114,ls),
(333,24,o),
(367,-9,o),
(422,-9,cs),
(458,-9,o),
(491,5,o),
(503,30,c),
(501,33,l),
(492,19,o),
(480,12,o),
(462,12,cs),
(429,12,o),
(413,35,o),
(413,110,cs),
(413,335,ls),
(413,424,o),
(367,500,o),
(249,500,cs)
);
},
{
closed = 1;
nodes = (
(343,259,ls),
(343,130,o),
(277,28,o),
(198,28,cs),
(137,28,o),
(117,74,o),
(117,109,cs),
(117,204,o),
(259,254,o),
(343,297,c)
);
},
{
closed = 1;
nodes = (
(148,306,o),
(170,333,o),
(170,366,cs),
(170,399,o),
(148,426,o),
(120,426,cs),
(92,426,o),
(71,399,o),
(71,366,cs),
(71,333,o),
(92,306,o),
(120,306,cs)
);
}
);
width = 493;
},
{
layerId = "50E4EC5D-70F1-40A1-976B-CDBCAECFE4D4";
shapes = (
{
closed = 1;
nodes = (
(14,503,o),
(-201,270,o),
(-478,-22,cs),
(-717,-274,o),
(-1042,-471,o),
(-1405,-471,cs),
(-1803,-471,o),
(-2083,-205,o),
(-2083,119,cs),
(-2083,483,o),
(-1791,775,o),
(-1431,775,cs),
(-1273,775,o),
(-1127,719,o),
(-1014,625,c),
(-1011,628,l),
(-1125,722,o),
(-1272,779,o),
(-1431,779,cs),
(-1794,779,o),
(-2087,485,o),
(-2087,119,cs),
(-2087,-273,o),
(-1802,-591,o),
(-1407,-591,cs),
(-1030,-591,o),
(-732,-311,o),
(-467,-24,cs),
(-224,240,o),
(10,492,o),
(231,492,cs),
(307,492,o),
(325,453,o),
(325,385,cs),
(325,301,l),
(214,236,o),
(22,221,o),
(22,96,cs),
(22,19,o),
(96,-9,o),
(152,-9,cs),
(252,-9,o),
(303,57,o),
(323,163,c),
(328,163,l),
(327,151,l),
(327,42,o),
(361,-9,o),
(445,-9,cs),
(488,-9,o),
(534,5,o),
(552,43,c),
(548,49,l),
(543,38,o),
(538,34,o),
(532,34,cs),
(519,34,o),
(515,52,o),
(515,110,cs),
(515,268,ls),
(515,455,o),
(418,503,o),
(260,503,cs)
);
},
{
closed = 1;
nodes = (
(325,264,ls),
(325,124,o),
(286,49,o),
(244,49,cs),
(215,49,o),
(205,84,o),
(205,120,cs),
(205,200,o),
(265,257,o),
(325,290,c)
);
},
{
closed = 1;
nodes = (
(181,266,o),
(216,304,o),
(216,351,cs),
(216,398,o),
(181,437,o),
(138,437,cs),
(95,437,o),
(60,398,o),
(60,351,cs),
(60,304,o),
(95,266,o),
(138,266,cs)
);
}
);
width = 568;
}
);
leftKerningGroup = _kern1;
rightKerningGroup = _kern1;
},
{
color = (153, 255, 154, 255);
glyphname = a.9;
layers = (
{
layerId = "CA214F42-74A2-49D4-A9E4-C2081DD5CDFC";
leftMetricsKey = a;
shapes = (
{
closed = 1;
nodes = (
(322,305,l),
(229,242,o),
(32,224,o),
(32,89,cs),
(32,19,o),
(90,-9,o),
(133,-9,cs),
(256,-9,o),
(299,71,o),
(320,178,c),
(324,-43,o),
(419,-151,o),
(608,-151,cs),
(797,-151,o),
(894,-21,o),
(894,113,cs),
(894,167,o),
(864,216,o),
(811,216,cs),
(773,216,o),
(747,190,o),
(747,159,cs),
(747,129,o),
(771,102,o),
(808,102,cs),
(837,102,o),
(861,119,o),
(870,140,c),
(875,124,o),
(877,110,o),
(877,92,cs),
(877,-38,o),
(778,-141,o),
(636,-141,cs),
(513,-141,o),
(392,-65,o),
(392,161,cs),
(392,335,ls),
(392,424,o),
(353,500,o),
(235,500,cs),
(121,500,o),
(54,428,o),
(54,356,cs),
(54,326,o),
(66,306,o),
(95,306,cs),
(126,306,o),
(142,330,o),
(142,359,cs),
(142,386,o),
(128,411,o),
(116,422,c),
(137,468,o),
(174,495,o),
(224,495,cs),
(307,495,o),
(322,434,o),
(322,371,cs)
);
},
{
closed = 1;
nodes = (
(322,259,ls),
(322,167,o),
(296,28,o),
(184,28,cs),
(123,28,o),
(103,74,o),
(103,109,cs),
(103,204,o),
(234,254,o),
(322,297,c)
);
}
);
width = 949;
},
{
layerId = "50E4EC5D-70F1-40A1-976B-CDBCAECFE4D4";
shapes = (
{
closed = 1;
nodes = (
(321,301,l),
(210,236,o),
(18,221,o),
(18,96,cs),
(18,19,o),
(92,-9,o),
(148,-9,cs),
(247,-9,o),
(298,60,o),
(318,164,c),
(324,-31,o),
(462,-152,o),
(655,-152,cs),
(860,-152,o),
(977,-14,o),
(977,124,cs),
(977,216,o),
(925,301,o),
(835,301,cs),
(770,301,o),
(726,256,o),
(726,203,cs),
(726,152,o),
(767,105,o),
(830,105,cs),
(879,105,o),
(920,134,o),
(936,171,c),
(944,144,o),
(948,120,o),
(948,94,cs),
(948,-35,o),
(853,-128,o),
(725,-128,cs),
(614,-128,o),
(511,-61,o),
(511,160,cs),
(511,268,ls),
(511,399,o),
(470,500,o),
(285,500,cs),
(120,500,o),
(52,418,o),
(52,351,cs),
(52,299,o),
(80,266,o),
(128,266,cs),
(182,266,o),
(208,310,o),
(208,353,cs),
(208,388,o),
(192,422,o),
(159,437,c),
(170,466,o),
(204,492,o),
(242,492,cs),
(302,492,o),
(321,434,o),
(321,385,cs)
);
},
{
closed = 1;
nodes = (
(321,268,ls),
(321,128,o),
(282,49,o),
(240,49,cs),
(211,49,o),
(201,84,o),
(201,120,cs),
(201,202,o),
(261,260,o),
(321,294,c)
);
}
);
width = 1016;
}
);
},
{
color = (255, 153, 153, 255);
glyphname = b;
layers = (
{
hints = (
{
horizontal = 1;
place = (-6,21);
target = up;
type = BottomGhost;
},
{
horizontal = 1;
place = (736,-20);
target = down;
type = TopGhost;
},
{
place = (71,207);
type = Stem;
},
{
place = (397,201);
type = Stem;
}
);
layerId = "CA214F42-74A2-49D4-A9E4-C2081DD5CDFC";
leftMetricsKey = l;
shapes = (
{
closed = 1;
nodes = (
(65,-9,ls),
(65,-13,o),
(67,-14,o),
(69,-14,c),
(74,-14,o),
(64,63,o),
(102,63,cs),
(136,63,o),
(152,-9,o),
(256,-9,cs),
(401,-9,o),
(474,122,o),
(474,258,cs),
(474,399,o),
(406,500,o),
(278,500,cs),
(202,500,o),
(145,446,o),
(130,385,cs),
(127,372,o),
(127,387,o),
(127,394,cs),
(127,461,l),
(127,721,l),
(-12,687,l),
(-12,684,l),
(41,684,o),
(65,676,o),
(65,634,cs)
);
},
{
closed = 1;
nodes = (
(174,-5,o),
(132,43,o),
(132,144,cs),
(132,319,ls),
(132,408,o),
(187,495,o),
(269,495,cs),
(390,495,o),
(400,348,o),
(400,258,cs),
(400,34,o),
(332,-5,o),
(261,-5,cs)
);
}
);
width = 502;
},
{
hints = (
{
horizontal = 1;
place = (-6,21);
target = up;
type = BottomGhost;
},
{
horizontal = 1;
place = (736,-20);
target = down;
type = TopGhost;
},
{
place = (81,207);
type = Stem;
},
{
place = (407,201);
type = Stem;
}
);
layerId = "50E4EC5D-70F1-40A1-976B-CDBCAECFE4D4";
shapes = (
{
closed = 1;
nodes = (
(65,-9,ls),
(65,-13,o),
(64,-14,o),
(66,-14,c),
(72,-14,o),
(66,50,o),
(125,50,cs),
(181,50,o),
(206,-8,o),
(327,-8,cs),
(445,-8,o),
(592,56,o),
(592,265,cs),
(592,401,o),
(503,500,o),
(388,500,cs),
(311,500,o),
(274,461,o),
(261,401,cs),
(260,397,o),
(258,395,o),
(258,399,cs),
(258,465,l),
(258,721,l),
(-12,685,l),
(-12,682,l),
(44,682,o),
(65,686,o),
(65,634,cs)
);
},
{
closed = 1;
nodes = (
(282,-3,o),
(263,45,o),
(263,111,cs),
(263,349,ls),
(263,410,o),
(285,478,o),
(336,478,cs),
(385,478,o),
(391,423,o),
(391,246,cs),
(391,28,o),
(373,-3,o),
(324,-3,cs)
);
}
);
width = 616;
}
);
unicode = 98;
},
{
color = (153, 255, 154, 255);
glyphname = b.6;
layers = (
{
layerId = "CA214F42-74A2-49D4-A9E4-C2081DD5CDFC";
shapes = (
{
closed = 1;
nodes = (
(298,-192,l),
(432,-314,o),
(612,-389,o),
(809,-389,cs),
(1249,-389,o),
(1603,-29,o),
(1603,421,cs),
(1603,878,o),
(1244,1243,o),
(796,1243,cs),
(400,1243,o),
(69,923,o),
(69,517,cs),
(69,-9,ls),
(69,-13,o),
(71,-14,o),
(73,-14,c),
(78,-14,o),
(68,63,o),
(106,63,cs),
(140,63,o),
(156,-9,o),
(260,-9,cs),
(405,-9,o),
(478,122,o),
(478,258,cs),
(478,399,o),
(410,500,o),
(282,500,cs),
(206,500,o),
(149,446,o),
(134,385,cs),
(131,372,o),
(131,387,o),
(131,394,c),
(134,540,l),
(136,617,ls),
(144,979,o),
(468,1236,o),
(800,1236,cs),
(1242,1236,o),
(1599,873,o),
(1599,421,cs),
(1599,-25,o),
(1245,-384,o),
(809,-384,cs),
(616,-384,o),
(436,-310,o),
(302,-189,c)
);
},
{
closed = 1;
nodes = (
(178,-5,o),
(136,43,o),
(136,144,cs),
(136,319,ls),
(136,408,o),
(191,495,o),
(273,495,cs),
(394,495,o),
(404,348,o),
(404,258,cs),
(404,34,o),
(336,-5,o),
(265,-5,cs)
);
}
);
width = 506;
},
{
layerId = "50E4EC5D-70F1-40A1-976B-CDBCAECFE4D4";
shapes = (
{
closed = 1;
nodes = (
(318,-192,l),
(452,-314,o),
(632,-389,o),
(829,-389,cs),
(1269,-389,o),
(1623,-29,o),
(1623,421,cs),
(1623,878,o),
(1264,1243,o),
(816,1243,cs),
(347,1243,o),
(55,923,o),
(55,517,cs),
(55,-9,ls),
(55,-13,o),
(54,-14,o),
(56,-14,c),
(62,-14,o),
(56,50,o),
(115,50,cs),
(171,50,o),
(196,-6,o),
(317,-6,c),
(435,-1,o),
(582,56,o),
(582,265,cs),
(582,401,o),
(493,500,o),
(378,500,cs),
(301,500,o),
(264,461,o),
(251,401,cs),
(250,397,o),
(249,394,o),
(245,394,c),
(245,540,l),
(245,617,ls),
(245,979,o),
(491,1236,o),
(820,1236,cs),
(1262,1236,o),
(1619,873,o),
(1619,421,cs),
(1619,-25,o),
(1265,-384,o),
(829,-384,cs),
(636,-384,o),
(456,-310,o),
(322,-189,c)
);
},
{
closed = 1;
nodes = (
(263,0,o),
(253,45,o),
(253,111,cs),
(253,348,ls),
(253,409,o),
(275,477,o),
(326,477,cs),
(375,477,o),
(381,420,o),
(381,246,cs),
(381,28,o),
(354,-2,o),
(305,-2,c)
);
}
);
width = 610;
}
);
},
{
color = (153, 255, 154, 255);
glyphname = b.44;
layers = (
{
layerId = "CA214F42-74A2-49D4-A9E4-C2081DD5CDFC";
shapes = (
{
closed = 1;
nodes = (
(-2068,453,l),
(-1931,734,o),
(-1642,930,o),
(-1313,930,cs),
(-376,930,o),
(-151,-401,o),
(810,-389,c),
(1250,-389,o),
(1604,-29,o),
(1604,421,cs),
(1604,878,o),
(1245,1243,o),
(797,1243,cs),
(401,1243,o),
(70,923,o),
(70,517,cs),
(70,-9,ls),
(70,-13,o),
(72,-14,o),
(74,-14,c),
(79,-14,o),
(69,63,o),
(107,63,cs),
(141,63,o),
(157,-9,o),
(261,-9,cs),
(406,-9,o),
(479,122,o),
(479,258,cs),
(479,399,o),
(411,500,o),
(283,500,cs),
(207,500,o),
(150,446,o),
(135,385,cs),
(132,372,o),
(132,387,o),
(132,394,c),
(135,549,l),
(137,617,l),
(137,978,o),
(468,1233,o),
(800,1233,cs),
(1242,1233,o),
(1600,872,o),
(1600,421,cs),
(1600,-25,o),
(1246,-385,o),
(810,-385,c),
(-152,-397,o),
(-367,934,o),
(-1313,934,cs),
(-1644,934,o),
(-1934,737,o),
(-2072,455,c)
);
},
{
closed = 1;
nodes = (
(179,-5,o),
(137,43,o),
(137,144,cs),
(137,319,ls),
(137,408,o),
(192,495,o),
(274,495,cs),
(395,495,o),
(405,348,o),
(405,258,cs),
(405,34,o),
(337,-5,o),
(266,-5,cs)
);
}
);
width = 507;
},
{
layerId = "50E4EC5D-70F1-40A1-976B-CDBCAECFE4D4";
shapes = (
{
closed = 1;
nodes = (
(-2046,453,l),
(-1909,734,o),
(-1620,930,o),
(-1291,930,cs),
(-354,930,o),
(-129,-401,o),
(832,-389,c),
(1272,-389,o),
(1626,-29,o),
(1626,421,cs),
(1626,878,o),
(1267,1243,o),
(819,1243,cs),
(350,1243,o),
(58,923,o),
(58,517,cs),
(58,-9,ls),
(58,-13,o),
(57,-14,o),
(59,-14,c),
(65,-14,o),
(59,50,o),
(118,50,cs),
(174,50,o),
(199,-6,o),
(320,-6,c),
(438,-1,o),
(585,56,o),
(585,265,cs),
(585,401,o),
(496,500,o),
(381,500,cs),
(304,500,o),
(267,461,o),
(254,401,cs),
(251,387,o),
(248,396,o),
(248,402,cs),
(248,552,l),
(248,617,ls),
(248,978,o),
(493,1233,o),
(822,1233,cs),
(1264,1233,o),
(1622,872,o),
(1622,421,cs),
(1622,-25,o),
(1268,-385,o),
(832,-385,c),
(-130,-397,o),
(-345,934,o),
(-1291,934,cs),
(-1622,934,o),
(-1912,737,o),
(-2050,455,c)
);
},
{
closed = 1;
nodes = (
(266,0,o),
(256,45,o),
(256,111,cs),
(256,348,ls),
(256,409,o),
(278,477,o),
(329,477,cs),
(378,477,o),
(384,420,o),
(384,246,cs),
(384,28,o),
(357,-2,o),
(308,-2,c)
);
}
);
width = 613;
}
);
},
{
color = (153, 255, 154, 255);
glyphname = b.4.acc;
layers = (
{
layerId = "CA214F42-74A2-49D4-A9E4-C2081DD5CDFC";
shapes = (
{
closed = 1;
nodes = (
(-2066,453,l),
(-1929,734,o),
(-1642,930,o),
(-1313,930,cs),
(-320,930,o),
(-188,-422,o),
(810,-410,c),
(1250,-410,o),
(1604,-40,o),
(1604,421,cs),
(1604,878,o),
(1245,1243,o),
(797,1243,cs),
(401,1243,o),
(70,923,o),
(70,517,cs),
(70,-9,ls),
(70,-13,o),
(72,-14,o),
(74,-14,c),
(79,-14,o),
(69,52,o),
(107,52,cs),
(141,52,o),
(163,-8,o),
(255,-8,cs),
(406,-8,o),
(479,122,o),
(479,258,cs),
(479,394,o),
(411,500,o),
(283,500,cs),
(207,500,o),
(160,452,o),
(140,401,cs),
(139,399,o),
(138,395,o),
(137,393,c),
(137,393,o),
(137,404,o),
(137,405,c),
(137,617,ls),
(137,980,o),
(468,1236,o),
(800,1236,cs),
(1242,1236,o),
(1600,874,o),
(1600,421,cs),
(1600,11,o),
(1246,-340,o),
(810,-340,c),
(-218,-353,o),
(-337,934,o),
(-1313,934,cs),
(-1644,934,o),
(-1932,737,o),
(-2070,455,c)
);
},
{
closed = 1;
nodes = (
(179,-3,o),
(137,50,o),
(137,131,cs),
(137,316,ls),
(137,406,o),
(188,495,o),
(270,495,cs),
(395,495,o),
(405,347,o),
(405,258,cs),
(405,31,o),
(337,-3,o),
(255,-3,cs)
);
}
);
width = 507;
},
{
layerId = "50E4EC5D-70F1-40A1-976B-CDBCAECFE4D4";
shapes = (
{
closed = 1;
nodes = (
(-2044,453,l),
(-1907,734,o),
(-1620,930,o),
(-1291,930,cs),
(-358,930,o),
(-129,-492,o),
(832,-480,c),
(1272,-480,o),
(1626,-52,o),
(1626,421,cs),
(1626,878,o),
(1267,1243,o),
(819,1243,cs),
(350,1243,o),
(58,923,o),
(58,517,cs),
(58,-9,ls),
(58,-13,o),
(57,-14,o),
(59,-14,c),
(65,-14,o),
(59,50,o),
(118,50,cs),
(174,50,o),
(193,-6,o),
(314,-6,cs),
(432,-6,o),
(585,56,o),
(585,265,cs),
(585,401,o),
(496,500,o),
(381,500,cs),
(304,500,o),
(267,461,o),
(254,401,cs),
(253,396,o),
(251,394,o),
(250,394,c),
(249,394,o),
(248,396,o),
(248,400,cs),
(248,617,ls),
(248,980,o),
(493,1236,o),
(822,1236,cs),
(1264,1236,o),
(1622,874,o),
(1622,421,cs),
(1622,23,o),
(1268,-350,o),
(832,-350,c),
(-275,-363,o),
(-345,934,o),
(-1291,934,cs),
(-1622,934,o),
(-1910,737,o),
(-2048,455,c)
);
},
{
closed = 1;
nodes = (
(266,-1,o),
(256,45,o),
(256,111,cs),
(256,348,ls),
(256,409,o),
(278,477,o),
(329,477,cs),
(378,477,o),
(384,420,o),
(384,246,cs),
(384,29,o),
(357,-1,o),
(308,-1,cs)
);
}
);
width = 613;
}
);
},
{
color = (255, 153, 153, 255);
glyphname = c;
layers = (
{
anchors = (
{
name = top;
position = "{216, 577}";
}
);
hints = (
{
horizontal = 1;
place = (-5,36);
type = Stem;
},
{
horizontal = 1;
place = (255,213);
type = Stem;
},
{
place = (-24,197);
type = Stem;
},
{
place = (265,200);
type = Stem;
},
{
place = (314,151);
type = Stem;
}
);
layerId = "CA214F42-74A2-49D4-A9E4-C2081DD5CDFC";
leftMetricsKey = e;
rightMetricsKey = e;
shapes = (
{
closed = 1;
nodes = (
(407,123,l),
(385,57,o),
(336,26,o),
(269,26,cs),
(149,26,o),
(103,129,o),
(103,258,cs),
(103,354,o),
(127,495,o),
(262,495,cs),
(304,495,o),
(331,474,o),
(339,449,c),
(325,432,o),
(318,407,o),
(318,386,cs),
(318,356,o),
(333,331,o),
(361,331,cs),
(391,331,o),
(406,358,o),
(406,389,cs),
(406,457,o),
(335,500,o),
(257,500,cs),
(125,500,o),
(28,394,o),
(28,237,cs),
(28,68,o),
(111,-9,o),
(230,-9,cs),
(317,-9,o),
(379,32,o),
(412,121,c)
);
}
);
width = 440;
},
{
anchors = (
{
name = top;
position = "{278, 577}";
}
);
hints = (
{
horizontal = 1;
place = (-5,36);
type = Stem;
},
{
horizontal = 1;
place = (255,213);
type = Stem;
},
{
place = (38,197);
type = Stem;
},
{
place = (327,200);
type = Stem;
},
{
place = (376,151);
type = Stem;
}
);
layerId = "50E4EC5D-70F1-40A1-976B-CDBCAECFE4D4";
shapes = (
{
closed = 1;
nodes = (
(482,147,l),
(461,84,o),
(415,55,o),
(357,55,cs),
(263,55,o),
(224,119,o),
(224,273,cs),
(224,454,o),
(262,494,o),
(307,494,cs),
(342,494,o),
(368,471,o),
(372,449,c),
(349,423,o),
(337,386,o),
(337,354,cs),
(337,309,o),
(361,271,o),
(409,271,cs),
(459,271,o),
(485,312,o),
(485,364,cs),
(485,453,o),
(402,500,o),
(289,500,cs),
(138,500,o),
(22,414,o),
(22,244,cs),
(22,68,o),
(135,-9,o),
(267,-9,cs),
(369,-9,o),
(452,44,o),
(487,145,c)
);
}
);
width = 500;
}
);
leftKerningGroup = _kern2;
rightKerningGroup = _kern2;
unicode = 99;
},
{
color = (153, 255, 154, 255);
glyphname = c.4;
layers = (
{
layerId = "CA214F42-74A2-49D4-A9E4-C2081DD5CDFC";
shapes = (
{
closed = 1;
nodes = (
(307,496,o),
(334,474,o),
(342,449,c),
(328,432,o),
(321,407,o),
(321,386,cs),
(321,356,o),
(336,331,o),
(364,331,cs),
(394,331,o),
(409,358,o),
(409,389,cs),
(409,457,o),
(338,500,o),
(260,500,cs),
(121,500,o),
(34,365,o),
(34,203,cs),
(34,-133,o),
(359,-306,o),
(616,-306,cs),
(962,-306,o),
(1271,-40,o),
(1271,310,cs),
(1271,597,o),
(1035,834,o),
(732,834,cs),
(587,834,o),
(459,780,o),
(362,692,c),
(367,688,l),
(463,776,o),
(590,830,o),
(732,830,cs),
(1029,830,o),
(1267,598,o),
(1267,310,cs),
(1267,-3,o),
(1003,-283,o),
(657,-283,cs),
(355,-283,o),
(111,-103,o),
(111,231,cs),
(111,345,o),
(140,496,o),
(265,496,cs)
);
}
);
width = 448;
},
{
layerId = "50E4EC5D-70F1-40A1-976B-CDBCAECFE4D4";
shapes = (
{
closed = 1;
nodes = (
(348,495,o),
(366,470,o),
(370,449,c),
(347,423,o),
(335,386,o),
(335,354,cs),
(335,309,o),
(359,271,o),
(407,271,cs),
(457,271,o),
(483,312,o),
(483,364,cs),
(483,450,o),
(410,500,o),
(303,500,cs),
(135,500,o),
(23,386,o),
(23,205,cs),
(23,-139,o),
(395,-289,o),
(674,-289,cs),
(1048,-289,o),
(1352,-8,o),
(1352,308,cs),
(1352,595,o),
(1116,834,o),
(813,834,cs),
(668,834,o),
(540,780,o),
(443,692,c),
(448,688,l),
(544,776,o),
(671,830,o),
(813,830,cs),
(1110,830,o),
(1348,599,o),
(1348,308,cs),
(1348,3,o),
(1067,-246,o),
(727,-246,cs),
(485,-246,o),
(226,-128,o),
(226,279,cs),
(226,340,o),
(233,495,o),
(309,495,cs)
);
}
);
width = 498;
}
);
leftKerningGroup = _kern2;
rightKerningGroup = _kern2;
},
{
color = (255, 153, 153, 255);
glyphname = d;
layers = (
{
hints = (
{
horizontal = 1;
place = (-6,43);
type = Stem;
},
{
horizontal = 1;
place = (736,-20);
target = down;
type = TopGhost;
},
{
place = (41,213);
type = Stem;
},
{
place = (371,198);
type = Stem;
}
);
layerId = "CA214F42-74A2-49D4-A9E4-C2081DD5CDFC";
leftMetricsKey = o;
rightMetricsKey = l;
shapes = (
{
closed = 1;
nodes = (
(439,721,l),
(295,687,l),
(295,684,l),
(351,684,o),
(372,686,o),
(372,634,cs),
(372,441,l),
(354,480,o),
(299,500,o),
(251,500,cs),
(121,500,o),
(28,389,o),
(28,229,cs),
(28,88,o),
(103,-9,o),
(216,-9,cs),
(292,-9,o),
(356,36,o),
(372,151,c),
(372,118,ls),
(372,34,o),
(401,-9,o),
(466,-9,cs),
(504,-9,o),
(535,7,o),
(546,22,c),
(542,27,l),
(537,20,o),
(525,7,o),
(502,7,cs),
(455,7,o),
(439,39,o),
(439,122,cs)
);
},
{
closed = 1;
nodes = (
(125,15,o),
(101,157,o),
(101,258,cs),
(101,355,o),
(122,495,o),
(257,495,cs),
(333,495,o),
(372,439,o),
(372,401,cs),
(372,213,ls),
(372,47,o),
(295,15,o),
(240,15,cs)
);
}
);
width = 534;
},
{
hints = (
{
horizontal = 1;
place = (-6,43);
type = Stem;
},
{
horizontal = 1;
place = (736,-20);
target = down;
type = TopGhost;
},
{
place = (20,213);
type = Stem;
},
{
place = (350,198);
type = Stem;
}
);
layerId = "50E4EC5D-70F1-40A1-976B-CDBCAECFE4D4";
shapes = (
{
closed = 1;
nodes = (
(543,721,l),
(273,685,l),
(273,682,l),
(329,682,o),
(350,686,o),
(350,634,cs),
(350,452,l),
(338,493,o),
(299,500,o),
(264,500,cs),
(118,500,o),
(20,385,o),
(20,227,cs),
(20,88,o),
(96,-9,o),
(209,-9,cs),
(279,-9,o),
(332,29,o),
(350,127,c),
(350,121,ls),
(350,37,o),
(394,-9,o),
(486,-9,cs),
(542,-9,o),
(588,9,o),
(604,30,c),
(601,34,l),
(598,28,o),
(586,18,o),
(573,18,cs),
(549,18,o),
(543,49,o),
(543,119,cs)
);
},
{
closed = 1;
nodes = (
(237,48,o),
(231,170,o),
(231,261,cs),
(231,351,o),
(238,488,o),
(303,488,cs),
(334,488,o),
(347,455,o),
(350,410,c),
(350,213,ls),
(350,74,o),
(315,48,o),
(290,48,cs)
);
}
);
width = 611;
}
);
unicode = 100;
},
{
color = (153, 255, 154, 255);
glyphname = d.5;
rightMetricsKey = l.5;
layers = (
{
hints = (
{
horizontal = 1;
place = (-6,43);
type = Stem;
},
{
horizontal = 1;
place = (736,-20);
target = down;
type = TopGhost;
},
{
place = (41,213);
type = Stem;
},
{
place = (371,198);
type = Stem;
}
);
layerId = "CA214F42-74A2-49D4-A9E4-C2081DD5CDFC";
shapes = (
{
closed = 1;
nodes = (
(372,441,l),
(354,480,o),
(299,500,o),
(251,500,cs),
(121,500,o),
(28,389,o),
(28,229,cs),
(28,88,o),
(103,-9,o),
(216,-9,cs),
(292,-9,o),
(356,36,o),
(372,151,c),
(372,69,ls),
(372,-108,o),
(465,-230,o),
(625,-230,cs),
(701,-230,o),
(781,-202,o),
(808,-139,c),
(805,-136,l),
(782,-193,o),
(707,-223,o),
(643,-223,cs),
(534,-223,o),
(439,-144,o),
(439,31,cs),
(439,721,l),
(295,687,l),
(295,684,l),
(351,684,o),
(372,686,o),
(372,634,cs)
);
},
{
closed = 1;
nodes = (
(125,15,o),
(101,157,o),
(101,258,cs),
(101,355,o),
(122,495,o),
(257,495,cs),
(333,495,o),
(372,439,o),
(372,401,cs),
(372,213,ls),
(372,47,o),
(295,15,o),
(240,15,cs)
);
}
);
width = 527;
},
{
hints = (
{
horizontal = 1;
place = (-6,43);
type = Stem;
},
{
horizontal = 1;
place = (736,-20);
target = down;
type = TopGhost;
},
{
place = (20,213);
type = Stem;
},
{
place = (350,198);
type = Stem;
}
);
layerId = "50E4EC5D-70F1-40A1-976B-CDBCAECFE4D4";
shapes = (
{
closed = 1;
nodes = (
(350,456,l),
(336,494,o),
(298,500,o),
(264,500,cs),
(118,500,o),
(20,385,o),
(20,227,cs),
(20,88,o),
(96,-9,o),
(209,-9,cs),
(278,-9,o),
(331,28,o),
(350,123,c),
(350,121,l),
(353,-57,o),
(396,-239,o),
(717,-239,cs),
(805,-239,o),
(900,-208,o),
(929,-139,c),
(926,-136,l),
(903,-194,o),
(827,-224,o),
(762,-224,cs),
(654,-224,o),
(544,-145,o),
(544,31,cs),
(543,721,l),
(266,685,l),
(266,682,l),
(322,682,o),
(350,686,o),
(350,634,cs)
);
},
{
closed = 1;
nodes = (
(236,57,o),
(231,174,o),
(231,251,cs),
(231,348,o),
(239,479,o),
(305,479,cs),
(336,479,o),
(347,450,o),
(350,410,c),
(350,179,l),
(344,78,o),
(308,57,o),
(287,57,cs)
);
}
);
width = 616;
}
);
},
{
color = (153, 255, 154, 255);
glyphname = d.4;
layers = (
{
layerId = "CA214F42-74A2-49D4-A9E4-C2081DD5CDFC";
leftMetricsKey = o;
shapes = (
{
closed = 1;
nodes = (
(28,88,o),
(103,-9,o),
(216,-9,cs),
(292,-9,o),
(356,36,o),
(372,151,c),
(372,-217,o),
(635,-414,o),
(957,-414,cs),
(1310,-414,o),
(1618,-161,o),
(1618,207,cs),
(1618,544,o),
(1345,817,o),
(1008,817,cs),
(850,817,o),
(706,757,o),
(598,659,c),
(601,655,l),
(709,753,o),
(852,813,o),
(1008,813,cs),
(1342,813,o),
(1614,541,o),
(1614,207,cs),
(1614,-150,o),
(1312,-406,o),
(968,-406,cs),
(687,-406,o),
(439,-234,o),
(439,109,cs),
(439,721,l),
(295,687,l),
(295,684,l),
(351,684,o),
(372,686,o),
(372,634,cs),
(372,441,l),
(354,480,o),
(299,500,o),
(251,500,cs),
(121,500,o),
(28,389,o),
(28,229,cs)
);
},
{
closed = 1;
nodes = (
(125,15,o),
(101,157,o),
(101,258,cs),
(101,355,o),
(122,495,o),
(257,495,cs),
(333,495,o),
(372,439,o),
(372,401,cs),
(372,213,ls),
(372,47,o),
(295,15,o),
(240,15,cs)
);
}
);
width = 512;
},
{
layerId = "50E4EC5D-70F1-40A1-976B-CDBCAECFE4D4";
shapes = (
{
closed = 1;
nodes = (
(20,88,o),
(96,-9,o),
(209,-9,cs),
(281,-9,o),
(335,31,o),
(351,135,c),
(374,-207,o),
(684,-413,o),
(1051,-413,cs),
(1394,-413,o),
(1671,-136,o),
(1671,207,cs),
(1671,544,o),
(1398,817,o),
(1061,817,cs),
(903,817,o),
(759,757,o),
(651,659,c),
(654,655,l),
(762,753,o),
(905,813,o),
(1061,813,cs),
(1395,813,o),
(1667,541,o),
(1667,207,cs),
(1667,-128,o),
(1395,-400,o),
(1061,-400,cs),
(790,-400,o),
(543,-233,o),
(543,138,cs),
(543,721,l),
(273,685,l),
(273,682,l),
(329,682,o),
(350,686,o),
(350,634,cs),
(350,452,l),
(338,493,o),
(299,500,o),
(264,500,cs),
(118,500,o),
(20,385,o),
(20,227,cs)
);
},
{
closed = 1;
nodes = (
(237,48,o),
(231,170,o),
(231,261,cs),
(231,351,o),
(238,488,o),
(303,488,cs),
(334,488,o),
(347,455,o),
(350,410,c),
(350,213,ls),
(350,74,o),
(315,48,o),
(290,48,cs)
);
}
);
width = 611;
}
);
},
{
color = (153, 255, 154, 255);
glyphname = d.6;
layers = (
{
layerId = "CA214F42-74A2-49D4-A9E4-C2081DD5CDFC";
leftMetricsKey = o;
shapes = (
{
closed = 1;
nodes = (
(601,-192,l),
(735,-314,o),
(915,-389,o),
(1112,-389,cs),
(1552,-389,o),
(1906,-29,o),
(1906,421,cs),
(1906,878,o),
(1547,1243,o),
(1099,1243,cs),
(703,1243,o),
(375,923,o),
(375,517,cs),
(375,437,l),
(375,434,l),
(361,477,o),
(302,500,o),
(251,500,cs),
(121,500,o),
(28,389,o),
(28,229,cs),
(28,88,o),
(103,-9,o),
(216,-9,cs),
(292,-9,o),
(356,36,o),
(372,151,c),
(372,118,ls),
(372,34,o),
(401,-9,o),
(466,-9,cs),
(504,-9,o),
(535,7,o),
(546,22,c),
(542,27,l),
(537,20,o),
(525,7,o),
(502,7,cs),
(455,7,o),
(439,39,o),
(439,122,cs),
(439,617,ls),
(439,980,o),
(770,1236,o),
(1102,1236,cs),
(1544,1236,o),
(1902,874,o),
(1902,421,cs),
(1902,-25,o),
(1548,-384,o),
(1112,-384,cs),
(918,-384,o),
(739,-309,o),
(604,-187,c)
);
},
{
closed = 1;
nodes = (
(125,15,o),
(101,157,o),
(101,258,cs),
(101,355,o),
(122,495,o),
(257,495,cs),
(333,495,o),
(372,439,o),
(372,401,cs),
(372,213,ls),
(372,47,o),
(295,15,o),
(240,15,cs)
);
}
);
width = 540;
},
{
layerId = "50E4EC5D-70F1-40A1-976B-CDBCAECFE4D4";
shapes = (
{
closed = 1;
nodes = (
(616,-192,l),
(750,-314,o),
(930,-389,o),
(1127,-389,cs),
(1567,-389,o),
(1921,-29,o),
(1921,421,cs),
(1921,878,o),
(1562,1243,o),
(1114,1243,cs),
(645,1243,o),
(358,923,o),
(358,517,cs),
(358,450,l),
(352,445,l),
(342,492,o),
(301,500,o),
(264,500,cs),
(118,500,o),
(20,385,o),
(20,227,cs),
(20,88,o),
(96,-9,o),
(209,-9,cs),
(279,-9,o),
(332,29,o),
(350,127,c),
(350,121,ls),
(350,37,o),
(394,-9,o),
(486,-9,cs),
(542,-9,o),
(588,9,o),
(604,30,c),
(601,34,l),
(598,28,o),
(586,18,o),
(573,18,cs),
(549,18,o),
(543,49,o),
(543,125,cs),
(543,617,ls),
(543,980,o),
(788,1236,o),
(1117,1236,cs),
(1559,1236,o),
(1917,874,o),
(1917,421,cs),
(1917,-25,o),
(1563,-384,o),
(1127,-384,cs),
(933,-384,o),
(754,-309,o),
(619,-187,c)
);
},
{
closed = 1;
nodes = (
(237,48,o),
(231,170,o),
(231,261,cs),
(231,351,o),
(238,488,o),
(303,488,cs),
(334,488,o),
(347,455,o),
(350,410,c),
(350,213,ls),
(350,74,o),
(315,48,o),
(290,48,cs)
);
}
);
width = 611;
}
);
},
{
color = (153, 255, 154, 255);
glyphname = d.6.more;
layers = (
{
layerId = "CA214F42-74A2-49D4-A9E4-C2081DD5CDFC";
shapes = (
{
closed = 1;
nodes = (
(-393,-320,l),
(-290,-210,o),
(-139,-146,o),
(30,-146,cs),
(409,-146,o),
(675,-388,o),
(1105,-388,cs),
(1545,-388,o),
(1899,-29,o),
(1899,421,cs),
(1899,878,o),
(1540,1243,o),
(1092,1243,cs),
(696,1243,o),
(368,923,o),
(368,517,cs),
(368,434,l),
(354,477,o),
(295,500,o),
(244,500,cs),
(114,500,o),
(21,389,o),
(21,229,cs),
(21,88,o),
(96,-9,o),
(209,-9,cs),
(285,-9,o),
(349,36,o),
(365,151,c),
(365,118,ls),
(365,34,o),
(394,-9,o),
(459,-9,cs),
(497,-9,o),
(528,7,o),
(539,22,c),
(535,27,l),
(530,20,o),
(518,7,o),
(495,7,cs),
(448,7,o),
(432,39,o),
(432,122,cs),
(432,617,ls),
(432,979,o),
(763,1235,o),
(1095,1235,cs),
(1537,1235,o),
(1895,873,o),
(1895,421,cs),
(1895,-25,o),
(1541,-384,o),
(1105,-384,cs),
(683,-384,o),
(412,-142,o),
(30,-142,cs),
(-141,-142,o),
(-295,-206,o),
(-398,-318,c)
);
},
{
closed = 1;
nodes = (
(118,15,o),
(94,157,o),
(94,258,cs),
(94,355,o),
(115,495,o),
(250,495,cs),
(326,495,o),
(365,439,o),
(365,401,cs),
(365,213,ls),
(365,47,o),
(288,15,o),
(233,15,cs)
);
}
);
width = 533;
},
{
layerId = "50E4EC5D-70F1-40A1-976B-CDBCAECFE4D4";
shapes = (
{
closed = 1;
nodes = (
(-371,-320,l),
(-268,-210,o),
(-117,-146,o),
(52,-146,cs),
(431,-146,o),
(697,-388,o),
(1127,-388,cs),
(1565,-388,o),
(1921,-28,o),
(1921,421,cs),
(1921,878,o),
(1562,1243,o),
(1114,1243,cs),
(645,1243,o),
(358,923,o),
(358,517,cs),
(358,444,l),
(354,461,o),
(345,500,o),
(264,500,cs),
(118,500,o),
(20,385,o),
(20,227,cs),
(20,88,o),
(96,-9,o),
(209,-9,cs),
(279,-9,o),
(332,29,o),
(350,127,c),
(350,121,ls),
(350,37,o),
(394,-9,o),
(486,-9,cs),
(542,-9,o),
(588,9,o),
(604,30,c),
(601,34,l),
(598,28,o),
(586,18,o),
(573,18,cs),
(549,18,o),
(543,49,o),
(543,125,cs),
(543,617,ls),
(543,979,o),
(788,1235,o),
(1117,1235,cs),
(1559,1235,o),
(1917,873,o),
(1917,421,cs),
(1917,-25,o),
(1563,-384,o),
(1127,-384,cs),
(705,-384,o),
(434,-142,o),
(52,-142,cs),
(-119,-142,o),
(-273,-206,o),
(-376,-318,c)
);
},
{
closed = 1;
nodes = (
(237,48,o),
(231,170,o),
(231,261,cs),
(231,351,o),
(238,488,o),
(303,488,cs),
(334,488,o),
(350,455,o),
(350,410,cs),
(350,213,ls),
(350,74,o),
(315,48,o),
(290,48,cs)
);
}
);
width = 611;
}
);
},
{
color = (153, 255, 154, 255);
glyphname = d.6.more.acc;
layers = (
{
layerId = "CA214F42-74A2-49D4-A9E4-C2081DD5CDFC";
shapes = (
{
closed = 1;
nodes = (
(-390,-320,l),
(-288,-208,o),
(-138,-144,o),
(30,-144,cs),
(409,-144,o),
(675,-442,o),
(1105,-442,cs),
(1545,-442,o),
(1899,-29,o),
(1899,421,cs),
(1899,878,o),
(1540,1243,o),
(1092,1243,cs),
(696,1243,o),
(368,923,o),
(368,517,cs),
(368,438,l),
(368,434,l),
(354,477,o),
(295,500,o),
(244,500,cs),
(114,500,o),
(21,389,o),
(21,229,cs),
(21,88,o),
(96,-9,o),
(209,-9,cs),
(285,-9,o),
(349,36,o),
(365,151,c),
(365,118,ls),
(365,34,o),
(394,-9,o),
(459,-9,cs),
(497,-9,o),
(528,7,o),
(539,22,c),
(535,27,l),
(530,20,o),
(518,7,o),
(495,7,cs),
(448,7,o),
(432,39,o),
(432,122,cs),
(432,617,ls),
(432,979,o),
(763,1235,o),
(1095,1235,cs),
(1537,1235,o),
(1895,873,o),
(1895,421,cs),
(1895,-24,o),
(1541,-382,o),
(1105,-382,cs),
(683,-382,o),
(412,-140,o),
(30,-140,cs),
(-140,-140,o),
(-293,-205,o),
(-395,-318,c)
);
},
{
closed = 1;
nodes = (
(118,15,o),
(94,157,o),
(94,258,cs),
(94,355,o),
(115,495,o),
(250,495,cs),
(326,495,o),
(365,439,o),
(365,401,cs),
(365,213,ls),
(365,47,o),
(288,15,o),
(233,15,cs)
);
}
);
width = 533;
},
{
layerId = "50E4EC5D-70F1-40A1-976B-CDBCAECFE4D4";
shapes = (
{
closed = 1;
nodes = (
(-368,-320,l),
(-266,-208,o),
(-116,-144,o),
(52,-144,cs),
(431,-144,o),
(697,-462,o),
(1127,-462,cs),
(1565,-462,o),
(1921,-28,o),
(1921,421,cs),
(1921,878,o),
(1562,1243,o),
(1114,1243,cs),
(645,1243,o),
(358,923,o),
(358,517,cs),
(358,444,l),
(352,444,l),
(343,492,o),
(301,500,o),
(264,500,cs),
(118,500,o),
(20,385,o),
(20,227,cs),
(20,88,o),
(96,-9,o),
(209,-9,cs),
(279,-9,o),
(332,29,o),
(350,127,c),
(350,121,ls),
(350,37,o),
(394,-9,o),
(486,-9,cs),
(542,-9,o),
(588,9,o),
(604,30,c),
(601,34,l),
(598,28,o),
(586,18,o),
(573,18,cs),
(549,18,o),
(543,49,o),
(543,125,cs),
(543,617,ls),
(543,979,o),
(788,1235,o),
(1117,1235,cs),
(1559,1235,o),
(1917,873,o),
(1917,421,cs),
(1917,-24,o),
(1563,-332,o),
(1127,-332,cs),
(705,-332,o),
(434,-140,o),
(52,-140,cs),
(-118,-140,o),
(-271,-205,o),
(-373,-318,c)
);
},
{
closed = 1;
nodes = (
(237,48,o),
(231,170,o),
(231,261,cs),
(231,351,o),
(238,488,o),
(303,488,cs),
(334,488,o),
(347,455,o),
(350,410,c),
(350,213,ls),
(350,74,o),
(315,48,o),
(290,48,cs)
);
}
);
width = 611;
}
);
},
{
color = (153, 255, 154, 255);
glyphname = d.9;
layers = (
{
layerId = "CA214F42-74A2-49D4-A9E4-C2081DD5CDFC";
leftMetricsKey = d;
shapes = (
{
closed = 1;
nodes = (
(372,441,l),
(354,480,o),
(299,500,o),
(251,500,cs),
(121,500,o),
(28,389,o),
(28,229,cs),
(28,88,o),
(103,-9,o),
(216,-9,cs),
(293,-9,o),
(358,37,o),
(373,158,c),
(383,-5,o),
(477,-125,o),
(658,-125,cs),
(847,-125,o),
(944,5,o),
(944,139,cs),
(944,193,o),
(914,242,o),
(861,242,cs),
(823,242,o),
(797,216,o),
(797,185,cs),
(797,155,o),
(821,128,o),
(858,128,cs),
(887,128,o),
(911,145,o),
(920,166,c),
(925,150,o),
(927,136,o),
(927,118,cs),
(927,-12,o),
(828,-115,o),
(686,-115,cs),
(563,-115,o),
(442,-39,o),
(442,187,cs),
(442,721,l),
(298,687,l),
(298,684,l),
(354,684,o),
(372,686,o),
(372,634,cs)
);
},
{
closed = 1;
nodes = (
(125,15,o),
(101,157,o),
(101,258,cs),
(101,355,o),
(122,495,o),
(257,495,cs),
(333,495,o),
(372,439,o),
(372,401,cs),
(372,213,ls),
(372,47,o),
(295,15,o),
(240,15,cs)
);
}
);
width = 977;
},
{
layerId = "50E4EC5D-70F1-40A1-976B-CDBCAECFE4D4";
shapes = (
{
closed = 1;
nodes = (
(350,452,l),
(338,493,o),
(299,500,o),
(264,500,cs),
(118,500,o),
(20,385,o),
(20,227,cs),
(20,88,o),
(96,-9,o),
(209,-9,cs),
(282,-9,o),
(336,32,o),
(352,138,c),
(369,-41,o),
(502,-152,o),
(687,-152,cs),
(892,-152,o),
(1009,-14,o),
(1009,124,cs),
(1009,216,o),
(957,301,o),
(867,301,cs),
(802,301,o),
(758,256,o),
(758,203,cs),
(758,152,o),
(799,105,o),
(862,105,cs),
(911,105,o),
(952,134,o),
(968,171,c),
(976,144,o),
(980,120,o),
(980,94,cs),
(980,-34,o),
(886,-127,o),
(759,-127,cs),
(647,-127,o),
(543,-60,o),
(543,160,cs),
(543,721,l),
(273,685,l),
(273,682,l),
(329,682,o),
(350,686,o),
(350,634,cs)
);
},
{
closed = 1;
nodes = (
(237,48,o),
(231,170,o),
(231,261,cs),
(231,351,o),
(238,488,o),
(303,488,cs),
(334,488,o),
(347,455,o),
(350,410,c),
(350,213,ls),
(350,74,o),
(315,48,o),
(290,48,cs)
);
}
);
width = 1048;
}
);
},
{
color = (255, 153, 153, 255);
glyphname = e;
layers = (
{
anchors = (
{
name = top;
position = "{246, 577}";
},
{
name = bottom;
position = "{217, -77}";
}
);
guides = (
{
position = "{0, -77}";
}
);
hints = (
{
horizontal = 1;
place = (-5,27);
type = Stem;
},
{
horizontal = 1;
place = (468,-20);
target = down;
type = TopGhost;
},
{
place = (-22,253);
type = Stem;
},
{
place = (300,220);
type = Stem;
}
);
layerId = "CA214F42-74A2-49D4-A9E4-C2081DD5CDFC";
leftMetricsKey = o;
shapes = (
{
closed = 1;
nodes = (
(417,123,l),
(395,57,o),
(336,26,o),
(269,26,cs),
(137,26,o),
(103,151,o),
(103,258,cs),
(103,354,o),
(127,495,o),
(255,495,cs),
(326,495,o),
(360,455,o),
(360,398,cs),
(360,302,o),
(230,221,o),
(89,191,c),
(99,185,l),
(146,206,o),
(254,214,o),
(328,250,cs),
(387,279,o),
(425,312,o),
(425,376,cs),
(425,465,o),
(341,500,o),
(255,500,cs),
(126,500,o),
(28,398,o),
(28,237,cs),
(28,68,o),
(112,-9,o),
(230,-9,cs),
(317,-9,o),
(390,32,o),
(423,121,c)
);
}
);
width = 453;
},
{
anchors = (
{
name = top;
position = "{289, 577}";
},
{
name = bottom;
position = "{267, -77}";
}
);
guides = (
{
position = "{0, -77}";
}
);
hints = (
{
horizontal = 1;
place = (-5,27);
type = Stem;
},
{
horizontal = 1;
place = (468,-20);
target = down;
type = TopGhost;
},
{
place = (28,203);
type = Stem;
},
{
place = (350,170);
type = Stem;
}
);
layerId = "50E4EC5D-70F1-40A1-976B-CDBCAECFE4D4";
shapes = (
{
closed = 1;
nodes = (
(489,135,l),
(464,78,o),
(414,51,o),
(353,51,cs),
(232,51,o),
(224,182,o),
(224,273,cs),
(224,457,o),
(255,495,o),
(298,495,cs),
(327,495,o),
(350,467,o),
(350,416,cs),
(350,326,o),
(287,240,o),
(214,209,c),
(215,204,l),
(264,225,o),
(333,232,o),
(391,253,cs),
(446,273,o),
(491,311,o),
(491,367,cs),
(491,456,o),
(402,500,o),
(289,500,cs),
(138,500,o),
(22,422,o),
(22,244,cs),
(22,68,o),
(123,-9,o),
(267,-9,cs),
(375,-9,o),
(454,36,o),
(492,132,c)
);
}
);
width = 511;
}
);
leftKerningGroup = _kern2;
rightKerningGroup = _kern2;
unicode = 101;
},
{
color = (153, 255, 154, 255);
glyphname = e.55;
layers = (
{
background = {
shapes = (
{
closed = 1;
nodes = (
(493,145,l),
(470,81,o),
(419,51,o),
(356,51,cs),
(254,51,o),
(227,140,o),
(227,273,cs),
(227,453,o),
(260,490,o),
(305,490,cs),
(332,490,o),
(353,464,o),
(353,416,cs),
(353,321,o),
(278,235,o),
(204,204,cs),
(196,201,o),
(168,172,o),
(175,179,cs),
(216,220,o),
(317,225,o),
(394,253,cs),
(449,273,o),
(494,311,o),
(494,367,cs),
(494,456,o),
(405,500,o),
(292,500,cs),
(141,500,o),
(25,422,o),
(25,244,cs),
(25,68,o),
(126,-9,o),
(270,-9,cs),
(382,-9,o),
(464,39,o),
(501,142,c)
);
}
);
};
layerId = "CA214F42-74A2-49D4-A9E4-C2081DD5CDFC";
leftMetricsKey = o;
shapes = (
{
closed = 1;
nodes = (
(417,123,l),
(395,57,o),
(336,26,o),
(269,26,cs),
(172,26,o),
(123,94,o),
(108,189,c),
(159,207,o),
(259,216,o),
(328,250,c),
(546,340,o),
(673,505,o),
(673,659,cs),
(673,841,o),
(511,985,o),
(327,985,cs),
(217,985,o),
(119,933,o),
(56,853,c),
(58,849,l),
(120,929,o),
(217,981,o),
(327,981,cs),
(509,981,o),
(669,838,o),
(669,659,cs),
(669,519,o),
(559,365,o),
(369,274,c),
(404,298,o),
(425,329,o),
(425,376,cs),
(425,465,o),
(341,500,o),
(255,500,cs),
(126,500,o),
(28,398,o),
(28,237,cs),
(28,68,o),
(112,-9,o),
(230,-9,cs),
(317,-9,o),
(390,32,o),
(423,121,c)
);
},
{
closed = 1;
nodes = (
(104,215,o),
(103,236,o),
(103,258,cs),
(103,354,o),
(127,495,o),
(255,495,cs),
(326,495,o),
(360,455,o),
(360,398,cs),
(360,306,o),
(241,228,o),
(107,195,c)
);
}
);
width = 457;
},
{
layerId = "50E4EC5D-70F1-40A1-976B-CDBCAECFE4D4";
shapes = (
{
closed = 1;
nodes = (
(492,135,l),
(467,78,o),
(417,51,o),
(356,51,cs),
(271,51,o),
(238,112,o),
(230,209,c),
(278,226,o),
(341,234,o),
(394,253,c),
(631,332,o),
(745,485,o),
(745,640,cs),
(745,831,o),
(591,985,o),
(400,985,cs),
(290,985,o),
(192,933,o),
(129,853,c),
(131,849,l),
(193,929,o),
(290,981,o),
(400,981,cs),
(588,981,o),
(741,828,o),
(741,640,cs),
(741,501,o),
(643,362,o),
(446,280,c),
(475,301,o),
(494,330,o),
(494,367,cs),
(494,456,o),
(405,500,o),
(292,500,cs),
(141,500,o),
(25,422,o),
(25,244,cs),
(25,68,o),
(126,-9,o),
(270,-9,cs),
(378,-9,o),
(457,36,o),
(495,132,c)
);
},
{
closed = 1;
nodes = (
(228,234,o),
(227,253,o),
(227,273,cs),
(227,457,o),
(259,495,o),
(303,495,cs),
(331,495,o),
(353,467,o),
(353,416,cs),
(353,332,o),
(294,255,o),
(229,217,c)
);
}
);
width = 514;
}
);
leftKerningGroup = _kern2;
rightKerningGroup = _kern2;
},
{
color = (153, 255, 154, 255);
glyphname = e.4;
layers = (
{
background = {
shapes = (
{
closed = 1;
nodes = (
(299,490,l),
(304,490,ls),
(332,490,o),
(353,459,o),
(353,405,cs),
(353,298,o),
(277,201,o),
(203,166,cs),
(195,163,o),
(167,130,o),
(174,138,cs),
(215,184,o),
(316,190,o),
(394,221,cs),
(449,244,o),
(494,287,o),
(494,350,cs),
(494,448,o),
(409,498,o),
(298,500,c)
);
},
{
closed = 1;
nodes = (
(226,251,l),
(226,260,o),
(226,270,o),
(226,279,cs),
(226,420,o),
(259,490,o),
(300,490,c),
(299,500,l),
(292,500,ls),
(131,500,o),
(23,386,o),
(23,205,cs),
(23,193,o),
(24,180,o),
(25,168,c)
);
},
{
closed = 1;
nodes = (
(25,168,l),
(51,-151,o),
(422,-306,o),
(691,-306,cs),
(1065,-306,o),
(1352,-7,o),
(1352,309,cs),
(1352,596,o),
(1116,834,o),
(813,834,cs),
(668,834,o),
(540,780,o),
(443,692,c),
(448,688,l),
(544,775,o),
(670,828,o),
(812,828,cs),
(1109,828,o),
(1346,597,o),
(1346,307,cs),
(1346,2,o),
(1083,-263,o),
(744,-263,cs),
(508,-263,o),
(239,-134,o),
(226,251,c)
);
}
);
};
layerId = "CA214F42-74A2-49D4-A9E4-C2081DD5CDFC";
shapes = (
{
closed = 1;
nodes = (
(386,688,l),
(483,776,o),
(611,830,o),
(754,830,cs),
(1052,830,o),
(1289,598,o),
(1289,310,cs),
(1289,-8,o),
(1037,-282,o),
(663,-282,cs),
(374,-282,o),
(135,-119,o),
(113,184,c),
(157,209,o),
(250,218,o),
(319,255,cs),
(373,284,o),
(416,319,o),
(416,380,cs),
(416,464,o),
(336,500,o),
(260,500,cs),
(130,500,o),
(34,365,o),
(34,203,cs),
(34,-133,o),
(360,-306,o),
(617,-306,cs),
(991,-306,o),
(1293,-47,o),
(1293,310,cs),
(1293,597,o),
(1057,834,o),
(754,834,cs),
(609,834,o),
(481,780,o),
(384,692,c)
);
},
{
closed = 1;
nodes = (
(111,206,o),
(111,218,o),
(111,231,cs),
(111,345,o),
(139,495,o),
(260,495,cs),
(317,495,o),
(349,469,o),
(349,411,cs),
(349,308,o),
(242,227,o),
(112,193,c)
);
}
);
width = 448;
},
{
layerId = "50E4EC5D-70F1-40A1-976B-CDBCAECFE4D4";
shapes = (
{
closed = 1;
nodes = (
(445,688,l),
(542,776,o),
(670,830,o),
(813,830,cs),
(1111,830,o),
(1348,599,o),
(1348,308,cs),
(1348,3,o),
(1084,-263,o),
(744,-263,cs),
(524,-263,o),
(277,-152,o),
(233,173,c),
(281,191,o),
(342,200,o),
(394,221,cs),
(449,244,o),
(494,287,o),
(494,350,cs),
(494,448,o),
(410,500,o),
(299,500,cs),
(138,500,o),
(23,386,o),
(23,201,cs),
(23,-126,o),
(328,-307,o),
(652,-307,cs),
(1066,-307,o),
(1352,-8,o),
(1352,308,cs),
(1352,595,o),
(1116,834,o),
(813,834,cs),
(668,834,o),
(540,780,o),
(443,692,c)
);
},
{
closed = 1;
nodes = (
(228,211,o),
(226,244,o),
(226,279,cs),
(226,422,o),
(259,494,o),
(300,495,c),
(333,495,o),
(353,462,o),
(353,405,cs),
(353,315,o),
(299,223,o),
(232,180,c)
);
}
);
width = 514;
}
);
leftKerningGroup = _kern2;
rightKerningGroup = _kern2;
},
{
color = (153, 255, 154, 255);
glyphname = e.8;
layers = (
{
background = {
};
layerId = "CA214F42-74A2-49D4-A9E4-C2081DD5CDFC";
shapes = (
{
closed = 1;
nodes = (
(-2586,346,l),
(-2449,627,o),
(-2161,823,o),
(-1831,823,cs),
(-1299,823,o),
(-888,402,o),
(-506,4,cs),
(-166,-350,o),
(156,-685,o),
(540,-685,cs),
(909,-685,o),
(1109,-429,o),
(1109,-180,cs),
(1109,58,o),
(927,290,o),
(540,290,cs),
(485,290,o),
(409,276,o),
(352,261,c),
(399,288,o),
(428,320,o),
(428,376,cs),
(428,465,o),
(344,500,o),
(258,500,cs),
(129,500,o),
(31,398,o),
(31,237,cs),
(31,68,o),
(115,-9,o),
(233,-9,cs),
(320,-9,o),
(393,32,o),
(426,121,c),
(420,123,l),
(398,57,o),
(339,26,o),
(272,26,cs),
(175,26,o),
(126,94,o),
(111,189,c),
(188,217,o),
(461,286,o),
(540,286,cs),
(924,286,o),
(1105,55,o),
(1105,-180,cs),
(1105,-428,o),
(906,-681,o),
(540,-681,cs),
(156,-681,o),
(-168,-341,o),
(-504,8,cs),
(-876,396,o),
(-1292,827,o),
(-1831,827,cs),
(-2162,827,o),
(-2452,630,o),
(-2590,348,c)
);
},
{
closed = 1;
nodes = (
(329,495,o),
(363,455,o),
(363,398,cs),
(363,306,o),
(244,228,o),
(110,195,c),
(107,215,o),
(106,236,o),
(106,258,cs),
(106,354,o),
(130,495,o),
(258,495,cs)
);
}
);
width = 458;
},
{
layerId = "50E4EC5D-70F1-40A1-976B-CDBCAECFE4D4";
shapes = (
{
closed = 1;
nodes = (
(-2535,346,l),
(-2398,627,o),
(-2110,823,o),
(-1780,823,cs),
(-1248,823,o),
(-836,402,o),
(-455,4,cs),
(-115,-351,o),
(207,-685,o),
(591,-685,cs),
(960,-685,o),
(1160,-429,o),
(1160,-180,cs),
(1160,58,o),
(978,290,o),
(591,290,cs),
(545,290,o),
(483,281,o),
(429,269,c),
(467,291,o),
(494,324,o),
(494,367,cs),
(494,456,o),
(405,500,o),
(292,500,cs),
(141,500,o),
(25,422,o),
(25,244,cs),
(25,68,o),
(126,-9,o),
(270,-9,cs),
(378,-9,o),
(457,36,o),
(495,132,c),
(492,135,l),
(467,78,o),
(417,51,o),
(356,51,cs),
(271,51,o),
(238,112,o),
(230,209,c),
(315,240,o),
(501,286,o),
(591,286,cs),
(975,286,o),
(1156,55,o),
(1156,-180,cs),
(1156,-428,o),
(957,-681,o),
(591,-681,cs),
(207,-681,o),
(-117,-341,o),
(-453,8,cs),
(-825,396,o),
(-1241,827,o),
(-1780,827,cs),
(-2111,827,o),
(-2401,630,o),
(-2539,348,c)
);
},
{
closed = 1;
nodes = (
(331,495,o),
(353,467,o),
(353,416,cs),
(353,332,o),
(294,255,o),
(229,217,c),
(228,234,o),
(227,253,o),
(227,273,cs),
(227,457,o),
(259,495,o),
(304,495,cs)
);
}
);
width = 514;
}
);
leftKerningGroup = _kern2;
rightKerningGroup = _kern2;
},
{
color = (153, 255, 154, 255);
glyphname = e.8.acc;
layers = (
{
background = {
};
layerId = "CA214F42-74A2-49D4-A9E4-C2081DD5CDFC";
shapes = (
{
closed = 1;
nodes = (
(-2586,346,l),
(-2449,627,o),
(-2161,823,o),
(-1831,823,cs),
(-1299,823,o),
(-888,402,o),
(-506,4,cs),
(-166,-350,o),
(156,-714,o),
(556,-714,cs),
(909,-714,o),
(1109,-430,o),
(1109,-181,cs),
(1109,57,o),
(927,290,o),
(540,290,cs),
(488,290,o),
(416,278,o),
(358,265,c),
(401,291,o),
(428,323,o),
(428,376,cs),
(428,465,o),
(344,500,o),
(258,500,cs),
(129,500,o),
(31,398,o),
(31,237,cs),
(31,68,o),
(115,-9,o),
(233,-9,cs),
(320,-9,o),
(393,32,o),
(426,121,c),
(420,123,l),
(398,57,o),
(339,26,o),
(272,26,cs),
(175,26,o),
(126,94,o),
(111,189,c),
(208,223,o),
(438,286,o),
(540,286,cs),
(924,286,o),
(1105,55,o),
(1105,-181,cs),
(1105,-427,o),
(906,-654,o),
(568,-654,cs),
(162,-654,o),
(-169,-341,o),
(-504,8,cs),
(-877,395,o),
(-1292,827,o),
(-1831,827,cs),
(-2162,827,o),
(-2452,630,o),
(-2590,348,c)
);
},
{
closed = 1;
nodes = (
(107,215,o),
(106,236,o),
(106,258,cs),
(106,354,o),
(130,495,o),
(258,495,cs),
(329,495,o),
(363,455,o),
(363,398,cs),
(363,306,o),
(244,228,o),
(110,195,c)
);
}
);
width = 458;
},
{
layerId = "50E4EC5D-70F1-40A1-976B-CDBCAECFE4D4";
shapes = (
{
closed = 1;
nodes = (
(-2535,346,l),
(-2398,627,o),
(-2110,823,o),
(-1780,823,cs),
(-1248,823,o),
(-836,402,o),
(-455,4,cs),
(-115,-351,o),
(207,-778,o),
(603,-778,cs),
(975,-778,o),
(1166,-519,o),
(1166,-251,cs),
(1166,105,o),
(921,290,o),
(591,290,cs),
(545,290,o),
(483,281,o),
(429,269,c),
(467,291,o),
(494,324,o),
(494,367,cs),
(494,456,o),
(405,500,o),
(292,500,cs),
(141,500,o),
(25,422,o),
(25,244,cs),
(25,68,o),
(126,-9,o),
(270,-9,cs),
(378,-9,o),
(457,36,o),
(495,132,c),
(492,135,l),
(467,78,o),
(417,51,o),
(356,51,cs),
(271,51,o),
(238,112,o),
(230,209,c),
(315,240,o),
(501,286,o),
(591,286,cs),
(974,286,o),
(1154,31,o),
(1154,-181,cs),
(1154,-427,o),
(956,-648,o),
(616,-648,cs),
(213,-648,o),
(-118,-341,o),
(-453,8,cs),
(-826,395,o),
(-1241,827,o),
(-1780,827,cs),
(-2111,827,o),
(-2401,630,o),
(-2539,348,c)
);
},
{
closed = 1;
nodes = (
(228,234,o),
(227,253,o),
(227,273,cs),
(227,457,o),
(259,495,o),
(303,495,cs),
(331,495,o),
(353,467,o),
(353,416,cs),
(353,332,o),
(294,255,o),
(229,217,c)
);
}
);
width = 514;
}
);
leftKerningGroup = _kern2;
rightKerningGroup = _kern2;
},
{
color = (153, 255, 154, 255);
glyphname = e.999;
layers = (
{
anchors = (
{
name = top;
position = "{245, 577}";
},
{
name = bottom;
position = "{216, -77}";
}
);
guides = (
{
position = "{0, -77}";
}
);
hints = (
{
horizontal = 1;
place = (-5,27);
type = Stem;
},
{
horizontal = 1;
place = (468,-20);
target = down;
type = TopGhost;
},
{
place = (-23,253);
type = Stem;
},
{
place = (299,220);
type = Stem;
}
);
layerId = "CA214F42-74A2-49D4-A9E4-C2081DD5CDFC";
leftMetricsKey = o;
shapes = (
{
closed = 1;
nodes = (
(152,203,o),
(254,214,o),
(327,250,cs),
(386,279,o),
(424,312,o),
(424,376,cs),
(424,457,o),
(347,500,o),
(265,500,cs),
(126,500,o),
(28,371,o),
(28,212,cs),
(28,29,o),
(126,-93,o),
(307,-93,cs),
(466,-93,o),
(576,9,o),
(576,125,cs),
(576,191,o),
(547,237,o),
(497,237,cs),
(461,237,o),
(436,212,o),
(436,183,cs),
(436,155,o),
(459,129,o),
(494,129,cs),
(522,129,o),
(544,145,o),
(553,165,c),
(558,150,o),
(560,136,o),
(560,119,cs),
(560,-4,o),
(454,-79,o),
(351,-79,cs),
(195,-79,o),
(121,29,o),
(104,182,c)
);
},
{
closed = 1;
nodes = (
(102,209,o),
(101,230,o),
(101,251,cs),
(101,379,o),
(163,495,o),
(265,495,cs),
(329,495,o),
(359,451,o),
(359,398,cs),
(359,305,o),
(239,222,o),
(104,189,c)
);
}
);
width = 618;
},
{
anchors = (
{
name = top;
position = "{289, 577}";
},
{
name = bottom;
position = "{267, -77}";
}
);
guides = (
{
position = "{0, -77}";
}
);
hints = (
{
horizontal = 1;
place = (-5,27);
type = Stem;
},
{
horizontal = 1;
place = (468,-20);
target = down;
type = TopGhost;
},
{
place = (28,203);
type = Stem;
},
{
place = (350,170);
type = Stem;
}
);
layerId = "50E4EC5D-70F1-40A1-976B-CDBCAECFE4D4";
shapes = (
{
closed = 1;
nodes = (
(275,226,o),
(339,234,o),
(391,253,cs),
(446,273,o),
(491,311,o),
(491,367,cs),
(491,456,o),
(402,500,o),
(289,500,cs),
(138,500,o),
(22,404,o),
(22,226,cs),
(22,-1,o),
(196,-102,o),
(372,-102,cs),
(648,-102,o),
(746,49,o),
(746,181,cs),
(746,267,o),
(699,337,o),
(619,337,cs),
(554,337,o),
(510,292,o),
(510,239,cs),
(510,188,o),
(551,141,o),
(614,141,cs),
(663,141,o),
(704,170,o),
(720,207,c),
(723,190,o),
(725,173,o),
(725,157,cs),
(725,29,o),
(623,-72,o),
(493,-72,cs),
(396,-72,o),
(251,-7,o),
(227,209,c)
);
},
{
closed = 1;
nodes = (
(225,235,o),
(224,253,o),
(224,273,cs),
(224,457,o),
(257,495,o),
(302,495,cs),
(329,495,o),
(350,467,o),
(350,416,cs),
(350,332,o),
(291,255,o),
(227,217,c)
);
}
);
width = 763;
}
);
leftKerningGroup = _kern2;
rightKerningGroup = _kern2;
},
{
glyphname = e.9;
layers = (
{
layerId = "CA214F42-74A2-49D4-A9E4-C2081DD5CDFC";
shapes = (
{
closed = 1;
nodes = (
(621,887,l),
(781,1025,o),
(988,1109,o),
(1214,1109,cs),
(1714,1109,o),
(2120,700,o),
(2120,199,cs),
(2120,-344,o),
(1645,-715,o),
(1092,-715,cs),
(558,-715,o),
(104,-363,o),
(104,180,c),
(150,203,o),
(242,218,o),
(320,259,cs),
(373,288,o),
(410,329,o),
(410,393,cs),
(410,464,o),
(338,500,o),
(271,500,cs),
(98,500,o),
(28,276,o),
(28,134,cs),
(28,-424,o),
(583,-725,o),
(1056,-725,cs),
(1637,-725,o),
(2124,-366,o),
(2124,199,cs),
(2124,711,o),
(1716,1113,o),
(1214,1113,cs),
(984,1113,o),
(775,1028,o),
(615,889,c)
);
},
{
closed = 1;
nodes = (
(104,201,o),
(105,214,o),
(106,228,cs),
(114,344,o),
(146,494,o),
(267,494,cs),
(311,494,o),
(342,468,o),
(342,415,cs),
(342,309,o),
(234,222,o),
(104,188,c)
);
}
);
width = 448;
},
{
layerId = "50E4EC5D-70F1-40A1-976B-CDBCAECFE4D4";
shapes = (
{
closed = 1;
nodes = (
(681,887,l),
(841,1025,o),
(1048,1109,o),
(1274,1109,cs),
(1774,1109,o),
(2180,707,o),
(2180,199,cs),
(2180,-333,o),
(1721,-708,o),
(1173,-708,cs),
(661,-708,o),
(247,-379,o),
(215,150,c),
(268,171,o),
(335,178,o),
(391,202,cs),
(446,226,o),
(495,270,o),
(495,350,cs),
(495,462,o),
(400,499,o),
(302,500,cs),
(150,501,o),
(22,385,o),
(22,139,cs),
(22,-388,o),
(562,-725,o),
(1116,-725,cs),
(1686,-725,o),
(2184,-366,o),
(2184,199,cs),
(2184,711,o),
(1776,1113,o),
(1274,1113,cs),
(1044,1113,o),
(835,1028,o),
(675,889,c)
);
},
{
closed = 1;
nodes = (
(213,180,o),
(213,198,o),
(213,217,cs),
(213,410,o),
(261,494,o),
(302,494,cs),
(337,494,o),
(353,458,o),
(353,403,cs),
(353,294,o),
(285,202,o),
(214,162,c)
);
}
);
width = 514;
}
);
leftKerningGroup = _kern2;
rightKerningGroup = _kern2;
},
{
color = (255, 153, 153, 255);
glyphname = f;
layers = (
{
background = {
shapes = (
{
closed = 1;
nodes = (
(221,497,l),
(221,623,ls),
(221,670,o),
(238,727,o),
(291,727,cs),
(314,727,o),
(325,716,o),
(328,709,c),
(295,694,o),
(279,660,o),
(279,626,cs),
(279,582,o),
(305,538,o),
(358,538,cs),
(407,538,o),
(435,575,o),
(435,624,cs),
(435,682,o),
(397,737,o),
(265,737,cs),
(88,737,o),
(24,639,o),
(24,505,cs),
(24,444,l)
);
},
{
closed = 1;
nodes = (
(24,505,l),
(24,0,l),
(221,0,l),
(221,505,l)
);
}
);
};
hints = (
{
horizontal = 1;
place = (-6,21);
target = up;
type = BottomGhost;
},
{
horizontal = 1;
place = (446,157);
type = Stem;
},
{
horizontal = 1;
place = (523,80);
type = Stem;
},
{
horizontal = 1;
place = (712,24);
type = Stem;
},
{
place = (22,57);
type = Stem;
},
{
place = (38,197);
type = Stem;
}
);
layerId = "CA214F42-74A2-49D4-A9E4-C2081DD5CDFC";
shapes = (
{
closed = 1;
nodes = (
(92,0,l),
(160,0,l),
(160,477,l),
(296,477,l),
(296,481,l),
(160,481,l),
(160,608,ls),
(160,691,o),
(198,732,o),
(245,732,cs),
(267,732,o),
(281,721,o),
(284,705,c),
(264,696,o),
(249,674,o),
(249,650,cs),
(249,626,o),
(264,601,o),
(296,601,cs),
(327,601,o),
(344,624,o),
(344,656,cs),
(344,709,o),
(302,736,o),
(238,736,cs),
(131,736,o),
(92,655,o),
(92,552,cs),
(92,481,l),
(10,481,l),
(10,477,l),
(92,477,l)
);
}
);
width = 294;
},
{
hints = (
{
horizontal = 1;
place = (-6,21);
target = up;
type = BottomGhost;
},
{
horizontal = 1;
place = (446,157);
type = Stem;
},
{
horizontal = 1;
place = (523,80);
type = Stem;
},
{
horizontal = 1;
place = (712,24);
type = Stem;
},
{
place = (70,57);
type = Stem;
},
{
place = (86,197);
type = Stem;
}
);
layerId = "50E4EC5D-70F1-40A1-976B-CDBCAECFE4D4";
shapes = (
{
closed = 1;
nodes = (
(67,0,l),
(264,0,l),
(264,477,l),
(339,477,l),
(339,481,l),
(264,481,l),
(264,623,ls),
(264,672,o),
(281,731,o),
(334,731,cs),
(357,731,o),
(368,717,o),
(371,709,c),
(338,694,o),
(322,660,o),
(322,626,cs),
(322,582,o),
(348,538,o),
(401,538,cs),
(450,538,o),
(478,575,o),
(478,624,cs),
(478,682,o),
(440,737,o),
(308,737,cs),
(131,737,o),
(67,639,o),
(67,505,cs),
(67,481,l),
(21,481,l),
(21,477,l),
(67,477,l)
);
}
);
width = 337;
}
);
unicode = 102;
},
{
color = (153, 255, 154, 255);
glyphname = f.7;
layers = (
{
layerId = "CA214F42-74A2-49D4-A9E4-C2081DD5CDFC";
shapes = (
{
closed = 1;
nodes = (
(10,477,l),
(92,477,l),
(92,138,ls),
(92,-234,o),
(-170,-401,o),
(-445,-401,cs),
(-780,-401,o),
(-1053,-128,o),
(-1053,207,cs),
(-1053,541,o),
(-781,813,o),
(-447,813,cs),
(-292,813,o),
(-149,753,o),
(-42,656,c),
(-37,659,l),
(-145,757,o),
(-289,817,o),
(-447,817,cs),
(-784,817,o),
(-1057,544,o),
(-1057,207,cs),
(-1057,-136,o),
(-780,-413,o),
(-437,-413,cs),
(-117,-413,o),
(164,-192,o),
(164,173,cs),
(164,279,o),
(138,381,o),
(126,477,c),
(296,477,l),
(296,481,l),
(126,481,l),
(123,506,o),
(121,531,o),
(121,555,cs),
(121,699,o),
(184,731,o),
(232,731,cs),
(249,731,o),
(280,726,o),
(284,705,c),
(264,696,o),
(249,674,o),
(249,650,cs),
(249,626,o),
(264,601,o),
(296,601,cs),
(327,601,o),
(344,624,o),
(344,656,cs),
(344,706,o),
(302,736,o),
(243,736,cs),
(131,736,o),
(92,626,o),
(92,525,cs),
(92,481,l),
(10,481,l)
);
}
);
width = 247;
},
{
layerId = "50E4EC5D-70F1-40A1-976B-CDBCAECFE4D4";
shapes = (
{
closed = 1;
nodes = (
(16,477,l),
(62,477,l),
(62,138,ls),
(62,-232,o),
(-187,-399,o),
(-452,-399,cs),
(-795,-399,o),
(-1062,-127,o),
(-1062,207,cs),
(-1062,541,o),
(-790,813,o),
(-456,813,cs),
(-301,813,o),
(-158,753,o),
(-51,656,c),
(-46,659,l),
(-154,757,o),
(-298,817,o),
(-456,817,cs),
(-793,817,o),
(-1066,548,o),
(-1066,207,cs),
(-1066,-134,o),
(-800,-413,o),
(-422,-413,cs),
(-81,-413,o),
(263,-187,o),
(263,164,cs),
(263,284,o),
(223,390,o),
(188,477,c),
(334,477,l),
(334,481,l),
(187,481,l),
(162,543,o),
(141,596,o),
(141,637,cs),
(141,700,o),
(186,733,o),
(237,733,cs),
(250,733,o),
(276,730,o),
(281,709,c),
(248,694,o),
(232,660,o),
(232,626,cs),
(232,582,o),
(258,538,o),
(311,538,cs),
(360,538,o),
(388,575,o),
(388,625,cs),
(388,681,o),
(352,737,o),
(249,737,cs),
(98,737,o),
(62,616,o),
(62,505,cs),
(62,481,l),
(16,481,l)
);
}
);
width = 316;
}
);
},
{
color = (255, 153, 153, 255);
glyphname = g;
layers = (
{
hints = (
{
horizontal = 1;
place = (-281,21);
target = up;
type = BottomGhost;
},
{
horizontal = 1;
place = (-95,166);
type = Stem;
},
{
horizontal = 1;
place = (-95,226);
type = Stem;
},
{
horizontal = 1;
place = (459,198);
type = Stem;
},
{
horizontal = 1;
place = (511,146);
type = Stem;
},
{
horizontal = 1;
place = (560,97);
type = Stem;
},
{
place = (31,96);
type = Stem;
},
{
place = (53,28);
type = Stem;
},
{
place = (53,181);
type = Stem;
},
{
place = (345,219);
type = Stem;
},
{
place = (362,183);
type = Stem;
},
{
place = (499,65);
type = Stem;
},
{
place = (513,51);
type = Stem;
}
);
layerId = "CA214F42-74A2-49D4-A9E4-C2081DD5CDFC";
shapes = (
{
closed = 1;
nodes = (
(134,13,l),
(74,23,o),
(10,-9,o),
(10,-76,cs),
(10,-188,o),
(152,-211,o),
(249,-211,cs),
(418,-211,o),
(503,-123,o),
(503,-38,cs),
(503,37,o),
(445,89,o),
(360,89,cs),
(304,89,o),
(241,75,o),
(171,75,cs),
(114,75,o),
(75,90,o),
(75,124,cs),
(75,159,o),
(112,187,o),
(150,193,c),
(155,196,l),
(97,190,o),
(34,160,o),
(34,93,cs),
(34,36,o),
(86,8,o),
(168,9,cs),
(233,10,o),
(287,22,o),
(344,22,cs),
(422,22,o),
(466,-1,o),
(466,-79,cs),
(466,-138,o),
(404,-207,o),
(249,-207,cs),
(167,-207,o),
(58,-180,o),
(58,-94,cs),
(58,-29,o),
(104,15,o),
(168,9,c)
);
},
{
closed = 1;
nodes = (
(347,172,o),
(440,211,o),
(440,335,cs),
(440,462,o),
(329,500,o),
(251,500,cs),
(173,500,o),
(62,462,o),
(62,335,cs),
(62,211,o),
(155,172,o),
(251,172,cs)
);
},
{
closed = 1;
nodes = (
(226,450,l),
(268,469,o),
(303,533,o),
(303,585,cs),
(303,622,o),
(286,651,o),
(246,651,cs),
(216,651,o),
(196,635,o),
(196,611,cs),
(196,592,o),
(208,572,o),
(238,572,cs),
(253,572,o),
(275,577,o),
(284,590,c),
(292,553,o),
(273,476,o),
(221,450,c)
);
},
{
closed = 1;
nodes = (
(335,496,o),
(372,415,o),
(372,336,cs),
(372,259,o),
(335,176,o),
(251,176,cs),
(167,176,o),
(130,259,o),
(130,336,cs),
(130,415,o),
(167,496,o),
(251,496,cs)
);
}
);
width = 489;
},
{
hints = (
{
horizontal = 1;
place = (-281,21);
target = up;
type = BottomGhost;
},
{
horizontal = 1;
place = (-95,166);
type = Stem;
},
{
horizontal = 1;
place = (-95,226);
type = Stem;
},
{
horizontal = 1;
place = (459,198);
type = Stem;
},
{
horizontal = 1;
place = (511,146);
type = Stem;
},
{
horizontal = 1;
place = (560,97);
type = Stem;
},
{
place = (50,96);
type = Stem;
},
{
place = (72,28);
type = Stem;
},
{
place = (72,181);
type = Stem;
},
{
place = (364,219);
type = Stem;
},
{
place = (381,183);
type = Stem;
},
{
place = (518,65);
type = Stem;
},
{
place = (532,51);
type = Stem;
}
);
layerId = "50E4EC5D-70F1-40A1-976B-CDBCAECFE4D4";
shapes = (
{
closed = 1;
nodes = (
(45,-30,l),
(25,-27,o),
(3,-69,o),
(3,-104,cs),
(3,-178,o),
(48,-255,o),
(267,-255,cs),
(469,-255,o),
(560,-155,o),
(560,-61,cs),
(560,24,o),
(493,104,o),
(365,104,cs),
(306,104,o),
(245,95,o),
(194,97,cs),
(134,99,o),
(92,107,o),
(92,139,cs),
(92,164,o),
(124,172,o),
(161,173,c),
(143,178,l),
(62,163,o),
(-4,128,o),
(-4,57,cs),
(-4,-49,o),
(102,-67,o),
(185,-67,cs),
(252,-67,o),
(294,-60,o),
(361,-60,cs),
(433,-60,o),
(484,-71,o),
(484,-133,cs),
(484,-189,o),
(434,-251,o),
(267,-251,cs),
(102,-251,o),
(46,-190,o),
(46,-139,cs),
(46,-96,o),
(87,-58,o),
(135,-63,c)
);
},
{
closed = 1;
nodes = (
(394,156,o),
(520,190,o),
(520,329,cs),
(520,463,o),
(372,500,o),
(270,500,cs),
(171,500,o),
(28,468,o),
(28,327,cs),
(28,189,o),
(157,156,o),
(268,156,cs)
);
},
{
closed = 1;
nodes = (
(258,438,l),
(321,492,o),
(356,542,o),
(356,600,cs),
(356,656,o),
(318,679,o),
(277,679,cs),
(236,679,o),
(206,656,o),
(206,621,cs),
(206,594,o),
(224,564,o),
(276,564,cs),
(289,564,o),
(309,568,o),
(326,577,c),
(326,533,o),
(311,491,o),
(252,438,c)
);
},
{
closed = 1;
nodes = (
(317,496,o),
(339,411,o),
(339,328,cs),
(339,245,o),
(315,160,o),
(268,160,cs),
(222,160,o),
(200,243,o),
(200,328,cs),
(200,413,o),
(224,496,o),
(270,496,cs)
);
}
);
width = 540;
}
);
unicode = 103;
},
{
color = (153, 255, 154, 255);
glyphname = g.7;
layers = (
{
background = {
shapes = (
{
closed = 1;
nodes = (
(352,156,o),
(453,197,o),
(453,327,cs),
(453,457,o),
(337,500,o),
(255,500,cs),
(172,500,o),
(53,457,o),
(53,327,cs),
(53,197,o),
(125,156,o),
(251,156,cs)
);
},
{
closed = 1;
nodes = (
(343,492,o),
(382,409,o),
(382,328,cs),
(382,247,o),
(343,164,o),
(255,164,cs),
(169,164,o),
(125,245,o),
(125,328,cs),
(125,411,o),
(169,492,o),
(255,492,cs)
);
}
);
};
layerId = "CA214F42-74A2-49D4-A9E4-C2081DD5CDFC";
shapes = (
{
closed = 1;
nodes = (
(48,481,l),
(71,473,o),
(92,463,o),
(114,454,c),
(85,428,o),
(64,390,o),
(64,335,cs),
(64,264,o),
(94,221,o),
(138,197,c),
(86,187,o),
(36,157,o),
(36,97,cs),
(36,56,o),
(63,30,o),
(110,19,c),
(59,17,o),
(12,-15,o),
(12,-72,cs),
(12,-184,o),
(154,-207,o),
(251,-207,cs),
(420,-207,o),
(505,-119,o),
(505,-34,cs),
(505,41,o),
(447,93,o),
(362,93,cs),
(306,93,o),
(243,79,o),
(173,79,cs),
(116,79,o),
(77,94,o),
(77,128,cs),
(77,160,o),
(108,186,o),
(142,195,c),
(175,179,o),
(214,172,o),
(253,172,cs),
(349,172,o),
(442,211,o),
(442,335,cs),
(442,390,o),
(421,428,o),
(391,454,c),
(497,504,o),
(574,608,o),
(574,721,cs),
(574,857,o),
(464,1014,o),
(262,1014,cs),
(-79,1014,o),
(-313,546,o),
(-714,546,cs),
(-870,546,o),
(-1000,675,o),
(-1000,831,cs),
(-1000,987,o),
(-870,1117,o),
(-714,1117,cs),
(-642,1117,o),
(-576,1089,o),
(-526,1045,c),
(-521,1047,l),
(-572,1093,o),
(-640,1121,o),
(-714,1121,cs),
(-873,1121,o),
(-1004,991,o),
(-1004,831,cs),
(-1004,671,o),
(-872,542,o),
(-714,542,cs),
(-314,542,o),
(-67,1008,o),
(260,1008,cs),
(449,1008,o),
(548,858,o),
(548,723,cs),
(548,611,o),
(480,510,o),
(384,460,c),
(346,489,o),
(295,500,o),
(253,500,cs),
(210,500,o),
(157,488,o),
(118,457,c),
(95,466,o),
(73,477,o),
(50,485,c)
);
},
{
closed = 1;
nodes = (
(179,474,o),
(210,496,o),
(253,496,cs),
(296,496,o),
(327,475,o),
(347,443,c),
(317,433,o),
(286,427,o),
(254,427,cs),
(220,427,o),
(188,433,o),
(159,442,c)
);
},
{
closed = 1;
nodes = (
(186,429,o),
(218,423,o),
(254,423,cs),
(287,423,o),
(319,428,o),
(350,438,c),
(366,409,o),
(374,372,o),
(374,336,cs),
(374,259,o),
(337,176,o),
(253,176,cs),
(169,176,o),
(132,259,o),
(132,336,cs),
(132,372,o),
(140,409,o),
(157,438,c)
);
},
{
closed = 1;
nodes = (
(157,13,o),
(163,13,o),
(170,13,cs),
(235,14,o),
(289,26,o),
(346,26,cs),
(424,26,o),
(468,3,o),
(468,-75,cs),
(468,-134,o),
(406,-203,o),
(251,-203,cs),
(169,-203,o),
(60,-176,o),
(60,-90,cs),
(60,-32,o),
(97,10,o),
(151,13,c)
);
}
);
width = 497;
},
{
layerId = "50E4EC5D-70F1-40A1-976B-CDBCAECFE4D4";
shapes = (
{
closed = 1;
nodes = (
(63,481,l),
(77,474,o),
(89,469,o),
(105,464,c),
(60,438,o),
(26,395,o),
(26,327,cs),
(26,244,o),
(73,199,o),
(134,176,c),
(57,160,o),
(-4,125,o),
(-4,57,cs),
(-4,16,o),
(12,-12,o),
(37,-31,c),
(19,-38,o),
(3,-74,o),
(3,-104,cs),
(3,-178,o),
(48,-255,o),
(267,-255,cs),
(469,-255,o),
(560,-155,o),
(560,-61,cs),
(560,24,o),
(493,104,o),
(365,104,cs),
(306,104,o),
(245,95,o),
(194,97,cs),
(134,99,o),
(92,107,o),
(92,139,cs),
(92,161,o),
(116,169,o),
(146,172,c),
(184,160,o),
(226,156,o),
(266,156,cs),
(392,156,o),
(518,190,o),
(518,329,cs),
(518,397,o),
(480,440,o),
(429,466,c),
(523,519,o),
(589,616,o),
(589,721,cs),
(589,857,o),
(479,1014,o),
(277,1014,cs),
(-64,1014,o),
(-298,546,o),
(-699,546,cs),
(-855,546,o),
(-985,675,o),
(-985,831,cs),
(-985,987,o),
(-855,1117,o),
(-699,1117,cs),
(-627,1117,o),
(-559,1087,o),
(-509,1043,c),
(-506,1047,l),
(-557,1093,o),
(-625,1121,o),
(-699,1121,cs),
(-858,1121,o),
(-989,991,o),
(-989,831,cs),
(-989,671,o),
(-857,542,o),
(-699,542,cs),
(-299,542,o),
(-58,1008,o),
(275,1008,cs),
(464,1008,o),
(563,858,o),
(563,723,cs),
(563,619,o),
(504,524,o),
(419,471,c),
(371,492,o),
(315,500,o),
(268,500,cs),
(219,500,o),
(158,492,o),
(110,467,c),
(92,474,o),
(83,477,o),
(65,485,c)
);
},
{
closed = 1;
nodes = (
(224,470,o),
(242,496,o),
(268,496,cs),
(294,496,o),
(312,470,o),
(324,433,c),
(306,429,o),
(288,427,o),
(269,427,cs),
(249,427,o),
(230,429,o),
(212,433,c)
);
},
{
closed = 1;
nodes = (
(229,425,o),
(248,423,o),
(269,423,cs),
(288,423,o),
(307,425,o),
(325,428,c),
(333,399,o),
(337,363,o),
(337,328,cs),
(337,245,o),
(313,160,o),
(266,160,cs),
(220,160,o),
(198,243,o),
(198,328,cs),
(198,364,o),
(202,399,o),
(211,429,c)
);
},
{
closed = 1;
nodes = (
(143,-66,o),
(165,-67,o),
(185,-67,cs),
(252,-67,o),
(294,-60,o),
(361,-60,cs),
(433,-60,o),
(484,-71,o),
(484,-133,cs),
(484,-189,o),
(434,-251,o),
(267,-251,cs),
(102,-251,o),
(46,-190,o),
(46,-139,cs),
(46,-100,o),
(80,-65,o),
(122,-63,c)
);
}
);
width = 543;
}
);
},
{
color = (153, 255, 154, 255);
glyphname = g.77;
layers = (
{
background = {
shapes = (
{
closed = 1;
nodes = (
(350,156,o),
(451,197,o),
(451,327,cs),
(451,457,o),
(335,500,o),
(253,500,cs),
(170,500,o),
(51,457,o),
(51,327,cs),
(51,197,o),
(123,156,o),
(249,156,cs)
);
},
{
closed = 1;
nodes = (
(341,492,o),
(380,409,o),
(380,328,cs),
(380,247,o),
(341,164,o),
(253,164,cs),
(167,164,o),
(123,245,o),
(123,328,cs),
(123,411,o),
(167,492,o),
(253,492,cs)
);
}
);
};
layerId = "CA214F42-74A2-49D4-A9E4-C2081DD5CDFC";
shapes = (
{
closed = 1;
nodes = (
(-514,-292,l),
(-664,-419,o),
(-858,-495,o),
(-1069,-495,cs),
(-1546,-495,o),
(-1934,-107,o),
(-1934,370,cs),
(-1934,847,o),
(-1546,1235,o),
(-1069,1235,cs),
(-529,1235,o),
(-125,626,o),
(261,500,c),
(258,500,o),
(254,500,o),
(251,500,cs),
(173,500,o),
(62,462,o),
(62,335,cs),
(62,264,o),
(92,221,o),
(136,197,c),
(84,187,o),
(34,157,o),
(34,97,cs),
(34,56,o),
(61,30,o),
(108,19,c),
(57,17,o),
(10,-15,o),
(10,-72,cs),
(10,-184,o),
(152,-207,o),
(249,-207,cs),
(418,-207,o),
(503,-119,o),
(503,-34,cs),
(503,41,o),
(445,93,o),
(360,93,cs),
(304,93,o),
(241,79,o),
(171,79,cs),
(114,79,o),
(75,94,o),
(75,128,cs),
(75,160,o),
(106,186,o),
(140,195,c),
(173,179,o),
(212,172,o),
(251,172,cs),
(347,172,o),
(440,211,o),
(440,335,cs),
(440,413,o),
(398,457,o),
(348,480,c),
(364,478,o),
(379,477,o),
(395,477,cs),
(590,477,o),
(741,638,o),
(741,832,cs),
(741,1027,o),
(584,1184,o),
(389,1184,cs),
(282,1184,o),
(186,1137,o),
(122,1062,c),
(128,1061,l),
(189,1134,o),
(282,1180,o),
(389,1180,cs),
(581,1180,o),
(728,1036,o),
(728,843,cs),
(728,652,o),
(568,496,o),
(376,496,cs),
(-46,496,o),
(-462,1239,o),
(-1069,1239,cs),
(-1549,1239,o),
(-1938,850,o),
(-1938,370,cs),
(-1938,-110,o),
(-1549,-499,o),
(-1069,-499,cs),
(-856,-499,o),
(-660,-422,o),
(-509,-294,c)
);
},
{
closed = 1;
nodes = (
(155,13,o),
(161,13,o),
(168,13,cs),
(233,14,o),
(287,26,o),
(344,26,cs),
(422,26,o),
(466,3,o),
(466,-75,cs),
(466,-134,o),
(404,-203,o),
(249,-203,cs),
(167,-203,o),
(58,-176,o),
(58,-90,cs),
(58,-32,o),
(95,10,o),
(149,13,c)
);
},
{
closed = 1;
nodes = (
(167,176,o),
(130,259,o),
(130,336,cs),
(130,415,o),
(167,496,o),
(251,496,cs),
(335,496,o),
(372,415,o),
(372,336,cs),
(372,259,o),
(335,176,o),
(251,176,cs)
);
}
);
width = 498;
},
{
layerId = "50E4EC5D-70F1-40A1-976B-CDBCAECFE4D4";
shapes = (
{
closed = 1;
nodes = (
(-497,-293,l),
(-647,-420,o),
(-841,-496,o),
(-1052,-496,cs),
(-1529,-496,o),
(-1917,-108,o),
(-1917,369,cs),
(-1917,846,o),
(-1529,1234,o),
(-1052,1234,cs),
(-513,1234,o),
(-111,629,o),
(275,500,c),
(271,500,o),
(266,500,o),
(262,500,cs),
(152,497,o),
(26,461,o),
(26,327,cs),
(26,244,o),
(73,199,o),
(134,176,c),
(57,160,o),
(-4,125,o),
(-4,57,cs),
(-4,16,o),
(12,-12,o),
(37,-31,c),
(19,-38,o),
(3,-74,o),
(3,-104,cs),
(3,-178,o),
(48,-255,o),
(267,-255,cs),
(469,-255,o),
(560,-155,o),
(560,-61,cs),
(560,24,o),
(493,104,o),
(365,104,cs),
(306,104,o),
(245,95,o),
(194,97,cs),
(134,99,o),
(92,107,o),
(92,139,cs),
(92,161,o),
(116,169,o),
(146,172,c),
(184,160,o),
(226,156,o),
(266,156,cs),
(392,156,o),
(518,190,o),
(518,329,cs),
(518,407,o),
(468,452,o),
(406,476,c),
(408,476,o),
(410,476,o),
(412,476,c),
(607,476,o),
(758,637,o),
(758,831,cs),
(758,1026,o),
(601,1183,o),
(406,1183,cs),
(299,1183,o),
(203,1136,o),
(139,1061,c),
(145,1060,l),
(206,1133,o),
(299,1179,o),
(406,1179,cs),
(598,1179,o),
(745,1035,o),
(745,842,cs),
(745,651,o),
(585,495,o),
(393,495,cs),
(-29,495,o),
(-445,1238,o),
(-1052,1238,cs),
(-1532,1238,o),
(-1921,849,o),
(-1921,369,cs),
(-1921,-111,o),
(-1532,-500,o),
(-1052,-500,cs),
(-839,-500,o),
(-643,-423,o),
(-492,-295,c)
);
},
{
closed = 1;
nodes = (
(143,-66,o),
(165,-67,o),
(185,-67,cs),
(252,-67,o),
(294,-60,o),
(361,-60,cs),
(433,-60,o),
(484,-71,o),
(484,-133,cs),
(484,-189,o),
(434,-251,o),
(267,-251,cs),
(102,-251,o),
(46,-190,o),
(46,-139,cs),
(46,-100,o),
(80,-65,o),
(122,-63,c)
);
},
{
closed = 1;
nodes = (
(220,160,o),
(198,243,o),
(198,328,cs),
(198,413,o),
(222,496,o),
(268,496,cs),
(315,496,o),
(337,411,o),
(337,328,cs),
(337,245,o),
(313,160,o),
(266,160,cs)
);
}
);
width = 543;
}
);
},
{
color = (153, 255, 154, 255);
glyphname = g.7777;
layers = (
{
background = {
shapes = (
{
closed = 1;
nodes = (
(356,156,o),
(457,197,o),
(457,327,cs),
(457,457,o),
(341,500,o),
(259,500,cs),
(176,500,o),
(57,457,o),
(57,327,cs),
(57,197,o),
(129,156,o),
(255,156,cs)
);
},
{
closed = 1;
nodes = (
(347,492,o),
(386,409,o),
(386,328,cs),
(386,247,o),
(347,164,o),
(259,164,cs),
(173,164,o),
(129,245,o),
(129,328,cs),
(129,411,o),
(173,492,o),
(259,492,cs)
);
}
);
};
layerId = "CA214F42-74A2-49D4-A9E4-C2081DD5CDFC";
shapes = (
{
closed = 1;
nodes = (
(1318,-298,l),
(1469,-426,o),
(1665,-503,o),
(1878,-503,cs),
(2358,-503,o),
(2747,-114,o),
(2747,366,cs),
(2747,846,o),
(2358,1235,o),
(1878,1235,cs),
(1261,1235,o),
(839,496,o),
(410,496,cs),
(230,496,o),
(81,650,o),
(81,839,cs),
(81,1032,o),
(228,1176,o),
(420,1176,cs),
(527,1176,o),
(620,1130,o),
(681,1057,c),
(687,1058,l),
(623,1133,o),
(527,1180,o),
(420,1180,cs),
(225,1180,o),
(68,1023,o),
(68,828,cs),
(68,679,o),
(153,549,o),
(277,499,c),
(270,500,o),
(263,500,o),
(257,500,cs),
(179,500,o),
(68,462,o),
(68,335,cs),
(68,264,o),
(98,221,o),
(142,197,c),
(90,187,o),
(40,157,o),
(40,97,cs),
(40,56,o),
(67,30,o),
(114,19,c),
(63,17,o),
(16,-15,o),
(16,-72,cs),
(16,-184,o),
(158,-207,o),
(255,-207,cs),
(424,-207,o),
(509,-119,o),
(509,-34,cs),
(509,41,o),
(451,93,o),
(366,93,cs),
(310,93,o),
(247,79,o),
(177,79,cs),
(120,79,o),
(81,94,o),
(81,128,cs),
(81,160,o),
(112,186,o),
(146,195,c),
(179,179,o),
(218,172,o),
(257,172,cs),
(353,172,o),
(446,211,o),
(446,335,cs),
(446,412,o),
(406,456,o),
(356,479,c),
(368,478,o),
(379,477,o),
(391,477,cs),
(827,477,o),
(1265,1231,o),
(1878,1231,cs),
(2354,1231,o),
(2741,843,o),
(2741,366,cs),
(2741,-110,o),
(2354,-497,o),
(1878,-497,cs),
(1667,-497,o),
(1473,-421,o),
(1323,-294,c)
);
},
{
closed = 1;
nodes = (
(173,176,o),
(136,259,o),
(136,336,cs),
(136,415,o),
(173,496,o),
(257,496,cs),
(341,496,o),
(378,415,o),
(378,336,cs),
(378,259,o),
(341,176,o),
(257,176,cs)
);
},
{
closed = 1;
nodes = (
(161,13,o),
(167,13,o),
(174,13,cs),
(239,14,o),
(293,26,o),
(350,26,cs),
(428,26,o),
(472,3,o),
(472,-75,cs),
(472,-134,o),
(410,-203,o),
(255,-203,cs),
(173,-203,o),
(64,-176,o),
(64,-90,cs),
(64,-32,o),
(101,10,o),
(155,13,c)
);
}
);
width = 505;
},
{
layerId = "50E4EC5D-70F1-40A1-976B-CDBCAECFE4D4";
shapes = (
{
closed = 1;
nodes = (
(1329,-296,l),
(1480,-424,o),
(1676,-501,o),
(1889,-501,cs),
(2369,-501,o),
(2758,-112,o),
(2758,368,cs),
(2758,848,o),
(2369,1237,o),
(1889,1237,cs),
(1282,1237,o),
(866,494,o),
(444,494,cs),
(252,494,o),
(92,650,o),
(92,841,cs),
(92,1034,o),
(239,1178,o),
(431,1178,cs),
(538,1178,o),
(631,1132,o),
(692,1059,c),
(698,1060,l),
(634,1135,o),
(538,1182,o),
(431,1182,cs),
(236,1182,o),
(79,1025,o),
(79,830,cs),
(79,681,o),
(169,551,o),
(299,499,c),
(288,500,o),
(278,500,o),
(268,500,cs),
(169,500,o),
(26,468,o),
(26,327,cs),
(26,244,o),
(73,199,o),
(134,176,c),
(57,160,o),
(-4,125,o),
(-4,57,cs),
(-4,16,o),
(12,-12,o),
(37,-31,c),
(19,-38,o),
(3,-74,o),
(3,-104,cs),
(3,-178,o),
(48,-255,o),
(267,-255,cs),
(469,-255,o),
(560,-155,o),
(560,-61,cs),
(560,24,o),
(493,104,o),
(365,104,cs),
(306,104,o),
(245,95,o),
(194,97,cs),
(134,99,o),
(92,107,o),
(92,139,cs),
(92,161,o),
(116,169,o),
(146,172,c),
(184,160,o),
(226,156,o),
(266,156,cs),
(392,156,o),
(518,190,o),
(518,329,cs),
(518,406,o),
(469,451,o),
(408,475,c),
(414,475,o),
(419,475,o),
(425,475,cs),
(854,475,o),
(1286,1233,o),
(1889,1233,cs),
(2365,1233,o),
(2752,845,o),
(2752,368,cs),
(2752,-108,o),
(2365,-495,o),
(1889,-495,cs),
(1678,-495,o),
(1484,-419,o),
(1334,-292,c)
);
},
{
closed = 1;
nodes = (
(220,160,o),
(198,243,o),
(198,328,cs),
(198,413,o),
(222,496,o),
(268,496,cs),
(315,496,o),
(337,411,o),
(337,328,cs),
(337,245,o),
(313,160,o),
(266,160,cs)
);
},
{
closed = 1;
nodes = (
(143,-66,o),
(165,-67,o),
(185,-67,cs),
(252,-67,o),
(294,-60,o),
(361,-60,cs),
(433,-60,o),
(484,-71,o),
(484,-133,cs),
(484,-189,o),
(434,-251,o),
(267,-251,cs),
(102,-251,o),
(46,-190,o),
(46,-139,cs),
(46,-100,o),
(80,-65,o),
(122,-63,c)
);
}
);
width = 540;
}
);
},
{
color = (154, 153, 255, 255);
glyphname = g.778;
layers = (
{
background = {
shapes = (
{
closed = 1;
nodes = (
(367,156,o),
(468,197,o),
(468,327,cs),
(468,457,o),
(352,500,o),
(270,500,cs),
(187,500,o),
(68,457,o),
(68,327,cs),
(68,197,o),
(140,156,o),
(266,156,cs)
);
},
{
closed = 1;
nodes = (
(358,492,o),
(397,409,o),
(397,328,cs),
(397,247,o),
(358,164,o),
(270,164,cs),
(184,164,o),
(140,245,o),
(140,328,cs),
(140,411,o),
(184,492,o),
(270,492,cs)
);
}
);
};
guides = (
{
angle = 90;
position = "{270, 0}";
}
);
layerId = "CA214F42-74A2-49D4-A9E4-C2081DD5CDFC";
shapes = (
{
closed = 1;
nodes = (
(1451,-179,l),
(1569,-299,o),
(1732,-372,o),
(1914,-372,cs),
(2274,-372,o),
(2565,-82,o),
(2565,278,cs),
(2565,638,o),
(2274,929,o),
(1914,929,cs),
(1526,929,o),
(1257,580,o),
(927,129,cs),
(750,-114,o),
(513,-283,o),
(297,-283,cs),
(108,-283,o),
(8,-132,o),
(4,-37,cs),
(0,58,o),
(50,155,o),
(139,205,c),
(174,180,o),
(221,171,o),
(268,171,cs),
(317,171,o),
(365,181,o),
(401,208,c),
(435,191,o),
(465,167,o),
(487,137,c),
(493,137,l),
(471,168,o),
(442,194,o),
(406,212,c),
(437,238,o),
(457,276,o),
(457,334,cs),
(457,413,o),
(414,458,o),
(362,480,c),
(379,478,o),
(395,477,o),
(412,477,cs),
(607,477,o),
(758,638,o),
(758,832,cs),
(758,1027,o),
(601,1184,o),
(406,1184,cs),
(299,1184,o),
(203,1137,o),
(139,1062,c),
(145,1061,l),
(206,1133,o),
(299,1178,o),
(406,1178,cs),
(598,1178,o),
(745,1035,o),
(745,843,cs),
(745,652,o),
(585,496,o),
(393,496,cs),
(359,496,o),
(325,501,o),
(291,510,c),
(309,537,o),
(320,570,o),
(320,600,cs),
(320,637,o),
(303,666,o),
(263,666,cs),
(233,666,o),
(213,650,o),
(213,626,cs),
(213,607,o),
(225,587,o),
(255,587,cs),
(270,587,o),
(292,592,o),
(301,605,c),
(306,582,o),
(300,544,o),
(283,512,c),
(-103,619,o),
(-498,1239,o),
(-1052,1239,cs),
(-1532,1239,o),
(-1921,850,o),
(-1921,370,cs),
(-1921,-110,o),
(-1532,-499,o),
(-1052,-499,cs),
(-839,-499,o),
(-643,-422,o),
(-492,-294,c),
(-497,-290,l),
(-647,-417,o),
(-841,-493,o),
(-1052,-493,cs),
(-1529,-493,o),
(-1917,-106,o),
(-1917,370,cs),
(-1917,847,o),
(-1529,1235,o),
(-1052,1235,cs),
(-512,1235,o),
(-110,628,o),
(276,500,c),
(275,499,l),
(171,499,o),
(79,450,o),
(79,334,cs),
(79,274,o),
(101,233,o),
(134,208,c),
(39,156,o),
(-17,53,o),
(-17,-53,c),
(-18,-226,o),
(109,-349,o),
(302,-349,cs),
(551,-349,o),
(759,-123,o),
(970,171,cs),
(1266,584,o),
(1548,925,o),
(1914,925,cs),
(2271,925,o),
(2561,635,o),
(2561,278,cs),
(2561,-78,o),
(2271,-366,o),
(1914,-366,cs),
(1734,-366,o),
(1571,-293,o),
(1455,-175,c)
);
},
{
closed = 1;
nodes = (
(243,465,l),
(256,471,o),
(269,481,o),
(280,494,c),
(356,487,o),
(389,410,o),
(389,335,cs),
(389,298,o),
(380,259,o),
(362,229,c),
(334,237,o),
(303,242,o),
(270,242,cs),
(236,242,o),
(205,237,o),
(176,227,c),
(156,257,o),
(147,297,o),
(147,335,cs),
(147,414,o),
(184,495,o),
(268,495,c),
(270,495,o),
(271,495,o),
(273,495,c),
(264,483,o),
(252,472,o),
(238,465,c)
);
},
{
closed = 1;
nodes = (
(206,233,o),
(237,238,o),
(270,238,cs),
(301,238,o),
(331,233,o),
(359,225,c),
(339,195,o),
(309,175,o),
(268,175,cs),
(228,175,o),
(198,194,o),
(178,223,c)
);
}
);
width = 521;
},
{
guides = (
{
angle = 90;
position = "{270, 0}";
}
);
layerId = "50E4EC5D-70F1-40A1-976B-CDBCAECFE4D4";
shapes = (
{
closed = 1;
nodes = (
(1451,-194,l),
(1569,-314,o),
(1732,-387,o),
(1914,-387,cs),
(2274,-387,o),
(2565,-97,o),
(2565,263,cs),
(2565,623,o),
(2274,914,o),
(1914,914,cs),
(1519,914,o),
(1271,554,o),
(927,114,cs),
(754,-107,o),
(520,-260,o),
(308,-260,cs),
(112,-260,o),
(15,-129,o),
(15,-14,cs),
(15,60,o),
(53,136,o),
(122,181,c),
(165,162,o),
(217,156,o),
(266,156,cs),
(322,156,o),
(377,163,o),
(422,182,c),
(448,166,o),
(470,146,o),
(487,122,c),
(493,122,l),
(476,146,o),
(453,167,o),
(427,184,c),
(481,209,o),
(518,254,o),
(518,329,cs),
(518,407,o),
(468,452,o),
(406,476,c),
(408,476,o),
(410,476,o),
(412,476,c),
(607,476,o),
(758,637,o),
(758,831,cs),
(758,1026,o),
(601,1183,o),
(406,1183,cs),
(299,1183,o),
(203,1136,o),
(139,1061,c),
(145,1060,l),
(206,1132,o),
(299,1177,o),
(406,1177,cs),
(598,1177,o),
(745,1034,o),
(745,842,cs),
(745,651,o),
(585,495,o),
(393,495,cs),
(369,495,o),
(344,497,o),
(320,502,c),
(343,533,o),
(356,565,o),
(356,600,cs),
(356,656,o),
(318,679,o),
(277,679,cs),
(236,679,o),
(206,656,o),
(206,621,cs),
(206,594,o),
(224,564,o),
(276,564,cs),
(289,564,o),
(309,568,o),
(326,577,c),
(326,553,o),
(322,530,o),
(308,505,c),
(-86,592,o),
(-486,1238,o),
(-1052,1238,cs),
(-1532,1238,o),
(-1921,849,o),
(-1921,369,cs),
(-1921,-111,o),
(-1532,-500,o),
(-1052,-500,cs),
(-839,-500,o),
(-643,-423,o),
(-492,-295,c),
(-497,-291,l),
(-647,-418,o),
(-841,-494,o),
(-1052,-494,cs),
(-1529,-494,o),
(-1917,-107,o),
(-1917,369,cs),
(-1917,846,o),
(-1529,1234,o),
(-1052,1234,cs),
(-513,1234,o),
(-111,629,o),
(275,500,c),
(270,500,l),
(158,499,o),
(26,464,o),
(26,327,cs),
(26,253,o),
(63,209,o),
(115,184,c),
(22,127,o),
(-33,22,o),
(-33,-86,cs),
(-33,-253,o),
(100,-406,o),
(301,-406,cs),
(551,-406,o),
(747,-147,o),
(976,156,cs),
(1300,586,o),
(1548,910,o),
(1914,910,cs),
(2271,910,o),
(2561,620,o),
(2561,263,cs),
(2561,-93,o),
(2271,-381,o),
(1914,-381,cs),
(1734,-381,o),
(1571,-308,o),
(1455,-190,c)
);
},
{
closed = 1;
nodes = (
(258,438,l),
(274,452,o),
(289,465,o),
(301,479,c),
(326,450,o),
(337,388,o),
(337,328,cs),
(337,291,o),
(333,253,o),
(323,223,c),
(306,226,o),
(288,227,o),
(270,227,cs),
(250,227,o),
(231,226,o),
(212,222,c),
(203,252,o),
(198,290,o),
(198,328,cs),
(198,413,o),
(222,496,o),
(268,496,cs),
(278,496,o),
(287,492,o),
(295,485,c),
(284,470,o),
(270,455,o),
(252,438,c)
);
},
{
closed = 1;
nodes = (
(231,221,o),
(250,223,o),
(270,223,cs),
(288,223,o),
(304,222,o),
(321,219,c),
(309,184,o),
(291,160,o),
(266,160,cs),
(242,160,o),
(224,184,o),
(213,218,c)
);
}
);
width = 540;
}
);
},
{
color = (255, 153, 153, 255);
glyphname = g.777;
layers = (
{
background = {
shapes = (
{
closed = 1;
nodes = (
(367,156,o),
(468,197,o),
(468,327,cs),
(468,457,o),
(352,500,o),
(270,500,cs),
(187,500,o),
(68,457,o),
(68,327,cs),
(68,197,o),
(140,156,o),
(266,156,cs)
);
},
{
closed = 1;
nodes = (
(358,492,o),
(397,409,o),
(397,328,cs),
(397,247,o),
(358,164,o),
(270,164,cs),
(184,164,o),
(140,245,o),
(140,328,cs),
(140,411,o),
(184,492,o),
(270,492,cs)
);
}
);
};
guides = (
{
angle = 90;
position = "{270, 0}";
}
);
layerId = "CA214F42-74A2-49D4-A9E4-C2081DD5CDFC";
shapes = (
{
closed = 1;
nodes = (
(317,172,o),
(366,182,o),
(402,209,c),
(437,191,o),
(467,167,o),
(489,137,c),
(493,138,l),
(471,169,o),
(442,195,o),
(406,213,c),
(437,239,o),
(457,277,o),
(457,335,cs),
(457,449,o),
(368,491,o),
(293,499,c),
(309,525,o),
(320,557,o),
(320,585,cs),
(320,622,o),
(303,651,o),
(263,651,cs),
(233,651,o),
(213,635,o),
(213,611,cs),
(213,592,o),
(225,572,o),
(255,572,cs),
(270,572,o),
(292,577,o),
(301,590,c),
(306,568,o),
(301,530,o),
(285,499,c),
(279,499,o),
(273,500,o),
(268,500,cs),
(190,500,o),
(79,462,o),
(79,335,cs),
(79,275,o),
(101,234,o),
(134,209,c),
(39,157,o),
(-17,54,o),
(-17,-52,c),
(-18,-225,o),
(109,-348,o),
(302,-348,cs),
(551,-348,o),
(752,-117,o),
(970,172,c),
(1266,585,o),
(1548,926,o),
(1914,926,cs),
(2271,926,o),
(2561,636,o),
(2561,279,cs),
(2561,-78,o),
(2271,-367,o),
(1914,-367,cs),
(1734,-367,o),
(1570,-293,o),
(1454,-175,c),
(1451,-178,l),
(1569,-298,o),
(1732,-371,o),
(1914,-371,cs),
(2274,-371,o),
(2565,-81,o),
(2565,279,cs),
(2565,639,o),
(2274,930,o),
(1914,930,cs),
(1526,930,o),
(1258,580,o),
(927,130,cs),
(751,-114,o),
(513,-282,o),
(297,-282,cs),
(108,-282,o),
(8,-131,o),
(4,-36,cs),
(0,59,o),
(50,156,o),
(139,206,c),
(174,181,o),
(221,172,o),
(268,172,cs)
);
},
{
closed = 1;
nodes = (
(243,450,l),
(261,458,o),
(277,474,o),
(290,494,c),
(358,481,o),
(389,408,o),
(389,336,cs),
(389,299,o),
(380,260,o),
(362,230,c),
(334,238,o),
(303,243,o),
(270,243,cs),
(236,243,o),
(205,238,o),
(176,228,c),
(156,258,o),
(147,298,o),
(147,336,cs),
(147,415,o),
(184,496,o),
(268,496,cs),
(273,496,o),
(277,496,o),
(282,495,c),
(271,476,o),
(257,460,o),
(238,450,c)
);
},
{
closed = 1;
nodes = (
(206,234,o),
(237,239,o),
(270,239,cs),
(301,239,o),
(331,234,o),
(359,226,c),
(339,196,o),
(309,176,o),
(268,176,cs),
(228,176,o),
(198,195,o),
(178,224,c)
);
}
);
width = 521;
},
{
guides = (
{
angle = 90;
position = "{270, 0}";
}
);
layerId = "50E4EC5D-70F1-40A1-976B-CDBCAECFE4D4";
shapes = (
{
closed = 1;
nodes = (
(322,156,o),
(377,163,o),
(422,182,c),
(449,166,o),
(471,145,o),
(489,121,c),
(493,122,l),
(476,146,o),
(453,167,o),
(427,184,c),
(481,209,o),
(518,254,o),
(518,329,cs),
(518,443,o),
(411,486,o),
(316,497,c),
(342,530,o),
(356,564,o),
(356,600,cs),
(356,656,o),
(318,679,o),
(277,679,cs),
(236,679,o),
(206,656,o),
(206,621,cs),
(206,594,o),
(224,564,o),
(276,564,cs),
(289,564,o),
(309,568,o),
(326,577,c),
(326,551,o),
(320,525,o),
(304,498,c),
(291,499,o),
(280,500,o),
(268,500,cs),
(169,500,o),
(26,468,o),
(26,327,cs),
(26,253,o),
(63,209,o),
(115,184,c),
(22,127,o),
(-33,22,o),
(-33,-86,cs),
(-33,-253,o),
(100,-406,o),
(301,-406,cs),
(551,-406,o),
(747,-147,o),
(976,156,cs),
(1300,586,o),
(1548,910,o),
(1914,910,cs),
(2271,910,o),
(2561,620,o),
(2561,263,cs),
(2561,-94,o),
(2271,-383,o),
(1914,-383,cs),
(1734,-383,o),
(1570,-309,o),
(1454,-191,c),
(1451,-194,l),
(1569,-314,o),
(1732,-387,o),
(1914,-387,cs),
(2274,-387,o),
(2565,-97,o),
(2565,263,cs),
(2565,623,o),
(2274,914,o),
(1914,914,cs),
(1519,914,o),
(1271,554,o),
(927,114,cs),
(754,-107,o),
(520,-260,o),
(308,-260,cs),
(112,-260,o),
(15,-129,o),
(15,-14,cs),
(15,60,o),
(53,136,o),
(122,181,c),
(165,162,o),
(217,156,o),
(266,156,cs)
);
},
{
closed = 1;
nodes = (
(258,438,l),
(274,452,o),
(289,465,o),
(301,479,c),
(326,450,o),
(337,388,o),
(337,328,cs),
(337,291,o),
(333,253,o),
(323,223,c),
(306,226,o),
(288,227,o),
(270,227,cs),
(250,227,o),
(231,226,o),
(212,222,c),
(203,252,o),
(198,290,o),
(198,328,cs),
(198,413,o),
(222,496,o),
(268,496,cs),
(278,496,o),
(287,492,o),
(295,485,c),
(284,470,o),
(270,455,o),
(252,438,c)
);
},
{
closed = 1;
nodes = (
(231,221,o),
(250,223,o),
(270,223,cs),
(288,223,o),
(304,222,o),
(321,219,c),
(309,184,o),
(291,160,o),
(266,160,cs),
(242,160,o),
(224,184,o),
(213,218,c)
);
}
);
width = 540;
}
);
},
{
color = (153, 255, 154, 255);
glyphname = g.77.acc;
layers = (
{
background = {
shapes = (
{
closed = 1;
nodes = (
(359,156,o),
(460,197,o),
(460,327,cs),
(460,457,o),
(344,500,o),
(262,500,cs),
(179,500,o),
(60,457,o),
(60,327,cs),
(60,197,o),
(132,156,o),
(258,156,cs)
);
},
{
closed = 1;
nodes = (
(350,492,o),
(389,409,o),
(389,328,cs),
(389,247,o),
(350,164,o),
(262,164,cs),
(176,164,o),
(132,245,o),
(132,328,cs),
(132,411,o),
(176,492,o),
(262,492,cs)
);
}
);
};
layerId = "CA214F42-74A2-49D4-A9E4-C2081DD5CDFC";
shapes = (
{
closed = 1;
nodes = (
(-504,-292,l),
(-654,-419,o),
(-849,-496,o),
(-1060,-496,cs),
(-1537,-496,o),
(-1925,-108,o),
(-1925,369,cs),
(-1925,845,o),
(-1537,1232,o),
(-1060,1232,cs),
(-521,1232,o),
(-119,628,o),
(267,500,c),
(163,500,o),
(71,451,o),
(71,335,cs),
(71,264,o),
(101,221,o),
(145,197,c),
(93,187,o),
(43,157,o),
(43,97,cs),
(43,56,o),
(70,30,o),
(117,19,c),
(66,17,o),
(19,-15,o),
(19,-72,cs),
(19,-184,o),
(161,-207,o),
(258,-207,cs),
(427,-207,o),
(512,-119,o),
(512,-34,cs),
(512,41,o),
(454,93,o),
(369,93,cs),
(313,93,o),
(250,79,o),
(180,79,cs),
(123,79,o),
(84,94,o),
(84,128,cs),
(84,160,o),
(115,186,o),
(149,195,c),
(182,179,o),
(221,172,o),
(260,172,cs),
(356,172,o),
(449,211,o),
(449,335,cs),
(449,411,o),
(409,455,o),
(360,479,c),
(375,477,o),
(389,476,o),
(404,476,cs),
(599,476,o),
(750,637,o),
(750,831,cs),
(750,1026,o),
(595,1183,o),
(398,1183,cs),
(291,1183,o),
(195,1136,o),
(131,1061,c),
(137,1060,l),
(198,1133,o),
(291,1179,o),
(398,1179,cs),
(590,1179,o),
(737,1035,o),
(737,842,cs),
(737,651,o),
(577,495,o),
(385,495,cs),
(-88,495,o),
(-453,1302,o),
(-1060,1302,cs),
(-1540,1302,o),
(-1929,849,o),
(-1929,369,cs),
(-1929,-111,o),
(-1540,-500,o),
(-1060,-500,cs),
(-847,-500,o),
(-651,-423,o),
(-500,-295,c)
);
},
{
closed = 1;
nodes = (
(164,13,o),
(170,13,o),
(177,13,cs),
(242,14,o),
(296,26,o),
(353,26,cs),
(431,26,o),
(475,3,o),
(475,-75,cs),
(475,-134,o),
(413,-203,o),
(258,-203,cs),
(176,-203,o),
(67,-176,o),
(67,-90,cs),
(67,-32,o),
(104,10,o),
(158,13,c)
);
},
{
closed = 1;
nodes = (
(176,176,o),
(139,259,o),
(139,336,cs),
(139,415,o),
(176,496,o),
(260,496,cs),
(344,496,o),
(381,415,o),
(381,336,cs),
(381,259,o),
(344,176,o),
(260,176,cs)
);
}
);
width = 507;
},
{
layerId = "50E4EC5D-70F1-40A1-976B-CDBCAECFE4D4";
shapes = (
{
closed = 1;
nodes = (
(-496,-292,l),
(-646,-419,o),
(-841,-496,o),
(-1052,-496,cs),
(-1529,-496,o),
(-1917,-108,o),
(-1917,369,cs),
(-1917,845,o),
(-1529,1181,o),
(-1052,1181,cs),
(-516,1181,o),
(-115,623,o),
(269,500,c),
(169,500,o),
(26,468,o),
(26,327,cs),
(26,244,o),
(73,199,o),
(134,176,c),
(57,160,o),
(-4,125,o),
(-4,57,cs),
(-4,16,o),
(12,-12,o),
(37,-31,c),
(19,-38,o),
(3,-74,o),
(3,-104,cs),
(3,-178,o),
(48,-255,o),
(267,-255,cs),
(469,-255,o),
(560,-155,o),
(560,-61,cs),
(560,24,o),
(493,104,o),
(365,104,cs),
(306,104,o),
(245,95,o),
(194,97,cs),
(134,99,o),
(92,107,o),
(92,139,cs),
(92,161,o),
(116,169,o),
(146,172,c),
(184,160,o),
(226,156,o),
(266,156,cs),
(392,156,o),
(518,190,o),
(518,329,cs),
(518,407,o),
(468,452,o),
(406,476,c),
(408,476,o),
(410,476,o),
(412,476,c),
(607,476,o),
(758,637,o),
(758,831,cs),
(758,1026,o),
(603,1183,o),
(406,1183,cs),
(299,1183,o),
(203,1136,o),
(139,1061,c),
(145,1060,l),
(206,1133,o),
(299,1179,o),
(406,1179,cs),
(598,1179,o),
(745,1035,o),
(745,842,cs),
(745,651,o),
(585,495,o),
(393,495,cs),
(-119,495,o),
(-445,1341,o),
(-1052,1341,cs),
(-1532,1341,o),
(-1921,849,o),
(-1921,369,cs),
(-1921,-111,o),
(-1532,-500,o),
(-1052,-500,cs),
(-839,-500,o),
(-643,-423,o),
(-492,-295,c)
);
},
{
closed = 1;
nodes = (
(143,-66,o),
(165,-67,o),
(185,-67,cs),
(252,-67,o),
(294,-60,o),
(361,-60,cs),
(433,-60,o),
(484,-71,o),
(484,-133,cs),
(484,-189,o),
(434,-251,o),
(267,-251,cs),
(102,-251,o),
(46,-190,o),
(46,-139,cs),
(46,-100,o),
(80,-65,o),
(122,-63,c)
);
},
{
closed = 1;
nodes = (
(220,160,o),
(198,243,o),
(198,328,cs),
(198,413,o),
(222,496,o),
(268,496,cs),
(315,496,o),
(337,411,o),
(337,328,cs),
(337,245,o),
(313,160,o),
(266,160,cs)
);
}
);
width = 543;
}
);
},
{
color = (153, 255, 154, 255);
glyphname = g.7777.acc;
layers = (
{
background = {
shapes = (
{
closed = 1;
nodes = (
(355,156,o),
(456,197,o),
(456,327,cs),
(456,457,o),
(340,500,o),
(258,500,cs),
(175,500,o),
(56,457,o),
(56,327,cs),
(56,197,o),
(128,156,o),
(254,156,cs)
);
},
{
closed = 1;
nodes = (
(346,492,o),
(385,409,o),
(385,328,cs),
(385,247,o),
(346,164,o),
(258,164,cs),
(172,164,o),
(128,245,o),
(128,328,cs),
(128,411,o),
(172,492,o),
(258,492,cs)
);
}
);
};
layerId = "CA214F42-74A2-49D4-A9E4-C2081DD5CDFC";
shapes = (
{
closed = 1;
nodes = (
(1317,-296,l),
(1468,-424,o),
(1664,-501,o),
(1877,-501,cs),
(2357,-501,o),
(2746,-112,o),
(2746,368,cs),
(2746,848,o),
(2357,1301,o),
(1877,1301,cs),
(1260,1301,o),
(886,498,o),
(409,498,cs),
(229,498,o),
(80,652,o),
(80,841,cs),
(80,1034,o),
(227,1178,o),
(419,1178,cs),
(526,1178,o),
(619,1132,o),
(680,1059,c),
(686,1060,l),
(622,1135,o),
(526,1182,o),
(419,1182,cs),
(224,1182,o),
(67,1025,o),
(67,830,cs),
(67,678,o),
(155,547,o),
(282,499,c),
(273,500,o),
(264,500,o),
(256,500,cs),
(178,500,o),
(67,462,o),
(67,335,cs),
(67,264,o),
(97,221,o),
(141,197,c),
(89,187,o),
(39,157,o),
(39,97,cs),
(39,56,o),
(66,30,o),
(113,19,c),
(62,17,o),
(15,-15,o),
(15,-72,cs),
(15,-184,o),
(157,-207,o),
(254,-207,cs),
(423,-207,o),
(508,-119,o),
(508,-34,cs),
(508,41,o),
(450,93,o),
(365,93,cs),
(309,93,o),
(246,79,o),
(176,79,cs),
(119,79,o),
(80,94,o),
(80,128,cs),
(80,160,o),
(111,186,o),
(145,195,c),
(178,179,o),
(217,172,o),
(256,172,cs),
(352,172,o),
(445,211,o),
(445,335,cs),
(445,415,o),
(401,460,o),
(349,482,c),
(362,480,o),
(376,479,o),
(390,479,cs),
(826,479,o),
(1264,1231,o),
(1877,1231,cs),
(2354,1231,o),
(2742,844,o),
(2742,368,cs),
(2742,-109,o),
(2354,-497,o),
(1877,-497,cs),
(1665,-497,o),
(1471,-420,o),
(1320,-292,c)
);
},
{
closed = 1;
nodes = (
(160,13,o),
(166,13,o),
(173,13,cs),
(238,14,o),
(292,26,o),
(349,26,cs),
(427,26,o),
(471,3,o),
(471,-75,cs),
(471,-134,o),
(409,-203,o),
(254,-203,cs),
(172,-203,o),
(63,-176,o),
(63,-90,cs),
(63,-32,o),
(100,10,o),
(154,13,c)
);
},
{
closed = 1;
nodes = (
(172,176,o),
(135,259,o),
(135,336,cs),
(135,415,o),
(172,496,o),
(256,496,cs),
(340,496,o),
(377,415,o),
(377,336,cs),
(377,259,o),
(340,176,o),
(256,176,cs)
);
}
);
width = 504;
},
{
layerId = "50E4EC5D-70F1-40A1-976B-CDBCAECFE4D4";
shapes = (
{
closed = 1;
nodes = (
(1329,-296,l),
(1480,-424,o),
(1676,-501,o),
(1889,-501,cs),
(2369,-501,o),
(2758,-112,o),
(2758,368,cs),
(2758,848,o),
(2369,1342,o),
(1889,1342,cs),
(1282,1342,o),
(955,494,o),
(444,494,cs),
(252,494,o),
(92,650,o),
(92,841,cs),
(92,1034,o),
(239,1178,o),
(431,1178,cs),
(538,1178,o),
(631,1132,o),
(692,1059,c),
(698,1060,l),
(634,1135,o),
(538,1182,o),
(431,1182,cs),
(236,1182,o),
(79,1025,o),
(79,830,cs),
(79,681,o),
(169,551,o),
(299,499,c),
(288,500,o),
(278,500,o),
(268,500,cs),
(169,500,o),
(26,468,o),
(26,327,cs),
(26,244,o),
(73,199,o),
(134,176,c),
(57,160,o),
(-4,125,o),
(-4,57,cs),
(-4,16,o),
(12,-12,o),
(37,-31,c),
(19,-38,o),
(3,-74,o),
(3,-104,cs),
(3,-178,o),
(48,-255,o),
(267,-255,cs),
(469,-255,o),
(560,-155,o),
(560,-61,cs),
(560,24,o),
(493,104,o),
(365,104,cs),
(306,104,o),
(245,95,o),
(194,97,cs),
(134,99,o),
(92,107,o),
(92,139,cs),
(92,161,o),
(116,169,o),
(146,172,c),
(184,160,o),
(226,156,o),
(266,156,cs),
(392,156,o),
(518,190,o),
(518,329,cs),
(518,406,o),
(469,451,o),
(408,475,c),
(414,475,o),
(419,475,o),
(425,475,cs),
(854,475,o),
(1286,1182,o),
(1889,1182,cs),
(2366,1182,o),
(2754,844,o),
(2754,368,cs),
(2754,-109,o),
(2366,-497,o),
(1889,-497,cs),
(1677,-497,o),
(1483,-420,o),
(1332,-292,c)
);
},
{
closed = 1;
nodes = (
(143,-66,o),
(165,-67,o),
(185,-67,cs),
(252,-67,o),
(294,-60,o),
(361,-60,cs),
(433,-60,o),
(484,-71,o),
(484,-133,cs),
(484,-189,o),
(434,-251,o),
(267,-251,cs),
(102,-251,o),
(46,-190,o),
(46,-139,cs),
(46,-100,o),
(80,-65,o),
(122,-63,c)
);
},
{
closed = 1;
nodes = (
(220,160,o),
(198,243,o),
(198,328,cs),
(198,413,o),
(222,496,o),
(268,496,cs),
(315,496,o),
(337,411,o),
(337,328,cs),
(337,245,o),
(313,160,o),
(266,160,cs)
);
}
);
width = 540;
}
);
},
{
color = (154, 153, 255, 255);
glyphname = g.778.acc;
layers = (
{
background = {
shapes = (
{
closed = 1;
nodes = (
(367,156,o),
(468,197,o),
(468,327,cs),
(468,457,o),
(352,500,o),
(270,500,cs),
(187,500,o),
(68,457,o),
(68,327,cs),
(68,197,o),
(140,156,o),
(266,156,cs)
);
},
{
closed = 1;
nodes = (
(358,492,o),
(397,409,o),
(397,328,cs),
(397,247,o),
(358,164,o),
(270,164,cs),
(184,164,o),
(140,245,o),
(140,328,cs),
(140,411,o),
(184,492,o),
(270,492,cs)
);
}
);
};
guides = (
{
angle = 90;
position = "{270, 0}";
}
);
layerId = "CA214F42-74A2-49D4-A9E4-C2081DD5CDFC";
shapes = (
{
closed = 1;
nodes = (
(317,172,o),
(365,182,o),
(401,209,c),
(436,192,o),
(466,167,o),
(488,137,c),
(493,138,l),
(471,169,o),
(442,195,o),
(406,213,c),
(437,239,o),
(457,277,o),
(457,335,cs),
(457,411,o),
(417,456,o),
(368,479,c),
(383,477,o),
(397,476,o),
(412,476,cs),
(607,476,o),
(758,637,o),
(758,831,cs),
(758,1026,o),
(601,1183,o),
(406,1183,cs),
(299,1183,o),
(203,1136,o),
(139,1061,c),
(145,1060,l),
(206,1133,o),
(299,1179,o),
(406,1179,cs),
(598,1179,o),
(745,1035,o),
(745,842,cs),
(745,651,o),
(585,495,o),
(393,495,cs),
(361,495,o),
(329,499,o),
(298,506,c),
(312,531,o),
(320,559,o),
(320,585,cs),
(320,622,o),
(303,651,o),
(263,651,cs),
(233,651,o),
(213,635,o),
(213,611,cs),
(213,592,o),
(225,572,o),
(255,572,cs),
(270,572,o),
(292,577,o),
(301,590,c),
(305,570,o),
(302,537,o),
(289,508,c),
(-133,612,o),
(-491,1302,o),
(-1052,1302,cs),
(-1532,1302,o),
(-1921,849,o),
(-1921,369,cs),
(-1921,-111,o),
(-1532,-500,o),
(-1052,-500,cs),
(-839,-500,o),
(-643,-423,o),
(-492,-295,c),
(-497,-291,l),
(-647,-418,o),
(-841,-494,o),
(-1052,-494,cs),
(-1528,-494,o),
(-1915,-107,o),
(-1915,369,cs),
(-1915,845,o),
(-1528,1232,o),
(-1052,1232,cs),
(-513,1232,o),
(-111,629,o),
(275,500,c),
(171,500,o),
(79,451,o),
(79,335,cs),
(79,275,o),
(101,234,o),
(134,209,c),
(39,157,o),
(-17,54,o),
(-17,-52,c),
(-18,-225,o),
(109,-348,o),
(302,-348,cs),
(551,-348,o),
(754,-120,o),
(968,172,cs),
(1268,581,o),
(1548,882,o),
(1914,882,cs),
(2271,882,o),
(2561,635,o),
(2561,279,cs),
(2561,-78,o),
(2271,-367,o),
(1914,-367,cs),
(1733,-367,o),
(1570,-293,o),
(1453,-174,c),
(1451,-178,l),
(1569,-298,o),
(1732,-371,o),
(1914,-371,cs),
(2274,-371,o),
(2565,-81,o),
(2565,279,cs),
(2565,639,o),
(2274,952,o),
(1914,952,cs),
(1526,952,o),
(1257,581,o),
(927,130,cs),
(750,-113,o),
(513,-282,o),
(297,-282,cs),
(108,-282,o),
(8,-131,o),
(4,-36,cs),
(0,59,o),
(50,156,o),
(139,206,c),
(174,181,o),
(221,172,o),
(268,172,cs)
);
},
{
closed = 1;
nodes = (
(243,450,l),
(261,458,o),
(277,474,o),
(290,494,c),
(358,481,o),
(389,408,o),
(389,336,cs),
(389,299,o),
(380,260,o),
(362,230,c),
(334,238,o),
(303,243,o),
(270,243,cs),
(236,243,o),
(205,238,o),
(176,228,c),
(156,258,o),
(147,298,o),
(147,336,cs),
(147,415,o),
(184,496,o),
(268,496,cs),
(273,496,o),
(277,496,o),
(282,495,c),
(271,476,o),
(257,460,o),
(238,450,c)
);
},
{
closed = 1;
nodes = (
(206,234,o),
(237,239,o),
(270,239,cs),
(301,239,o),
(331,235,o),
(359,226,c),
(339,196,o),
(309,176,o),
(268,176,cs),
(228,176,o),
(198,195,o),
(178,224,c)
);
}
);
width = 521;
},
{
guides = (
{
angle = 90;
position = "{270, 0}";
}
);
layerId = "50E4EC5D-70F1-40A1-976B-CDBCAECFE4D4";
shapes = (
{
closed = 1;
nodes = (
(321,156,o),
(376,163,o),
(421,182,c),
(447,166,o),
(470,145,o),
(488,121,c),
(493,122,l),
(476,146,o),
(453,167,o),
(427,184,c),
(481,209,o),
(518,254,o),
(518,329,cs),
(518,407,o),
(468,452,o),
(406,476,c),
(408,476,o),
(410,476,o),
(412,476,c),
(607,476,o),
(758,637,o),
(758,831,cs),
(758,1026,o),
(603,1183,o),
(406,1183,cs),
(299,1183,o),
(203,1136,o),
(139,1061,c),
(145,1060,l),
(206,1133,o),
(299,1179,o),
(406,1179,cs),
(598,1179,o),
(745,1035,o),
(745,842,cs),
(745,651,o),
(585,495,o),
(393,495,cs),
(368,495,o),
(343,497,o),
(319,501,c),
(343,533,o),
(356,565,o),
(356,600,cs),
(356,656,o),
(318,679,o),
(277,679,cs),
(236,679,o),
(206,656,o),
(206,621,cs),
(206,594,o),
(224,564,o),
(276,564,cs),
(289,564,o),
(309,568,o),
(326,577,c),
(326,552,o),
(321,529,o),
(307,503,c),
(-157,589,o),
(-480,1341,o),
(-1052,1341,cs),
(-1532,1341,o),
(-1921,849,o),
(-1921,369,cs),
(-1921,-111,o),
(-1532,-500,o),
(-1052,-500,cs),
(-839,-500,o),
(-643,-423,o),
(-492,-295,c),
(-496,-292,l),
(-646,-419,o),
(-841,-496,o),
(-1052,-496,cs),
(-1529,-496,o),
(-1917,-108,o),
(-1917,369,cs),
(-1917,845,o),
(-1529,1181,o),
(-1052,1181,cs),
(-516,1181,o),
(-115,623,o),
(268,500,c),
(169,500,o),
(26,468,o),
(26,327,cs),
(26,253,o),
(63,209,o),
(115,184,c),
(22,127,o),
(-33,22,o),
(-33,-86,cs),
(-33,-253,o),
(100,-406,o),
(301,-406,cs),
(551,-406,o),
(738,-149,o),
(967,154,cs),
(1291,583,o),
(1548,820,o),
(1914,820,cs),
(2271,820,o),
(2561,619,o),
(2561,263,cs),
(2561,-94,o),
(2271,-383,o),
(1914,-383,cs),
(1733,-383,o),
(1570,-309,o),
(1453,-190,c),
(1451,-194,l),
(1569,-314,o),
(1732,-387,o),
(1914,-387,cs),
(2274,-387,o),
(2565,-97,o),
(2565,263,cs),
(2565,623,o),
(2274,948,o),
(1914,948,cs),
(1519,948,o),
(1271,554,o),
(927,114,cs),
(754,-107,o),
(520,-260,o),
(308,-260,cs),
(112,-260,o),
(15,-129,o),
(15,-14,cs),
(15,60,o),
(53,136,o),
(122,181,c),
(165,162,o),
(217,156,o),
(266,156,cs)
);
},
{
closed = 1;
nodes = (
(258,438,l),
(274,452,o),
(289,465,o),
(301,479,c),
(326,450,o),
(337,388,o),
(337,328,cs),
(337,291,o),
(333,253,o),
(323,223,c),
(306,226,o),
(288,227,o),
(270,227,cs),
(250,227,o),
(231,226,o),
(212,222,c),
(203,252,o),
(198,290,o),
(198,328,cs),
(198,413,o),
(222,496,o),
(268,496,cs),
(278,496,o),
(287,492,o),
(295,485,c),
(284,470,o),
(270,455,o),
(252,438,c)
);
},
{
closed = 1;
nodes = (
(231,221,o),
(250,223,o),
(270,223,cs),
(288,223,o),
(304,222,o),
(321,219,c),
(309,184,o),
(291,160,o),
(266,160,cs),
(242,160,o),
(224,184,o),
(213,218,c)
);
}
);
width = 540;
}
);
},
{
color = (255, 153, 153, 255);
glyphname = g.777.acc;
layers = (
{
background = {
shapes = (
{
closed = 1;
nodes = (
(367,156,o),
(468,197,o),
(468,327,cs),
(468,457,o),
(352,500,o),
(270,500,cs),
(187,500,o),
(68,457,o),
(68,327,cs),
(68,197,o),
(140,156,o),
(266,156,cs)
);
},
{
closed = 1;
nodes = (
(358,492,o),
(397,409,o),
(397,328,cs),
(397,247,o),
(358,164,o),
(270,164,cs),
(184,164,o),
(140,245,o),
(140,328,cs),
(140,411,o),
(184,492,o),
(270,492,cs)
);
}
);
};
guides = (
{
angle = 90;
position = "{270, 0}";
}
);
layerId = "CA214F42-74A2-49D4-A9E4-C2081DD5CDFC";
shapes = (
{
closed = 1;
nodes = (
(317,172,o),
(365,182,o),
(401,209,c),
(436,192,o),
(466,167,o),
(488,137,c),
(493,138,l),
(471,169,o),
(442,195,o),
(406,213,c),
(437,239,o),
(457,277,o),
(457,335,cs),
(457,449,o),
(368,491,o),
(293,499,c),
(309,525,o),
(320,557,o),
(320,585,cs),
(320,622,o),
(303,651,o),
(263,651,cs),
(233,651,o),
(213,635,o),
(213,611,cs),
(213,592,o),
(225,572,o),
(255,572,cs),
(270,572,o),
(292,577,o),
(301,590,c),
(306,568,o),
(301,530,o),
(285,499,c),
(279,499,o),
(273,500,o),
(268,500,cs),
(190,500,o),
(79,462,o),
(79,335,cs),
(79,275,o),
(101,234,o),
(134,209,c),
(39,157,o),
(-17,54,o),
(-17,-52,c),
(-18,-225,o),
(109,-348,o),
(302,-348,cs),
(551,-348,o),
(754,-120,o),
(968,172,cs),
(1268,581,o),
(1548,893,o),
(1914,893,cs),
(2271,893,o),
(2561,635,o),
(2561,279,cs),
(2561,-78,o),
(2271,-367,o),
(1914,-367,cs),
(1733,-367,o),
(1570,-293,o),
(1453,-174,c),
(1451,-178,l),
(1569,-298,o),
(1732,-371,o),
(1914,-371,cs),
(2274,-371,o),
(2565,-81,o),
(2565,279,cs),
(2565,639,o),
(2274,963,o),
(1914,963,cs),
(1526,963,o),
(1258,580,o),
(927,130,cs),
(751,-114,o),
(513,-282,o),
(297,-282,cs),
(108,-282,o),
(8,-131,o),
(4,-36,cs),
(0,59,o),
(50,156,o),
(139,206,c),
(174,181,o),
(221,172,o),
(268,172,cs)
);
},
{
closed = 1;
nodes = (
(243,450,l),
(261,458,o),
(277,474,o),
(290,494,c),
(358,481,o),
(389,408,o),
(389,336,cs),
(389,299,o),
(380,260,o),
(362,230,c),
(334,238,o),
(303,243,o),
(270,243,cs),
(236,243,o),
(205,238,o),
(176,228,c),
(156,258,o),
(147,298,o),
(147,336,cs),
(147,415,o),
(184,496,o),
(268,496,cs),
(273,496,o),
(277,496,o),
(282,495,c),
(271,476,o),
(257,460,o),
(238,450,c)
);
},
{
closed = 1;
nodes = (
(206,234,o),
(237,239,o),
(270,239,cs),
(301,239,o),
(331,235,o),
(359,226,c),
(339,196,o),
(309,176,o),
(268,176,cs),
(228,176,o),
(198,195,o),
(178,224,c)
);
}
);
width = 521;
},
{
guides = (
{
angle = 90;
position = "{270, 0}";
}
);
layerId = "50E4EC5D-70F1-40A1-976B-CDBCAECFE4D4";
shapes = (
{
closed = 1;
nodes = (
(321,156,o),
(376,163,o),
(421,182,c),
(447,166,o),
(470,145,o),
(488,121,c),
(493,122,l),
(476,146,o),
(453,167,o),
(427,184,c),
(481,209,o),
(518,254,o),
(518,329,cs),
(518,443,o),
(411,486,o),
(316,497,c),
(342,530,o),
(356,564,o),
(356,600,cs),
(356,656,o),
(318,679,o),
(277,679,cs),
(236,679,o),
(206,656,o),
(206,621,cs),
(206,594,o),
(224,564,o),
(276,564,cs),
(289,564,o),
(309,568,o),
(326,577,c),
(326,551,o),
(320,525,o),
(304,498,c),
(291,499,o),
(280,500,o),
(268,500,cs),
(169,500,o),
(26,468,o),
(26,327,cs),
(26,253,o),
(63,209,o),
(115,184,c),
(22,127,o),
(-33,22,o),
(-33,-86,cs),
(-33,-253,o),
(100,-406,o),
(301,-406,cs),
(551,-406,o),
(738,-149,o),
(967,154,cs),
(1291,583,o),
(1548,820,o),
(1914,820,cs),
(2271,820,o),
(2561,619,o),
(2561,263,cs),
(2561,-94,o),
(2271,-383,o),
(1914,-383,cs),
(1733,-383,o),
(1570,-309,o),
(1453,-190,c),
(1451,-194,l),
(1569,-314,o),
(1732,-387,o),
(1914,-387,cs),
(2274,-387,o),
(2565,-97,o),
(2565,263,cs),
(2565,623,o),
(2274,948,o),
(1914,948,cs),
(1519,948,o),
(1271,554,o),
(927,114,cs),
(754,-107,o),
(520,-260,o),
(308,-260,cs),
(112,-260,o),
(15,-129,o),
(15,-14,cs),
(15,60,o),
(53,136,o),
(122,181,c),
(165,162,o),
(217,156,o),
(266,156,cs)
);
},
{
closed = 1;
nodes = (
(258,438,l),
(274,452,o),
(289,465,o),
(301,479,c),
(326,450,o),
(337,388,o),
(337,328,cs),
(337,291,o),
(333,253,o),
(323,223,c),
(306,226,o),
(288,227,o),
(270,227,cs),
(250,227,o),
(231,226,o),
(212,222,c),
(203,252,o),
(198,290,o),
(198,328,cs),
(198,413,o),
(222,496,o),
(268,496,cs),
(278,496,o),
(287,492,o),
(295,485,c),
(284,470,o),
(270,455,o),
(252,438,c)
);
},
{
closed = 1;
nodes = (
(231,221,o),
(250,223,o),
(270,223,cs),
(288,223,o),
(304,222,o),
(321,219,c),
(309,184,o),
(291,160,o),
(266,160,cs),
(242,160,o),
(224,184,o),
(213,218,c)
);
}
);
width = 540;
}
);
},
{
color = (255, 153, 153, 255);
glyphname = h;
layers = (
{
hints = (
{
horizontal = 1;
place = (-6,38);
type = Stem;
},
{
horizontal = 1;
place = (436,31);
type = Stem;
},
{
horizontal = 1;
place = (736,-20);
target = down;
type = TopGhost;
},
{
place = (19,207);
type = Stem;
},
{
place = (340,198);
type = Stem;
}
);
layerId = "CA214F42-74A2-49D4-A9E4-C2081DD5CDFC";
leftMetricsKey = l;
rightMetricsKey = n;
shapes = (
{
closed = 1;
nodes = (
(65,0,l),
(132,0,l),
(132,285,ls),
(132,390,o),
(194,474,o),
(284,474,cs),
(351,474,o),
(382,426,o),
(382,349,cs),
(382,101,ls),
(382,26,o),
(414,-9,o),
(467,-9,cs),
(509,-9,o),
(530,12,o),
(541,35,c),
(538,39,l),
(529,18,o),
(516,11,o),
(499,11,cs),
(462,11,o),
(452,46,o),
(452,102,cs),
(452,339,ls),
(452,440,o),
(411,504,o),
(312,504,cs),
(230,504,o),
(165,444,o),
(132,352,c),
(132,355,l),
(132,473,l),
(132,721,l),
(-12,687,l),
(-12,684,l),
(44,684,o),
(65,686,o),
(65,634,cs)
);
}
);
width = 533;
},
{
hints = (
{
horizontal = 1;
place = (-6,38);
type = Stem;
},
{
horizontal = 1;
place = (436,31);
type = Stem;
},
{
horizontal = 1;
place = (736,-20);
target = down;
type = TopGhost;
},
{
place = (79,207);
type = Stem;
},
{
place = (400,198);
type = Stem;
}
);
layerId = "50E4EC5D-70F1-40A1-976B-CDBCAECFE4D4";
shapes = (
{
closed = 1;
nodes = (
(65,0,l),
(262,0,l),
(262,290,ls),
(262,386,o),
(298,453,o),
(345,453,cs),
(377,453,o),
(382,424,o),
(382,345,cs),
(382,184,ls),
(382,47,o),
(430,-9,o),
(525,-9,cs),
(585,-9,o),
(614,13,o),
(626,45,c),
(622,47,l),
(617,30,o),
(608,25,o),
(601,25,cs),
(587,25,o),
(584,53,o),
(584,99,cs),
(584,295,ls),
(584,420,o),
(554,500,o),
(427,500,cs),
(295,500,o),
(268,379,o),
(259,351,c),
(251,351,l),
(251,471,l),
(251,721,l),
(-19,685,l),
(-19,682,l),
(37,682,o),
(65,686,o),
(65,634,cs)
);
}
);
width = 644;
}
);
unicode = 104;
},
{
color = (153, 255, 154, 255);
glyphname = h.4;
layers = (
{
layerId = "CA214F42-74A2-49D4-A9E4-C2081DD5CDFC";
leftMetricsKey = h;
shapes = (
{
closed = 1;
nodes = (
(-12,687,l),
(-12,684,l),
(44,684,o),
(65,686,o),
(65,634,cs),
(65,0,l),
(132,0,l),
(132,289,ls),
(132,394,o),
(194,474,o),
(284,474,cs),
(351,474,o),
(382,426,o),
(382,349,cs),
(382,137,ls),
(382,-231,o),
(647,-414,o),
(970,-414,cs),
(1323,-414,o),
(1631,-161,o),
(1631,207,cs),
(1631,544,o),
(1358,817,o),
(1021,817,cs),
(863,817,o),
(719,757,o),
(611,659,c),
(617,655,l),
(724,753,o),
(866,813,o),
(1021,813,cs),
(1355,813,o),
(1627,541,o),
(1627,207,cs),
(1627,-148,o),
(1325,-403,o),
(981,-403,cs),
(700,-403,o),
(452,-232,o),
(452,109,cs),
(452,334,ls),
(452,435,o),
(421,504,o),
(322,504,cs),
(235,504,o),
(166,451,o),
(133,355,c),
(133,354,o),
(132,353,o),
(132,352,c),
(132,353,o),
(132,354,o),
(132,355,c),
(132,721,l)
);
}
);
width = 531;
},
{
layerId = "50E4EC5D-70F1-40A1-976B-CDBCAECFE4D4";
shapes = (
{
closed = 1;
nodes = (
(-12,689,l),
(-12,684,l),
(44,684,o),
(65,688,o),
(65,636,cs),
(65,0,l),
(262,0,l),
(262,288,ls),
(262,384,o),
(298,453,o),
(345,453,cs),
(377,453,o),
(382,424,o),
(382,345,cs),
(382,173,l),
(384,-192,o),
(706,-413,o),
(1092,-413,cs),
(1435,-413,o),
(1712,-136,o),
(1712,207,cs),
(1712,544,o),
(1439,817,o),
(1102,817,cs),
(944,817,o),
(800,757,o),
(692,659,c),
(698,655,l),
(805,753,o),
(947,813,o),
(1102,813,cs),
(1436,813,o),
(1708,541,o),
(1708,207,cs),
(1708,-126,o),
(1436,-397,o),
(1102,-397,cs),
(831,-397,o),
(584,-231,o),
(584,138,cs),
(584,295,ls),
(584,420,o),
(554,500,o),
(427,500,cs),
(295,500,o),
(267,379,o),
(259,351,cs),
(257,346,o),
(256,344,o),
(254,344,c),
(252,344,o),
(251,347,o),
(251,351,cs),
(251,721,l)
);
}
);
width = 644;
}
);
},
{
color = (153, 255, 154, 255);
glyphname = h.6;
layers = (
{
layerId = "CA214F42-74A2-49D4-A9E4-C2081DD5CDFC";
shapes = (
{
closed = 1;
nodes = (
(70,0,l),
(137,0,l),
(137,289,ls),
(137,394,o),
(199,474,o),
(289,474,cs),
(356,474,o),
(387,426,o),
(387,349,cs),
(387,101,ls),
(387,26,o),
(419,-9,o),
(472,-9,cs),
(514,-9,o),
(535,12,o),
(546,35,c),
(543,39,l),
(534,18,o),
(521,11,o),
(504,11,cs),
(467,11,o),
(457,46,o),
(457,102,cs),
(457,334,ls),
(457,435,o),
(426,504,o),
(327,504,cs),
(247,504,o),
(172,448,o),
(137,358,c),
(137,359,o),
(137,363,o),
(137,364,c),
(137,617,ls),
(137,979,o),
(468,1235,o),
(800,1235,cs),
(1242,1235,o),
(1600,873,o),
(1600,421,cs),
(1600,-25,o),
(1246,-384,o),
(810,-384,cs),
(617,-384,o),
(439,-309,o),
(305,-187,c),
(301,-192,l),
(434,-314,o),
(614,-389,o),
(810,-389,cs),
(1250,-389,o),
(1604,-29,o),
(1604,421,cs),
(1604,878,o),
(1245,1243,o),
(797,1243,cs),
(401,1243,o),
(70,923,o),
(70,517,cs)
);
}
);
width = 537;
},
{
layerId = "50E4EC5D-70F1-40A1-976B-CDBCAECFE4D4";
shapes = (
{
closed = 1;
nodes = (
(65,0,l),
(262,0,l),
(262,288,ls),
(262,384,o),
(298,453,o),
(345,453,cs),
(377,453,o),
(382,424,o),
(382,345,cs),
(382,184,ls),
(382,47,o),
(430,-9,o),
(525,-9,cs),
(585,-9,o),
(614,13,o),
(626,45,c),
(622,47,l),
(617,30,o),
(608,25,o),
(601,25,cs),
(587,25,o),
(584,53,o),
(584,99,cs),
(584,295,ls),
(584,420,o),
(554,500,o),
(427,500,cs),
(295,500,o),
(267,379,o),
(259,351,cs),
(255,339,o),
(251,344,o),
(251,351,cs),
(251,617,ls),
(251,979,o),
(497,1235,o),
(829,1235,cs),
(1271,1235,o),
(1629,873,o),
(1629,421,cs),
(1629,-25,o),
(1275,-384,o),
(839,-384,cs),
(646,-384,o),
(468,-309,o),
(334,-187,c),
(330,-192,l),
(463,-314,o),
(643,-389,o),
(839,-389,cs),
(1279,-389,o),
(1633,-29,o),
(1633,421,cs),
(1633,878,o),
(1274,1243,o),
(826,1243,cs),
(357,1243,o),
(65,923,o),
(65,517,cs)
);
}
);
width = 644;
}
);
},
{
color = (153, 255, 154, 255);
glyphname = h.6.more;
layers = (
{
layerId = "CA214F42-74A2-49D4-A9E4-C2081DD5CDFC";
shapes = (
{
closed = 1;
nodes = (
(-656,-320,l),
(-554,-210,o),
(-404,-146,o),
(-236,-146,cs),
(143,-146,o),
(380,-388,o),
(810,-388,cs),
(1250,-388,o),
(1604,-29,o),
(1604,421,cs),
(1604,878,o),
(1245,1243,o),
(797,1243,cs),
(401,1243,o),
(70,923,o),
(70,517,cs),
(70,0,l),
(137,0,l),
(137,289,ls),
(137,394,o),
(199,474,o),
(289,474,cs),
(356,474,o),
(387,426,o),
(387,349,cs),
(387,101,ls),
(387,26,o),
(419,-9,o),
(472,-9,cs),
(514,-9,o),
(535,12,o),
(546,35,c),
(543,39,l),
(534,18,o),
(521,11,o),
(504,11,cs),
(467,11,o),
(457,46,o),
(457,102,cs),
(457,334,ls),
(457,435,o),
(426,504,o),
(327,504,cs),
(240,504,o),
(171,451,o),
(138,355,cs),
(125,317,o),
(137,377,o),
(137,406,cs),
(137,617,ls),
(137,979,o),
(468,1235,o),
(800,1235,cs),
(1242,1235,o),
(1600,873,o),
(1600,421,cs),
(1600,-25,o),
(1246,-384,o),
(810,-384,cs),
(388,-384,o),
(146,-142,o),
(-236,-142,cs),
(-407,-142,o),
(-561,-206,o),
(-664,-318,c)
);
}
);
width = 537;
},
{
layerId = "50E4EC5D-70F1-40A1-976B-CDBCAECFE4D4";
shapes = (
{
closed = 1;
nodes = (
(-656,-320,l),
(-554,-210,o),
(-404,-146,o),
(-236,-146,cs),
(143,-146,o),
(409,-388,o),
(839,-388,cs),
(1277,-388,o),
(1633,-28,o),
(1633,421,cs),
(1633,878,o),
(1274,1243,o),
(826,1243,cs),
(357,1243,o),
(65,923,o),
(65,517,cs),
(65,0,l),
(262,0,l),
(262,288,ls),
(262,384,o),
(298,453,o),
(345,453,cs),
(377,453,o),
(382,424,o),
(382,345,cs),
(382,184,ls),
(382,47,o),
(430,-9,o),
(525,-9,cs),
(585,-9,o),
(614,13,o),
(626,45,c),
(622,47,l),
(617,30,o),
(608,25,o),
(601,25,cs),
(587,25,o),
(584,53,o),
(584,99,cs),
(584,295,l),
(585,420,o),
(554,500,o),
(427,500,cs),
(295,500,o),
(267,379,o),
(259,351,cs),
(255,339,o),
(251,344,o),
(251,351,cs),
(251,617,ls),
(251,979,o),
(500,1235,o),
(829,1235,cs),
(1271,1235,o),
(1629,873,o),
(1629,421,cs),
(1629,-25,o),
(1275,-384,o),
(839,-384,cs),
(417,-384,o),
(146,-142,o),
(-236,-142,cs),
(-407,-142,o),
(-561,-206,o),
(-664,-318,c)
);
}
);
width = 644;
}
);
},
{
color = (153, 255, 154, 255);
glyphname = h.44;
layers = (
{
layerId = "CA214F42-74A2-49D4-A9E4-C2081DD5CDFC";
shapes = (
{
closed = 1;
nodes = (
(-2053,454,l),
(-1916,735,o),
(-1629,931,o),
(-1300,931,cs),
(-371,931,o),
(-140,-388,o),
(810,-388,cs),
(1250,-388,o),
(1604,-29,o),
(1604,421,cs),
(1604,878,o),
(1245,1243,o),
(797,1243,cs),
(401,1243,o),
(70,923,o),
(70,517,cs),
(70,0,l),
(137,0,l),
(137,289,ls),
(137,394,o),
(199,474,o),
(289,474,cs),
(356,474,o),
(387,426,o),
(387,349,cs),
(387,101,ls),
(387,26,o),
(419,-9,o),
(472,-9,cs),
(514,-9,o),
(535,12,o),
(546,35,c),
(543,39,l),
(534,18,o),
(521,11,o),
(504,11,cs),
(467,11,o),
(457,46,o),
(457,102,cs),
(457,334,ls),
(457,435,o),
(426,504,o),
(327,504,cs),
(240,504,o),
(171,451,o),
(138,355,cs),
(132,336,o),
(137,396,o),
(137,425,cs),
(137,617,ls),
(137,979,o),
(468,1235,o),
(800,1235,cs),
(1242,1235,o),
(1600,873,o),
(1600,421,cs),
(1600,-25,o),
(1246,-384,o),
(810,-384,cs),
(-141,-384,o),
(-358,935,o),
(-1300,935,cs),
(-1631,935,o),
(-1921,738,o),
(-2059,456,c)
);
}
);
width = 537;
},
{
layerId = "50E4EC5D-70F1-40A1-976B-CDBCAECFE4D4";
shapes = (
{
closed = 1;
nodes = (
(-2037,453,l),
(-1900,734,o),
(-1613,930,o),
(-1284,930,cs),
(-355,930,o),
(-124,-389,o),
(826,-389,cs),
(1284,-389,o),
(1633,-19,o),
(1633,421,cs),
(1633,878,o),
(1274,1243,o),
(826,1243,cs),
(364,1243,o),
(74,933,o),
(65,536,c),
(65,0,l),
(262,0,l),
(262,288,ls),
(262,384,o),
(298,453,o),
(345,453,cs),
(377,453,o),
(382,424,o),
(382,345,cs),
(382,184,ls),
(382,47,o),
(430,-9,o),
(525,-9,cs),
(585,-9,o),
(614,13,o),
(626,45,c),
(622,47,l),
(617,30,o),
(608,25,o),
(601,25,cs),
(587,25,o),
(584,53,o),
(584,99,cs),
(584,295,ls),
(584,420,o),
(554,500,o),
(427,500,cs),
(295,500,o),
(267,379,o),
(259,351,cs),
(255,339,o),
(251,344,o),
(251,351,cs),
(251,619,ls),
(251,981,o),
(500,1235,o),
(829,1235,cs),
(1271,1235,o),
(1629,873,o),
(1629,421,cs),
(1629,-36,o),
(1267,-385,o),
(826,-385,cs),
(-125,-385,o),
(-342,934,o),
(-1284,934,cs),
(-1615,934,o),
(-1905,737,o),
(-2043,455,c)
);
}
);
width = 644;
}
);
},
{
color = (153, 255, 154, 255);
glyphname = h.6.more.acc;
layers = (
{
layerId = "CA214F42-74A2-49D4-A9E4-C2081DD5CDFC";
shapes = (
{
closed = 1;
nodes = (
(-659,-320,l),
(-556,-209,o),
(-405,-144,o),
(-236,-144,cs),
(143,-144,o),
(380,-416,o),
(810,-416,cs),
(1250,-416,o),
(1604,-29,o),
(1604,421,cs),
(1604,878,o),
(1245,1243,o),
(797,1243,cs),
(401,1243,o),
(70,923,o),
(70,517,cs),
(70,0,l),
(137,0,l),
(137,289,ls),
(137,394,o),
(199,474,o),
(289,474,cs),
(356,474,o),
(387,426,o),
(387,349,cs),
(387,101,ls),
(387,26,o),
(419,-9,o),
(472,-9,cs),
(514,-9,o),
(535,12,o),
(546,35,c),
(543,39,l),
(534,18,o),
(521,11,o),
(504,11,cs),
(467,11,o),
(457,46,o),
(457,102,cs),
(457,334,ls),
(457,435,o),
(426,504,o),
(327,504,cs),
(240,504,o),
(171,451,o),
(138,355,cs),
(130,332,o),
(137,393,o),
(137,422,cs),
(137,617,ls),
(137,979,o),
(468,1235,o),
(800,1235,cs),
(1242,1235,o),
(1600,873,o),
(1600,421,cs),
(1600,-24,o),
(1246,-346,o),
(810,-346,cs),
(388,-346,o),
(146,-140,o),
(-236,-140,cs),
(-407,-140,o),
(-561,-205,o),
(-664,-318,c)
);
}
);
width = 537;
},
{
layerId = "50E4EC5D-70F1-40A1-976B-CDBCAECFE4D4";
shapes = (
{
closed = 1;
nodes = (
(-659,-320,l),
(-556,-209,o),
(-405,-144,o),
(-236,-144,cs),
(143,-144,o),
(409,-466,o),
(839,-466,cs),
(1277,-466,o),
(1633,-28,o),
(1633,421,cs),
(1633,878,o),
(1274,1243,o),
(826,1243,cs),
(357,1243,o),
(65,923,o),
(65,517,cs),
(65,0,l),
(262,0,l),
(262,288,ls),
(262,384,o),
(298,453,o),
(345,453,cs),
(377,453,o),
(382,424,o),
(382,345,cs),
(382,184,ls),
(382,47,o),
(430,-9,o),
(525,-9,cs),
(585,-9,o),
(614,13,o),
(626,45,c),
(622,47,l),
(617,30,o),
(608,25,o),
(601,25,cs),
(587,25,o),
(584,53,o),
(584,99,cs),
(584,295,l),
(585,420,o),
(554,500,o),
(427,500,cs),
(295,500,o),
(267,379,o),
(259,351,cs),
(255,339,o),
(251,344,o),
(251,351,cs),
(251,617,ls),
(251,979,o),
(500,1235,o),
(829,1235,cs),
(1271,1235,o),
(1629,873,o),
(1629,421,cs),
(1629,-24,o),
(1275,-306,o),
(839,-306,cs),
(417,-306,o),
(146,-140,o),
(-236,-140,cs),
(-407,-140,o),
(-561,-205,o),
(-664,-318,c)
);
}
);
width = 644;
}
);
},
{
color = (153, 255, 154, 255);
glyphname = h.44.acc;
layers = (
{
layerId = "CA214F42-74A2-49D4-A9E4-C2081DD5CDFC";
shapes = (
{
closed = 1;
nodes = (
(-2061,454,l),
(-1924,735,o),
(-1637,931,o),
(-1308,931,cs),
(-823,931,o),
(-519,571,o),
(-209,222,cs),
(80,-104,o),
(372,-418,o),
(802,-418,cs),
(1242,-418,o),
(1596,-29,o),
(1596,421,cs),
(1596,878,o),
(1237,1243,o),
(789,1243,cs),
(393,1243,o),
(62,923,o),
(62,517,cs),
(62,0,l),
(129,0,l),
(129,289,ls),
(129,394,o),
(191,474,o),
(281,474,cs),
(348,474,o),
(379,426,o),
(379,349,cs),
(379,101,ls),
(379,26,o),
(411,-9,o),
(464,-9,cs),
(506,-9,o),
(527,12,o),
(538,35,c),
(535,39,l),
(526,18,o),
(513,11,o),
(496,11,cs),
(459,11,o),
(449,46,o),
(449,102,cs),
(449,334,ls),
(449,435,o),
(418,504,o),
(319,504,cs),
(232,504,o),
(166,450,o),
(130,355,cs),
(124,338,o),
(129,393,o),
(129,422,cs),
(129,617,ls),
(129,979,o),
(460,1235,o),
(792,1235,cs),
(1234,1235,o),
(1592,873,o),
(1592,421,cs),
(1592,-24,o),
(1238,-348,o),
(802,-348,cs),
(349,-348,o),
(65,-70,o),
(-204,227,cs),
(-514,568,o),
(-804,935,o),
(-1308,935,cs),
(-1639,935,o),
(-1929,738,o),
(-2067,456,c)
);
}
);
width = 529;
},
{
layerId = "50E4EC5D-70F1-40A1-976B-CDBCAECFE4D4";
shapes = (
{
closed = 1;
nodes = (
(-2037,453,l),
(-1900,734,o),
(-1613,930,o),
(-1284,930,cs),
(-857,930,o),
(-562,644,o),
(-299,314,cs),
(26,-94,o),
(344,-488,o),
(826,-488,cs),
(1284,-488,o),
(1633,-19,o),
(1633,421,cs),
(1633,878,o),
(1274,1243,o),
(826,1243,cs),
(364,1243,o),
(74,933,o),
(65,536,c),
(65,0,l),
(262,0,l),
(262,288,ls),
(262,384,o),
(298,453,o),
(345,453,cs),
(377,453,o),
(382,424,o),
(382,345,cs),
(382,184,ls),
(382,47,o),
(430,-9,o),
(525,-9,cs),
(585,-9,o),
(614,13,o),
(626,45,c),
(622,47,l),
(617,30,o),
(608,25,o),
(601,25,cs),
(587,25,o),
(584,53,o),
(584,99,cs),
(584,295,ls),
(584,420,o),
(554,500,o),
(427,500,cs),
(295,500,o),
(267,379,o),
(259,351,cs),
(255,339,o),
(251,344,o),
(251,351,cs),
(251,619,ls),
(251,981,o),
(500,1235,o),
(829,1235,cs),
(1271,1235,o),
(1629,873,o),
(1629,421,cs),
(1629,-35,o),
(1267,-328,o),
(826,-328,cs),
(294,-328,o),
(9,-57,o),
(-295,318,cs),
(-557,641,o),
(-846,934,o),
(-1284,934,cs),
(-1615,934,o),
(-1905,737,o),
(-2043,455,c)
);
}
);
width = 644;
}
);
},
{
color = (153, 255, 154, 255);
glyphname = h.9;
layers = (
{
layerId = "CA214F42-74A2-49D4-A9E4-C2081DD5CDFC";
leftMetricsKey = l;
rightMetricsKey = n;
shapes = (
{
closed = 1;
nodes = (
(65,0,l),
(132,0,l),
(132,289,ls),
(132,394,o),
(194,474,o),
(284,474,cs),
(351,474,o),
(382,426,o),
(382,349,cs),
(382,187,ls),
(382,10,o),
(476,-125,o),
(668,-125,cs),
(857,-125,o),
(954,5,o),
(954,139,cs),
(954,193,o),
(924,242,o),
(871,242,cs),
(833,242,o),
(807,216,o),
(807,185,cs),
(807,155,o),
(831,128,o),
(868,128,cs),
(897,128,o),
(921,145,o),
(930,166,c),
(935,150,o),
(937,136,o),
(937,118,cs),
(937,-12,o),
(838,-115,o),
(696,-115,cs),
(573,-115,o),
(452,-39,o),
(452,187,cs),
(452,334,ls),
(452,435,o),
(421,504,o),
(322,504,cs),
(235,504,o),
(165,451,o),
(133,355,cs),
(128,339,o),
(132,393,o),
(132,422,cs),
(132,721,l),
(-12,687,l),
(-12,684,l),
(44,684,o),
(65,686,o),
(65,634,cs)
);
}
);
width = 946;
},
{
layerId = "50E4EC5D-70F1-40A1-976B-CDBCAECFE4D4";
shapes = (
{
closed = 1;
nodes = (
(65,0,l),
(262,0,l),
(262,288,ls),
(262,384,o),
(298,453,o),
(345,453,cs),
(374,453,o),
(386,424,o),
(386,345,cs),
(386,180,ls),
(386,-23,o),
(527,-150,o),
(728,-150,cs),
(933,-150,o),
(1050,-12,o),
(1050,126,cs),
(1050,218,o),
(998,303,o),
(908,303,cs),
(843,303,o),
(799,258,o),
(799,205,cs),
(799,154,o),
(840,107,o),
(903,107,cs),
(952,107,o),
(993,136,o),
(1009,173,c),
(1017,146,o),
(1021,122,o),
(1021,96,cs),
(1021,-29,o),
(927,-119,o),
(800,-119,cs),
(688,-119,o),
(584,-54,o),
(584,162,cs),
(584,295,l),
(585,420,o),
(554,500,o),
(427,500,cs),
(295,500,o),
(267,379,o),
(259,351,cs),
(255,339,o),
(251,344,o),
(251,351,cs),
(251,721,l),
(-12,689,l),
(-12,682,l),
(44,682,o),
(65,686,o),
(65,634,cs)
);
}
);
width = 1089;
}
);
},
{
color = (255, 153, 153, 255);
glyphname = i;
layers = (
{
anchors = (
{
name = top;
position = "{108, 577}";
}
);
background = {
shapes = (
{
closed = 0;
nodes = (
(152,-9,ls),
(188,-9,o),
(221,5,o),
(233,30,c),
(229,36,l),
(220,22,o),
(208,15,o),
(190,15,cs)
);
}
);
};
hints = (
{
horizontal = 1;
place = (-6,38);
type = Stem;
},
{
horizontal = 1;
place = (580,174);
type = Stem;
},
{
place = (75,197);
type = Stem;
},
{
place = (75,250);
type = Stem;
},
{
place = (87,185);
type = Stem;
}
);
layerId = "CA214F42-74A2-49D4-A9E4-C2081DD5CDFC";
leftMetricsKey = n;
rightMetricsKey = a;
shapes = (
{
closed = 1;
nodes = (
(231,33,l),
(221,19,o),
(208,12,o),
(190,12,cs),
(147,12,o),
(145,49,o),
(145,168,cs),
(145,504,l),
(104,491,o),
(56,481,o),
(0,481,c),
(0,477,l),
(56,477,o),
(77,472,o),
(77,420,cs),
(77,113,ls),
(77,29,o),
(98,-9,o),
(155,-9,cs),
(194,-9,o),
(223,9,o),
(233,30,c)
);
},
{
closed = 1;
nodes = (
(45,612,o),
(71,589,o),
(104,589,cs),
(137,589,o),
(163,612,o),
(163,642,cs),
(163,672,o),
(137,695,o),
(104,695,cs),
(71,695,o),
(45,672,o),
(45,642,cs)
);
}
);
width = 229;
},
{
anchors = (
{
name = top;
position = "{157, 577}";
}
);
hints = (
{
horizontal = 1;
place = (-6,38);
type = Stem;
},
{
horizontal = 1;
place = (580,174);
type = Stem;
},
{
place = (65,197);
type = Stem;
},
{
place = (65,250);
type = Stem;
},
{
place = (77,185);
type = Stem;
}
);
layerId = "50E4EC5D-70F1-40A1-976B-CDBCAECFE4D4";
shapes = (
{
closed = 1;
nodes = (
(314,37,l),
(311,32,o),
(301,24,o),
(289,24,cs),
(259,24,o),
(256,72,o),
(256,185,cs),
(256,503,l),
(181,488,o),
(89,481,o),
(-14,481,c),
(-14,477,l),
(42,477,o),
(63,472,o),
(63,420,cs),
(63,157,ls),
(63,43,o),
(104,-6,o),
(197,-6,cs),
(253,-6,o),
(301,12,o),
(317,33,c)
);
},
{
closed = 1;
nodes = (
(51,587,o),
(99,544,o),
(161,544,cs),
(223,544,o),
(271,587,o),
(271,642,cs),
(271,697,o),
(223,740,o),
(161,740,cs),
(99,740,o),
(51,697,o),
(51,642,cs)
);
}
);
width = 323;
}
);
unicode = 105;
},
{
color = (153, 255, 154, 255);
glyphname = i.1;
layers = (
{
layerId = "CA214F42-74A2-49D4-A9E4-C2081DD5CDFC";
leftMetricsKey = n;
rightMetricsKey = a;
shapes = (
{
closed = 1;
nodes = (
(77,113,ls),
(77,29,o),
(98,-9,o),
(155,-9,cs),
(194,-9,o),
(223,9,o),
(233,30,c),
(231,33,l),
(221,19,o),
(208,12,o),
(190,12,cs),
(147,12,o),
(145,49,o),
(145,168,cs),
(145,509,ls),
(145,559,o),
(165,609,o),
(142,662,cs),
(133,682,o),
(112,695,o),
(87,695,cs),
(54,695,o),
(28,672,o),
(28,642,cs),
(28,612,o),
(54,589,o),
(87,589,cs),
(120,589,o),
(142,609,o),
(145,637,c),
(163,572,o),
(120,482,o),
(0,482,c),
(0,477,l),
(56,477,o),
(77,472,o),
(77,420,cs)
);
}
);
width = 229;
},
{
layerId = "50E4EC5D-70F1-40A1-976B-CDBCAECFE4D4";
shapes = (
{
closed = 1;
nodes = (
(66,157,ls),
(66,43,o),
(107,-6,o),
(200,-6,cs),
(256,-6,o),
(302,12,o),
(318,33,c),
(312,40,l),
(309,35,o),
(299,27,o),
(287,27,cs),
(257,27,o),
(257,72,o),
(257,185,cs),
(257,495,ls),
(257,541,o),
(274,593,o),
(274,642,cs),
(274,696,o),
(225,740,o),
(164,740,cs),
(102,740,o),
(54,697,o),
(54,642,cs),
(54,587,o),
(102,544,o),
(164,544,cs),
(207,544,o),
(243,564,o),
(261,594,c),
(251,467,o),
(66,481,o),
(-11,481,c),
(-11,473,l),
(45,473,o),
(66,478,o),
(66,426,cs)
);
}
);
width = 319;
}
);
},
{
color = (153, 255, 154, 255);
glyphname = i.7;
layers = (
{
layerId = "CA214F42-74A2-49D4-A9E4-C2081DD5CDFC";
shapes = (
{
closed = 1;
nodes = (
(145,459,l),
(196,424,o),
(261,402,o),
(328,401,cs),
(506,401,o),
(604,543,o),
(604,682,cs),
(604,816,o),
(516,946,o),
(326,946,cs),
(-193,946,o),
(-580,-237,o),
(-1298,-237,cs),
(-1691,-237,o),
(-1910,57,o),
(-1910,372,cs),
(-1910,684,o),
(-1696,1005,o),
(-1269,1005,cs),
(-1141,1005,o),
(-1049,974,o),
(-984,934,c),
(-981,940,l),
(-1047,980,o),
(-1140,1009,o),
(-1269,1009,cs),
(-1699,1009,o),
(-1914,685,o),
(-1914,372,cs),
(-1914,54,o),
(-1694,-241,o),
(-1298,-241,cs),
(-574,-241,o),
(-190,942,o),
(326,942,cs),
(513,942,o),
(600,813,o),
(600,682,cs),
(600,544,o),
(503,405,o),
(328,405,cs),
(261,406,o),
(196,426,o),
(145,467,c),
(145,504,l),
(136,501,o),
(126,498,o),
(116,496,c),
(91,524,o),
(72,559,o),
(62,601,c),
(72,592,o),
(85,589,o),
(99,589,cs),
(132,589,o),
(158,612,o),
(158,642,cs),
(158,672,o),
(132,695,o),
(99,695,cs),
(60,695,o),
(39,665,o),
(39,629,cs),
(39,579,o),
(64,531,o),
(103,493,c),
(72,486,o),
(38,481,o),
(0,481,c),
(0,477,l),
(56,477,o),
(77,472,o),
(77,420,cs),
(77,113,ls),
(77,29,o),
(98,-9,o),
(155,-9,cs),
(194,-9,o),
(223,9,o),
(233,30,c),
(231,33,l),
(221,19,o),
(208,12,o),
(190,12,cs),
(147,12,o),
(145,49,o),
(145,168,cs)
);
}
);
width = 225;
},
{
layerId = "50E4EC5D-70F1-40A1-976B-CDBCAECFE4D4";
shapes = (
{
closed = 1;
nodes = (
(256,408,l),
(279,404,o),
(303,401,o),
(328,401,cs),
(506,401,o),
(604,543,o),
(604,682,cs),
(604,816,o),
(516,946,o),
(326,946,cs),
(-193,946,o),
(-580,-237,o),
(-1298,-237,cs),
(-1691,-237,o),
(-1910,57,o),
(-1910,372,cs),
(-1910,684,o),
(-1696,1005,o),
(-1269,1005,cs),
(-1141,1005,o),
(-1049,974,o),
(-984,934,c),
(-981,940,l),
(-1047,980,o),
(-1140,1009,o),
(-1269,1009,cs),
(-1699,1009,o),
(-1914,685,o),
(-1914,372,cs),
(-1914,54,o),
(-1694,-241,o),
(-1298,-241,cs),
(-574,-241,o),
(-190,942,o),
(326,942,cs),
(513,942,o),
(600,813,o),
(600,682,cs),
(600,544,o),
(503,405,o),
(328,405,cs),
(305,405,o),
(280,409,o),
(256,416,c),
(256,500,l),
(218,493,o),
(177,489,o),
(131,486,c),
(101,515,o),
(78,551,o),
(72,593,c),
(90,568,o),
(128,546,o),
(166,546,cs),
(226,546,o),
(272,592,o),
(272,644,cs),
(272,699,o),
(230,740,o),
(166,740,cs),
(84,740,o),
(45,678,o),
(45,611,cs),
(45,561,o),
(65,518,o),
(98,484,c),
(63,482,o),
(25,481,o),
(-14,481,c),
(-14,473,l),
(42,473,o),
(63,468,o),
(63,416,cs),
(63,157,ls),
(63,43,o),
(104,-6,o),
(197,-6,cs),
(253,-6,o),
(301,12,o),
(317,33,c),
(311,40,l),
(308,35,o),
(298,27,o),
(286,27,cs),
(256,27,o),
(256,72,o),
(256,185,cs)
);
}
);
width = 319;
}
);
},
{
color = (153, 255, 154, 255);
glyphname = i.7.acc;
layers = (
{
layerId = "CA214F42-74A2-49D4-A9E4-C2081DD5CDFC";
shapes = (
{
closed = 1;
nodes = (
(145,459,l),
(196,424,o),
(261,402,o),
(328,401,cs),
(507,401,o),
(606,543,o),
(606,682,cs),
(606,832,o),
(517,978,o),
(326,978,cs),
(-201,978,o),
(-582,-211,o),
(-1298,-211,cs),
(-1691,-211,o),
(-1910,79,o),
(-1910,372,cs),
(-1910,685,o),
(-1696,1007,o),
(-1269,1007,cs),
(-1141,1007,o),
(-1049,976,o),
(-984,936,c),
(-981,940,l),
(-1047,981,o),
(-1140,1011,o),
(-1269,1011,cs),
(-1699,1011,o),
(-1914,686,o),
(-1914,372,cs),
(-1914,33,o),
(-1694,-281,o),
(-1298,-281,cs),
(-574,-281,o),
(-281,942,o),
(326,942,cs),
(514,942,o),
(602,813,o),
(602,682,cs),
(602,544,o),
(504,405,o),
(328,405,cs),
(261,406,o),
(196,426,o),
(145,467,c),
(145,504,l),
(136,501,o),
(126,498,o),
(116,496,c),
(91,524,o),
(72,559,o),
(62,601,c),
(72,592,o),
(85,589,o),
(99,589,cs),
(132,589,o),
(158,612,o),
(158,642,cs),
(158,672,o),
(132,695,o),
(99,695,cs),
(60,695,o),
(39,665,o),
(39,629,cs),
(39,579,o),
(64,531,o),
(103,493,c),
(72,486,o),
(38,481,o),
(0,481,c),
(0,477,l),
(56,477,o),
(77,472,o),
(77,420,cs),
(77,113,ls),
(77,29,o),
(98,-9,o),
(155,-9,cs),
(194,-9,o),
(223,9,o),
(233,30,c),
(231,33,l),
(221,19,o),
(208,12,o),
(190,12,cs),
(147,12,o),
(145,49,o),
(145,168,cs)
);
}
);
width = 225;
},
{
layerId = "50E4EC5D-70F1-40A1-976B-CDBCAECFE4D4";
shapes = (
{
closed = 1;
nodes = (
(256,408,l),
(279,404,o),
(303,401,o),
(328,401,cs),
(507,401,o),
(601,542,o),
(611,681,cs),
(623,849,o),
(496,988,o),
(299,988,cs),
(-164,988,o),
(-586,-160,o),
(-1298,-160,cs),
(-1691,-160,o),
(-1910,103,o),
(-1910,372,cs),
(-1910,685,o),
(-1696,1007,o),
(-1269,1007,cs),
(-1141,1007,o),
(-1049,976,o),
(-984,936,c),
(-981,940,l),
(-1047,981,o),
(-1140,1011,o),
(-1269,1011,cs),
(-1699,1011,o),
(-1914,686,o),
(-1914,372,cs),
(-1914,24,o),
(-1694,-291,o),
(-1298,-291,cs),
(-625,-291,o),
(-265,942,o),
(309,942,cs),
(497,942,o),
(602,813,o),
(602,682,cs),
(602,544,o),
(504,405,o),
(328,405,cs),
(305,405,o),
(280,409,o),
(256,416,c),
(256,500,l),
(218,493,o),
(177,489,o),
(131,486,c),
(101,515,o),
(78,551,o),
(72,593,c),
(90,568,o),
(128,546,o),
(166,546,cs),
(226,546,o),
(272,592,o),
(272,644,cs),
(272,699,o),
(230,740,o),
(166,740,cs),
(84,740,o),
(45,678,o),
(45,611,cs),
(45,561,o),
(65,518,o),
(98,484,c),
(63,482,o),
(25,481,o),
(-14,481,c),
(-14,473,l),
(42,473,o),
(63,468,o),
(63,416,cs),
(63,157,ls),
(63,43,o),
(104,-6,o),
(197,-6,cs),
(253,-6,o),
(301,12,o),
(317,33,c),
(311,40,l),
(308,35,o),
(298,27,o),
(286,27,cs),
(256,27,o),
(256,72,o),
(256,185,cs)
);
}
);
width = 319;
}
);
},
{
color = (153, 255, 154, 255);
glyphname = i.9;
layers = (
{
layerId = "CA214F42-74A2-49D4-A9E4-C2081DD5CDFC";
shapes = (
{
closed = 1;
nodes = (
(76,187,ls),
(76,10,o),
(170,-125,o),
(362,-125,cs),
(551,-125,o),
(648,5,o),
(648,139,cs),
(648,193,o),
(618,242,o),
(565,242,cs),
(527,242,o),
(501,216,o),
(501,185,cs),
(501,155,o),
(525,128,o),
(562,128,cs),
(591,128,o),
(615,145,o),
(624,166,c),
(629,150,o),
(631,136,o),
(631,118,cs),
(631,-12,o),
(532,-115,o),
(390,-115,cs),
(267,-115,o),
(146,-39,o),
(146,187,cs),
(144,500,l),
(103,487,o),
(55,477,o),
(-1,477,c),
(-1,473,l),
(55,473,o),
(76,468,o),
(76,416,cs)
);
},
{
closed = 1;
nodes = (
(45,612,o),
(71,589,o),
(104,589,cs),
(137,589,o),
(163,612,o),
(163,642,cs),
(163,672,o),
(137,695,o),
(104,695,cs),
(71,695,o),
(45,672,o),
(45,642,cs)
);
}
);
width = 675;
},
{
layerId = "50E4EC5D-70F1-40A1-976B-CDBCAECFE4D4";
shapes = (
{
closed = 1;
nodes = (
(63,178,ls),
(63,-25,o),
(202,-152,o),
(400,-152,cs),
(605,-152,o),
(722,-14,o),
(722,124,cs),
(722,216,o),
(670,301,o),
(580,301,cs),
(515,301,o),
(471,256,o),
(471,203,cs),
(471,152,o),
(512,105,o),
(575,105,cs),
(624,105,o),
(665,134,o),
(681,171,c),
(689,144,o),
(693,120,o),
(693,94,cs),
(693,-31,o),
(599,-121,o),
(472,-121,cs),
(360,-121,o),
(256,-56,o),
(256,160,cs),
(256,500,l),
(181,487,o),
(90,481,o),
(-14,481,c),
(-14,473,l),
(42,473,o),
(63,468,o),
(63,416,cs)
);
},
{
closed = 1;
nodes = (
(51,587,o),
(99,544,o),
(161,544,cs),
(223,544,o),
(271,587,o),
(271,642,cs),
(271,697,o),
(223,740,o),
(161,740,cs),
(99,740,o),
(51,697,o),
(51,642,cs)
);
}
);
width = 761;
}
);
},
{
color = (255, 153, 153, 255);
glyphname = j;
layers = (
{
hints = (
{
horizontal = 1;
place = (-321,199);
type = Stem;
},
{
horizontal = 1;
place = (-220,98);
type = Stem;
},
{
horizontal = 1;
place = (580,174);
type = Stem;
},
{
place = (79,197);
type = Stem;
},
{
place = (91,185);
type = Stem;
},
{
place = (197,79);
type = Stem;
}
);
layerId = "CA214F42-74A2-49D4-A9E4-C2081DD5CDFC";
shapes = (
{
closed = 1;
nodes = (
(2,477,l),
(58,477,o),
(79,472,o),
(79,420,cs),
(79,-170,ls),
(79,-257,o),
(43,-284,o),
(-2,-284,cs),
(-26,-284,o),
(-42,-273,o),
(-45,-257,c),
(-25,-248,o),
(-10,-226,o),
(-10,-202,cs),
(-10,-178,o),
(-25,-153,o),
(-57,-153,cs),
(-88,-153,o),
(-105,-176,o),
(-105,-208,cs),
(-105,-258,o),
(-64,-288,o),
(1,-288,cs),
(122,-288,o),
(147,-196,o),
(147,-95,cs),
(147,504,l),
(106,491,o),
(58,481,o),
(2,481,c)
);
},
{
closed = 1;
nodes = (
(47,612,o),
(73,589,o),
(106,589,cs),
(139,589,o),
(165,612,o),
(165,642,cs),
(165,672,o),
(139,695,o),
(106,695,cs),
(73,695,o),
(47,672,o),
(47,642,cs)
);
}
);
width = 225;
},
{
hints = (
{
horizontal = 1;
place = (-321,199);
type = Stem;
},
{
horizontal = 1;
place = (-220,98);
type = Stem;
},
{
horizontal = 1;
place = (580,174);
type = Stem;
},
{
place = (79,197);
type = Stem;
},
{
place = (91,185);
type = Stem;
},
{
place = (197,79);
type = Stem;
}
);
layerId = "50E4EC5D-70F1-40A1-976B-CDBCAECFE4D4";
shapes = (
{
closed = 1;
nodes = (
(-14,477,l),
(42,477,o),
(63,468,o),
(63,416,cs),
(63,-176,ls),
(63,-224,o),
(46,-283,o),
(-7,-283,cs),
(-30,-283,o),
(-41,-270,o),
(-44,-262,c),
(-11,-247,o),
(5,-211,o),
(5,-177,cs),
(5,-133,o),
(-21,-91,o),
(-74,-91,cs),
(-123,-91,o),
(-151,-128,o),
(-151,-177,cs),
(-151,-235,o),
(-113,-290,o),
(19,-290,cs),
(196,-290,o),
(260,-192,o),
(260,-58,cs),
(260,500,l),
(185,487,o),
(90,481,o),
(-14,481,c)
);
},
{
closed = 1;
nodes = (
(51,587,o),
(99,544,o),
(161,544,cs),
(223,544,o),
(271,587,o),
(271,642,cs),
(271,697,o),
(223,740,o),
(161,740,cs),
(99,740,o),
(51,697,o),
(51,642,cs)
);
}
);
width = 316;
}
);
unicode = 106;
},
{
color = (153, 255, 154, 255);
glyphname = j.4;
layers = (
{
layerId = "CA214F42-74A2-49D4-A9E4-C2081DD5CDFC";
shapes = (
{
closed = 1;
nodes = (
(0,477,l),
(56,477,o),
(77,472,o),
(77,420,cs),
(77,138,ls),
(77,-232,o),
(-186,-399,o),
(-462,-399,cs),
(-796,-399,o),
(-1068,-127,o),
(-1068,207,cs),
(-1068,542,o),
(-796,813,o),
(-462,813,cs),
(-306,813,o),
(-163,754,o),
(-55,655,c),
(-52,659,l),
(-160,757,o),
(-304,817,o),
(-462,817,cs),
(-799,817,o),
(-1072,544,o),
(-1072,207,cs),
(-1072,-136,o),
(-795,-413,o),
(-452,-413,cs),
(-134,-413,o),
(145,-192,o),
(145,173,cs),
(145,504,l),
(104,491,o),
(56,481,o),
(0,481,c)
);
},
{
closed = 1;
nodes = (
(45,612,o),
(71,589,o),
(104,589,cs),
(137,589,o),
(163,612,o),
(163,642,cs),
(163,672,o),
(137,695,o),
(104,695,cs),
(71,695,o),
(45,672,o),
(45,642,cs)
);
}
);
width = 225;
},
{
layerId = "50E4EC5D-70F1-40A1-976B-CDBCAECFE4D4";
shapes = (
{
closed = 1;
nodes = (
(-10,477,l),
(46,477,o),
(67,472,o),
(67,420,cs),
(67,138,ls),
(67,-232,o),
(-180,-399,o),
(-451,-399,cs),
(-785,-399,o),
(-1057,-127,o),
(-1057,207,cs),
(-1057,542,o),
(-785,813,o),
(-451,813,cs),
(-295,813,o),
(-152,754,o),
(-44,655,c),
(-41,659,l),
(-149,757,o),
(-293,817,o),
(-451,817,cs),
(-788,817,o),
(-1061,544,o),
(-1061,207,cs),
(-1061,-136,o),
(-784,-413,o),
(-441,-413,cs),
(-58,-413,o),
(264,-192,o),
(264,173,cs),
(264,504,l),
(189,491,o),
(94,481,o),
(-10,481,c)
);
},
{
closed = 1;
nodes = (
(55,587,o),
(103,544,o),
(165,544,cs),
(227,544,o),
(275,587,o),
(275,642,cs),
(275,697,o),
(227,740,o),
(165,740,cs),
(103,740,o),
(55,697,o),
(55,642,cs)
);
}
);
width = 317;
}
);
},
{
color = (153, 255, 154, 255);
glyphname = j.7;
layers = (
{
layerId = "CA214F42-74A2-49D4-A9E4-C2081DD5CDFC";
shapes = (
{
closed = 1;
nodes = (
(-977,940,l),
(-1043,981,o),
(-1136,1011,o),
(-1265,1011,cs),
(-1695,1011,o),
(-1910,686,o),
(-1910,372,cs),
(-1910,54,o),
(-1690,-241,o),
(-1294,-241,cs),
(-570,-241,o),
(-184,944,o),
(330,944,cs),
(518,944,o),
(606,814,o),
(606,682,cs),
(606,544,o),
(508,405,o),
(332,405,cs),
(265,406,o),
(198,427,o),
(147,469,c),
(147,504,l),
(138,501,o),
(129,499,o),
(119,496,c),
(95,524,o),
(76,559,o),
(66,601,c),
(76,592,o),
(89,589,o),
(103,589,cs),
(136,589,o),
(162,612,o),
(162,642,cs),
(162,672,o),
(136,695,o),
(103,695,cs),
(64,695,o),
(43,665,o),
(43,629,cs),
(43,579,o),
(67,532,o),
(107,493,c),
(75,486,o),
(41,481,o),
(2,481,c),
(2,477,l),
(58,477,o),
(79,472,o),
(79,420,cs),
(79,-170,ls),
(79,-257,o),
(43,-284,o),
(-2,-284,cs),
(-26,-284,o),
(-42,-273,o),
(-45,-257,c),
(-25,-248,o),
(-10,-226,o),
(-10,-202,cs),
(-10,-178,o),
(-25,-153,o),
(-57,-153,cs),
(-88,-153,o),
(-105,-176,o),
(-105,-208,cs),
(-105,-258,o),
(-64,-288,o),
(1,-288,cs),
(122,-288,o),
(147,-196,o),
(147,-95,cs),
(147,460,l),
(199,424,o),
(264,402,o),
(332,401,cs),
(511,401,o),
(610,543,o),
(610,682,cs),
(610,817,o),
(521,948,o),
(330,948,cs),
(-189,948,o),
(-578,-237,o),
(-1294,-237,cs),
(-1687,-237,o),
(-1906,57,o),
(-1906,372,cs),
(-1906,685,o),
(-1692,1007,o),
(-1265,1007,cs),
(-1137,1007,o),
(-1044,976,o),
(-979,936,c)
);
}
);
width = 225;
},
{
layerId = "50E4EC5D-70F1-40A1-976B-CDBCAECFE4D4";
shapes = (
{
closed = 1;
nodes = (
(-981,940,l),
(-1047,981,o),
(-1140,1011,o),
(-1269,1011,cs),
(-1699,1011,o),
(-1914,686,o),
(-1914,372,cs),
(-1914,54,o),
(-1694,-241,o),
(-1298,-241,cs),
(-574,-241,o),
(-188,944,o),
(326,944,cs),
(514,944,o),
(602,814,o),
(602,682,cs),
(602,544,o),
(504,405,o),
(328,405,cs),
(306,405,o),
(283,409,o),
(260,415,c),
(260,500,l),
(222,493,o),
(179,489,o),
(132,485,c),
(101,515,o),
(78,551,o),
(72,593,c),
(90,568,o),
(128,546,o),
(166,546,cs),
(226,546,o),
(272,592,o),
(272,644,cs),
(272,699,o),
(230,740,o),
(166,740,cs),
(84,740,o),
(45,678,o),
(45,611,cs),
(45,561,o),
(65,518,o),
(98,484,c),
(62,482,o),
(25,481,o),
(-14,481,c),
(-14,473,l),
(42,473,o),
(63,468,o),
(63,416,cs),
(63,-176,ls),
(63,-223,o),
(46,-280,o),
(-7,-280,cs),
(-30,-280,o),
(-41,-269,o),
(-44,-262,c),
(-11,-247,o),
(5,-211,o),
(5,-177,cs),
(5,-133,o),
(-21,-91,o),
(-74,-91,cs),
(-123,-91,o),
(-151,-128,o),
(-151,-177,cs),
(-151,-235,o),
(-113,-290,o),
(19,-290,cs),
(196,-290,o),
(260,-192,o),
(260,-58,cs),
(260,407,l),
(282,403,o),
(304,401,o),
(328,401,cs),
(507,401,o),
(606,543,o),
(606,682,cs),
(606,817,o),
(517,948,o),
(326,948,cs),
(-193,948,o),
(-582,-237,o),
(-1298,-237,cs),
(-1691,-237,o),
(-1910,57,o),
(-1910,372,cs),
(-1910,685,o),
(-1696,1007,o),
(-1269,1007,cs),
(-1141,1007,o),
(-1048,976,o),
(-983,936,c)
);
}
);
width = 316;
}
);
},
{
color = (153, 255, 154, 255);
glyphname = j.7.acc;
layers = (
{
layerId = "CA214F42-74A2-49D4-A9E4-C2081DD5CDFC";
shapes = (
{
closed = 1;
nodes = (
(-977,940,l),
(-1043,981,o),
(-1136,1011,o),
(-1265,1011,cs),
(-1695,1011,o),
(-1910,686,o),
(-1910,372,cs),
(-1910,54,o),
(-1690,-241,o),
(-1294,-241,cs),
(-570,-241,o),
(-251,942,o),
(330,942,cs),
(518,942,o),
(606,813,o),
(606,682,cs),
(606,544,o),
(508,405,o),
(332,405,cs),
(265,406,o),
(198,427,o),
(147,469,c),
(147,504,l),
(138,501,o),
(129,499,o),
(119,496,c),
(95,524,o),
(76,559,o),
(66,601,c),
(76,592,o),
(89,589,o),
(103,589,cs),
(136,589,o),
(162,612,o),
(162,642,cs),
(162,672,o),
(136,695,o),
(103,695,cs),
(64,695,o),
(43,665,o),
(43,629,cs),
(43,579,o),
(67,532,o),
(107,493,c),
(75,486,o),
(41,481,o),
(2,481,c),
(2,477,l),
(58,477,o),
(79,472,o),
(79,420,cs),
(79,-170,ls),
(79,-257,o),
(43,-284,o),
(-2,-284,cs),
(-26,-284,o),
(-42,-273,o),
(-45,-257,c),
(-25,-248,o),
(-10,-226,o),
(-10,-202,cs),
(-10,-178,o),
(-25,-153,o),
(-57,-153,cs),
(-88,-153,o),
(-105,-176,o),
(-105,-208,cs),
(-105,-258,o),
(-64,-288,o),
(1,-288,cs),
(122,-288,o),
(147,-196,o),
(147,-95,cs),
(147,460,l),
(199,424,o),
(264,402,o),
(332,401,cs),
(511,401,o),
(610,543,o),
(610,682,cs),
(610,817,o),
(521,977,o),
(330,977,cs),
(-166,977,o),
(-578,-171,o),
(-1294,-171,cs),
(-1687,-171,o),
(-1906,58,o),
(-1906,372,cs),
(-1906,685,o),
(-1692,1007,o),
(-1265,1007,cs),
(-1137,1007,o),
(-1045,976,o),
(-980,936,c)
);
}
);
width = 220;
},
{
layerId = "50E4EC5D-70F1-40A1-976B-CDBCAECFE4D4";
shapes = (
{
closed = 1;
nodes = (
(-981,940,l),
(-1047,981,o),
(-1140,1011,o),
(-1269,1011,cs),
(-1699,1011,o),
(-1914,686,o),
(-1914,372,cs),
(-1914,54,o),
(-1694,-294,o),
(-1298,-294,cs),
(-574,-294,o),
(-294,942,o),
(306,942,cs),
(494,942,o),
(602,813,o),
(602,682,cs),
(602,544,o),
(504,405,o),
(328,405,cs),
(306,405,o),
(283,409,o),
(260,415,c),
(260,500,l),
(222,493,o),
(179,489,o),
(132,485,c),
(101,515,o),
(78,551,o),
(72,593,c),
(90,568,o),
(128,546,o),
(166,546,cs),
(226,546,o),
(272,592,o),
(272,644,cs),
(272,699,o),
(230,740,o),
(166,740,cs),
(84,740,o),
(45,678,o),
(45,611,cs),
(45,561,o),
(65,518,o),
(98,484,c),
(62,482,o),
(25,481,o),
(-14,481,c),
(-14,473,l),
(42,473,o),
(63,468,o),
(63,416,cs),
(63,-176,ls),
(63,-223,o),
(46,-280,o),
(-7,-280,cs),
(-30,-280,o),
(-41,-269,o),
(-44,-262,c),
(-11,-247,o),
(5,-211,o),
(5,-177,cs),
(5,-133,o),
(-21,-91,o),
(-74,-91,cs),
(-123,-91,o),
(-151,-128,o),
(-151,-177,cs),
(-151,-235,o),
(-113,-290,o),
(19,-290,cs),
(196,-290,o),
(260,-192,o),
(260,-58,cs),
(260,407,l),
(282,403,o),
(304,401,o),
(328,401,cs),
(507,401,o),
(606,543,o),
(606,682,cs),
(606,817,o),
(497,992,o),
(306,992,cs),
(-213,992,o),
(-474,-134,o),
(-1298,-134,cs),
(-1691,-134,o),
(-1910,58,o),
(-1910,372,cs),
(-1910,685,o),
(-1696,1007,o),
(-1269,1007,cs),
(-1141,1007,o),
(-1049,976,o),
(-984,936,c)
);
}
);
width = 316;
}
);
},
{
color = (255, 153, 153, 255);
glyphname = k;
layers = (
{
guides = (
{
position = "{0, 474}";
}
);
hints = (
{
horizontal = 1;
place = (-6,38);
type = Stem;
},
{
horizontal = 1;
place = (-6,244);
type = Stem;
},
{
horizontal = 1;
place = (224,111);
type = Stem;
},
{
horizontal = 1;
place = (255,80);
type = Stem;
},
{
horizontal = 1;
place = (438,29);
type = Stem;
},
{
horizontal = 1;
place = (736,-20);
target = down;
type = TopGhost;
},
{
place = (88,207);
type = Stem;
},
{
place = (388,198);
type = Stem;
}
);
layerId = "CA214F42-74A2-49D4-A9E4-C2081DD5CDFC";
shapes = (
{
closed = 1;
nodes = (
(257,481,l),
(256,481,o),
(255,480,o),
(255,479,c),
(255,478,o),
(256,477,o),
(257,477,c),
(341,476,o),
(321,411,o),
(238,320,cs),
(137,209,l),
(137,721,l),
(-7,687,l),
(-7,684,l),
(49,684,o),
(70,686,o),
(70,634,cs),
(70,0,l),
(137,0,l),
(137,202,l),
(205,276,ls),
(215,287,o),
(222,292,o),
(232,292,cs),
(338,292,o),
(323,-13,o),
(439,-13,cs),
(480,-13,o),
(514,8,o),
(509,48,c),
(505,48,l),
(506,24,o),
(500,13,o),
(486,13,cs,{name = hr01;}),
(455,13,o),
(436,63,o),
(410,121,cs),
(376,199,o),
(332,297,o),
(234,297,cs),
(231,297,o),
(225,295,o),
(220,293,c),
(247,323,l),
(359,442,o),
(402,476,o),
(473,477,c),
(474,477,o),
(475,478,o),
(475,479,c),
(475,480,o),
(474,481,o),
(473,481,c)
);
}
);
width = 509;
},
{
guides = (
{
position = "{0, 474}";
}
);
hints = (
{
horizontal = 1;
place = (-6,38);
type = Stem;
},
{
horizontal = 1;
place = (-6,244);
type = Stem;
},
{
horizontal = 1;
place = (224,111);
type = Stem;
},
{
horizontal = 1;
place = (255,80);
type = Stem;
},
{
horizontal = 1;
place = (438,29);
type = Stem;
},
{
horizontal = 1;
place = (736,-20);
target = down;
type = TopGhost;
},
{
place = (88,207);
type = Stem;
},
{
place = (388,198);
type = Stem;
}
);
layerId = "50E4EC5D-70F1-40A1-976B-CDBCAECFE4D4";
shapes = (
{
closed = 1;
nodes = (
(341,481,l),
(340,481,o),
(339,480,o),
(339,479,c),
(339,478,o),
(340,477,o),
(341,477,c),
(390,474,o),
(385,378,o),
(319,306,cs),
(262,243,l),
(262,721,l),
(-19,685,l),
(-19,682,l),
(37,682,o),
(65,686,o),
(65,634,cs),
(65,0,l),
(262,0,l),
(262,233,l),
(277,249,ls),
(283,256,o),
(290,261,o),
(299,261,cs),
(358,261,o),
(276,-9,o),
(494,-9,cs),
(537,-9,o),
(614,13,o),
(614,53,c),
(609,53,l),
(609,45,o),
(604,37,o),
(593,37,cs),
(576,37,o),
(564,79,o),
(554,129,cs),
(540,202,o),
(483,281,o),
(362,281,cs),
(343,281,o),
(318,279,o),
(296,270,c),
(328,305,ls),
(400,385,o),
(511,475,o),
(583,477,c),
(584,477,o),
(585,478,o),
(585,479,c),
(585,480,o),
(584,481,o),
(583,481,c)
);
}
);
width = 617;
}
);
unicode = 107;
},
{
color = (153, 255, 154, 255);
glyphname = k.7;
layers = (
{
guides = (
{
position = "{0, 474}";
}
);
hints = (
{
horizontal = 1;
place = (-6,38);
type = Stem;
},
{
horizontal = 1;
place = (-6,244);
type = Stem;
},
{
horizontal = 1;
place = (224,111);
type = Stem;
},
{
horizontal = 1;
place = (255,80);
type = Stem;
},
{
horizontal = 1;
place = (438,29);
type = Stem;
},
{
horizontal = 1;
place = (736,-20);
target = down;
type = TopGhost;
},
{
place = (82,207);
type = Stem;
},
{
place = (382,198);
type = Stem;
}
);
layerId = "CA214F42-74A2-49D4-A9E4-C2081DD5CDFC";
shapes = (
{
closed = 1;
nodes = (
(251,481,l),
(250,481,o),
(249,480,o),
(249,479,c),
(249,478,o),
(250,477,o),
(251,477,c),
(335,476,o),
(315,411,o),
(232,320,cs),
(131,209,l),
(131,721,l),
(-13,687,l),
(-13,684,l),
(43,684,o),
(64,686,o),
(64,634,cs),
(64,144,l),
(-261,-215,o),
(-642,-618,o),
(-1113,-618,cs),
(-1590,-618,o),
(-1978,-229,o),
(-1978,247,cs),
(-1978,723,o),
(-1590,1110,o),
(-1113,1110,cs),
(-902,1110,o),
(-708,1034,o),
(-558,907,c),
(-553,911,l),
(-704,1039,o),
(-900,1114,o),
(-1113,1114,cs),
(-1593,1114,o),
(-1982,727,o),
(-1982,247,cs),
(-1982,-233,o),
(-1593,-622,o),
(-1113,-622,cs),
(-642,-622,o),
(-262,-224,o),
(64,135,c),
(64,0,l),
(131,0,l),
(131,202,l),
(199,276,ls),
(209,287,o),
(218,295,o),
(228,295,cs),
(304,295,o),
(357,70,o),
(497,-116,cs),
(599,-253,o),
(746,-371,o),
(981,-371,cs),
(1304,-371,o),
(1600,-143,o),
(1600,201,cs),
(1600,526,o),
(1335,789,o),
(1010,789,cs),
(775,789,o),
(572,661,o),
(379,481,c)
);
},
{
closed = 1;
nodes = (
(468,477,o),
(469,478,o),
(469,479,c),
(469,480,o),
(468,481,o),
(467,481,c),
(390,481,l),
(581,657,o),
(780,783,o),
(1010,783,cs),
(1331,783,o),
(1594,522,o),
(1594,201,cs),
(1594,-135,o),
(1304,-361,o),
(998,-361,cs),
(819,-361,o),
(697,-272,o),
(607,-158,cs),
(452,38,o),
(377,302,o),
(230,302,cs),
(227,302,o),
(223,301,o),
(219,299,c),
(241,323,ls),
(353,442,o),
(396,476,o),
(467,477,c)
);
}
);
width = 503;
},
{
guides = (
{
position = "{0, 474}";
}
);
hints = (
{
horizontal = 1;
place = (-6,38);
type = Stem;
},
{
horizontal = 1;
place = (-6,244);
type = Stem;
},
{
horizontal = 1;
place = (224,111);
type = Stem;
},
{
horizontal = 1;
place = (255,80);
type = Stem;
},
{
horizontal = 1;
place = (438,29);
type = Stem;
},
{
horizontal = 1;
place = (736,-20);
target = down;
type = TopGhost;
},
{
place = (88,207);
type = Stem;
},
{
place = (388,198);
type = Stem;
}
);
layerId = "50E4EC5D-70F1-40A1-976B-CDBCAECFE4D4";
shapes = (
{
closed = 1;
nodes = (
(342,481,l),
(340,481,o),
(339,480,o),
(339,478,c),
(339,476,o),
(340,474,o),
(342,474,c),
(389,470,o),
(384,377,o),
(319,306,cs),
(262,243,l),
(262,721,l),
(-12,689,l),
(-12,682,l),
(44,682,o),
(65,686,o),
(65,634,cs),
(65,50,l),
(-242,-284,o),
(-592,-616,o),
(-1028,-616,cs),
(-1504,-616,o),
(-1891,-229,o),
(-1891,247,cs),
(-1891,723,o),
(-1504,1110,o),
(-1028,1110,cs),
(-817,1110,o),
(-623,1034,o),
(-473,907,c),
(-468,911,l),
(-619,1039,o),
(-815,1116,o),
(-1028,1116,cs),
(-1508,1116,o),
(-1897,727,o),
(-1897,247,cs),
(-1897,-233,o),
(-1508,-622,o),
(-1028,-622,cs),
(-593,-622,o),
(-243,-293,o),
(65,39,c),
(65,0,l),
(262,0,l),
(262,233,l),
(289,262,ls),
(292,266,o),
(297,266,o),
(302,266,cs),
(346,266,o),
(351,37,o),
(478,-143,cs),
(576,-281,o),
(754,-381,o),
(1021,-381,cs),
(1333,-381,o),
(1600,-127,o),
(1600,201,cs),
(1600,526,o),
(1335,789,o),
(1010,789,cs),
(807,789,o),
(631,661,o),
(463,481,c)
);
},
{
closed = 1;
nodes = (
(584,474,o),
(585,475,o),
(585,477,c),
(585,479,o),
(584,481,o),
(582,481,c),
(474,481,l),
(639,658,o),
(812,783,o),
(1010,783,cs),
(1331,783,o),
(1594,522,o),
(1594,201,cs),
(1594,-116,o),
(1340,-364,o),
(1051,-364,cs),
(882,-364,o),
(800,-243,o),
(683,-75,cs),
(562,98,o),
(457,276,o),
(309,276,cs),
(306,276,o),
(302,275,o),
(299,274,c),
(328,305,l),
(400,385,o),
(510,471,o),
(582,474,c)
);
}
);
width = 603;
}
);
},
{
color = (153, 255, 154, 255);
glyphname = k.6;
layers = (
{
layerId = "CA214F42-74A2-49D4-A9E4-C2081DD5CDFC";
shapes = (
{
closed = 1;
nodes = (
(474.203,477.002,o),
(475,477.803,o),
(475,479,c),
(475,479,l),
(475,480.2,o),
(474.2,481,o),
(473.,481,cs),
(257.,481,ls),
(255.8,481,o),
(255,480.2,o),
(255,479,c),
(255,479,l),
(255,477.804,o),
(255.796,477.003,o),
(257,476.988,cs),
(340.699,475.981,o),
(321.343,411.28,o),
(238,320,cs),
(137,209,l),
(137,617,ls),
(137,978,o),
(468,1233,o),
(800,1233,cs),
(1241,1233,o),
(1598,872,o),
(1598,421,cs),
(1598,-24,o),
(1245,-382,o),
(810,-382,cs),
(617,-382,o),
(439,-308,o),
(305,-187,c),
(299,-192,l),
(433,-314,o),
(613,-389,o),
(810,-389,cs),
(1250,-389,o),
(1604,-29,o),
(1604,421,cs),
(1604,878,o),
(1245,1243,o),
(797,1243,cs),
(401,1243,o),
(70,923,o),
(70,517,cs),
(70,0,l),
(137,0,l),
(137,202,l),
(221,295,l),
(335,289,o),
(320,-13,o),
(439,-13,cs),
(480,-13,o),
(514,8,o),
(509,48,c),
(505,49,l),
(505,27,o),
(499,15,o),
(484,15,cs,{name = hr01;}),
(412,15,o),
(403,296,o),
(226,300,c),
(247,323,ls),
(358.95,441.885,o),
(402.195,476.361,o),
(473.,476.991,cs)
);
}
);
width = 519;
},
{
layerId = "50E4EC5D-70F1-40A1-976B-CDBCAECFE4D4";
shapes = (
{
closed = 1;
nodes = (
(583.62,474.013,o),
(585,475.42,o),
(585,477.5,c),
(585,477.5,l),
(585,479.6,o),
(583.6,481.,o),
(581.5,481,cs),
(342.5,481,ls),
(340.4,481,o),
(339,479.6,o),
(339,477.5,c),
(339,477.5,l),
(339,475.452,o),
(340.351,474.039,o),
(342.496,473.845,cs),
(389.778,469.557,o),
(384.429,377.288,o),
(319,306,cs),
(262,243,l),
(262,617,ls),
(262,978,o),
(500,1233,o),
(829,1233,cs),
(1270,1233,o),
(1627,872,o),
(1627,421,cs),
(1627,-24,o),
(1274,-382,o),
(839,-382,cs),
(646,-382,o),
(468,-308,o),
(334,-187,c),
(328,-192,l),
(462,-314,o),
(642,-389,o),
(839,-389,cs),
(1279,-389,o),
(1633,-29,o),
(1633,421,cs),
(1633,878,o),
(1274,1243,o),
(826,1243,cs),
(357,1243,o),
(65,923,o),
(65,517,cs),
(65,0,l),
(262,0,l),
(262,233,l),
(315,291,l),
(314,230,o),
(305,-9,o),
(509,-9,cs),
(556,-9,o),
(612,-2,o),
(606,48,c),
(602,49,l),
(602,38,o),
(600,32,o),
(593,32,cs),
(546,32,o),
(575,298,o),
(325,302,c),
(328,305,l),
(399.828,384.699,o),
(509.413,471.176,o),
(581.501,473.932,cs)
);
}
);
width = 617;
}
);
},
{
color = (153, 255, 154, 255);
glyphname = k.44;
layers = (
{
layerId = "CA214F42-74A2-49D4-A9E4-C2081DD5CDFC";
shapes = (
{
closed = 1;
nodes = (
(474.203,477.002,o),
(475,477.803,o),
(475,479,c),
(475,479,l),
(475,480.2,o),
(474.2,481,o),
(473.,481,cs),
(257.,481,ls),
(255.8,481,o),
(255,480.2,o),
(255,479,c),
(255,479,l),
(255,477.804,o),
(255.796,477.003,o),
(257,476.988,cs),
(340.699,475.981,o),
(321.343,411.28,o),
(238,320,cs),
(137,209,l),
(137,617,ls),
(137,980,o),
(468,1236,o),
(800,1236,cs),
(1241,1236,o),
(1598,874,o),
(1598,421,cs),
(1598,-24,o),
(1245,-382,o),
(810,-383,cs),
(-144,-386,o),
(-301,934,o),
(-1243,934,cs),
(-1574,934,o),
(-1864,737,o),
(-2002,455,c),
(-1996,453,l),
(-1859,734,o),
(-1572,930,o),
(-1243,930,cs),
(-314,930,o),
(-140,-389,o),
(810,-389,cs),
(1250,-389,o),
(1604,-29,o),
(1604,421,cs),
(1604,878,o),
(1245,1243,o),
(797,1243,cs),
(401,1243,o),
(70,923,o),
(70,517,cs),
(70,0,l),
(137,0,l),
(137,202,l),
(221,295,l),
(335,289,o),
(320,-13,o),
(439,-13,cs),
(480,-13,o),
(514,8,o),
(509,48,c),
(505,49,l),
(505,27,o),
(499,15,o),
(484,15,cs,{name = hr01;}),
(412,15,o),
(403,296,o),
(226,300,c),
(247,323,ls),
(358.95,441.885,o),
(402.195,476.361,o),
(473.,476.991,cs)
);
}
);
width = 519;
},
{
layerId = "50E4EC5D-70F1-40A1-976B-CDBCAECFE4D4";
shapes = (
{
closed = 1;
nodes = (
(583.62,474.013,o),
(585,475.42,o),
(585,477.5,c),
(585,477.5,l),
(585,479.6,o),
(583.6,481.,o),
(581.5,481,cs),
(342.5,481,ls),
(340.4,481,o),
(339,479.6,o),
(339,477.5,c),
(339,477.5,l),
(339,475.452,o),
(340.351,474.039,o),
(342.496,473.845,cs),
(389.778,469.557,o),
(384.429,377.288,o),
(319,306,cs),
(262,243,l),
(262,619,ls),
(262,982,o),
(506,1236,o),
(829,1236,cs),
(1270,1236,o),
(1627,874,o),
(1627,421,cs),
(1627,-35,o),
(1266,-382,o),
(826,-383,cs),
(-128,-386,o),
(-342,934,o),
(-1284,934,cs),
(-1615,934,o),
(-1905,737,o),
(-2043,455,c),
(-2037,453,l),
(-1900,734,o),
(-1613,930,o),
(-1284,930,cs),
(-355,930,o),
(-124,-389,o),
(826,-389,cs),
(1284,-389,o),
(1633,-19,o),
(1633,421,cs),
(1633,878,o),
(1274,1243,o),
(826,1243,cs),
(357,1243,o),
(65,923,o),
(65,517,cs),
(65,0,l),
(262,0,l),
(262,233,l),
(315,291,l),
(314,230,o),
(305,-9,o),
(509,-9,cs),
(556,-9,o),
(612,-2,o),
(606,48,c),
(602,49,l),
(602,38,o),
(600,32,o),
(593,32,cs),
(546,32,o),
(575,298,o),
(325,302,c),
(328,305,l),
(399.828,384.699,o),
(509.413,471.176,o),
(581.501,473.932,cs)
);
}
);
width = 617;
}
);
},
{
color = (153, 255, 154, 255);
glyphname = k.44.acc;
layers = (
{
layerId = "CA214F42-74A2-49D4-A9E4-C2081DD5CDFC";
shapes = (
{
closed = 1;
nodes = (
(474.203,477.002,o),
(475,477.803,o),
(475,479,c),
(475,479,l),
(475,480.2,o),
(474.2,481,o),
(473.,481,cs),
(257.,481,ls),
(255.8,481,o),
(255,480.2,o),
(255,479,c),
(255,479,l),
(255,477.804,o),
(255.796,477.003,o),
(257,476.988,cs),
(340.699,475.981,o),
(321.343,411.28,o),
(238,320,cs),
(137,209,l),
(137,617,ls),
(137,980,o),
(468,1236,o),
(800,1236,cs),
(1241,1236,o),
(1598,874,o),
(1598,421,cs),
(1598,-24,o),
(1245,-356,o),
(810,-356,cs),
(318,-356,o),
(43,-58,o),
(-216,251,cs),
(-495,586,o),
(-753,934,o),
(-1243,934,cs),
(-1573,934,o),
(-1862,737,o),
(-1999,455,c),
(-1996,453,l),
(-1859,734,o),
(-1572,930,o),
(-1243,930,cs),
(-776,930,o),
(-499,588,o),
(-219,247,cs),
(57,-90,o),
(338,-426,o),
(810,-426,cs),
(1250,-426,o),
(1604,-29,o),
(1604,421,cs),
(1604,878,o),
(1245,1243,o),
(797,1243,cs),
(401,1243,o),
(70,923,o),
(70,517,cs),
(70,0,l),
(137,0,l),
(137,202,l),
(221,295,l),
(335,289,o),
(320,-13,o),
(439,-13,cs),
(480,-13,o),
(514,8,o),
(509,48,c),
(505,49,l),
(505,27,o),
(499,15,o),
(484,15,cs,{name = hr01;}),
(412,15,o),
(403,296,o),
(226,300,c),
(247,323,ls),
(358.95,441.885,o),
(402.195,476.361,o),
(473.,476.991,cs)
);
}
);
width = 519;
},
{
layerId = "50E4EC5D-70F1-40A1-976B-CDBCAECFE4D4";
shapes = (
{
closed = 1;
nodes = (
(583.62,474.013,o),
(585,475.42,o),
(585,477.5,c),
(585,477.5,l),
(585,479.6,o),
(583.6,481.,o),
(581.5,481,cs),
(342.5,481,ls),
(340.4,481,o),
(339,479.6,o),
(339,477.5,c),
(339,477.5,l),
(339,475.452,o),
(340.351,474.039,o),
(342.496,473.845,cs),
(389.778,469.557,o),
(384.429,377.288,o),
(319,306,cs),
(262,243,l),
(262,619,ls),
(262,974,o),
(505,1236,o),
(829,1236,cs),
(1270,1236,o),
(1627,874,o),
(1627,421,cs),
(1627,-35,o),
(1266,-328,o),
(826,-328,cs),
(294,-328,o),
(9,-57,o),
(-295,318,cs),
(-557,641,o),
(-846,934,o),
(-1284,934,cs),
(-1614,934,o),
(-1903,737,o),
(-2040,455,c),
(-2037,453,l),
(-1900,734,o),
(-1613,930,o),
(-1284,930,cs),
(-849,930,o),
(-562,644,o),
(-299,314,cs),
(26,-94,o),
(344,-488,o),
(826,-488,cs),
(1284,-488,o),
(1633,-19,o),
(1633,421,cs),
(1633,878,o),
(1274,1243,o),
(826,1243,cs),
(357,1243,o),
(65,923,o),
(65,517,cs),
(65,0,l),
(262,0,l),
(262,233,l),
(315,291,l),
(314,230,o),
(305,-9,o),
(509,-9,cs),
(556,-9,o),
(612,-2,o),
(606,48,c),
(602,49,l),
(602,38,o),
(600,32,o),
(593,32,cs),
(546,32,o),
(575,298,o),
(325,302,c),
(328,305,l),
(399.828,384.699,o),
(509.413,471.176,o),
(581.501,473.932,cs)
);
}
);
width = 617;
}
);
},
{
color = (153, 255, 154, 255);
glyphname = k.7.acc;
layers = (
{
guides = (
{
position = "{0, 474}";
}
);
hints = (
{
horizontal = 1;
place = (-6,38);
type = Stem;
},
{
horizontal = 1;
place = (-6,244);
type = Stem;
},
{
horizontal = 1;
place = (224,111);
type = Stem;
},
{
horizontal = 1;
place = (255,80);
type = Stem;
},
{
horizontal = 1;
place = (438,29);
type = Stem;
},
{
horizontal = 1;
place = (736,-20);
target = down;
type = TopGhost;
},
{
place = (82,207);
type = Stem;
},
{
place = (382,198);
type = Stem;
}
);
layerId = "CA214F42-74A2-49D4-A9E4-C2081DD5CDFC";
shapes = (
{
closed = 1;
nodes = (
(251,481,l),
(250,481,o),
(249,480,o),
(249,479,c),
(249,478,o),
(250,477,o),
(251,477,c),
(335,476,o),
(315,411,o),
(232,320,cs),
(131,209,l),
(131,721,l),
(-13,687,l),
(-13,684,l),
(43,684,o),
(64,686,o),
(64,634,cs),
(64,142,l),
(-263,-218,o),
(-637,-552,o),
(-1113,-552,cs),
(-1590,-552,o),
(-1978,-229,o),
(-1978,247,cs),
(-1978,724,o),
(-1590,1112,o),
(-1113,1112,cs),
(-902,1112,o),
(-708,1035,o),
(-558,907,c),
(-553,911,l),
(-704,1039,o),
(-900,1116,o),
(-1113,1116,cs),
(-1593,1116,o),
(-1982,727,o),
(-1982,247,cs),
(-1982,-233,o),
(-1593,-622,o),
(-1113,-622,cs),
(-638,-622,o),
(-264,-230,o),
(64,131,c),
(64,0,l),
(131,0,l),
(131,202,l),
(199,276,ls),
(209,287,o),
(216,292,o),
(226,292,cs),
(302,292,o),
(357,70,o),
(497,-116,cs),
(599,-253,o),
(746,-371,o),
(981,-371,cs),
(1304,-371,o),
(1600,-143,o),
(1600,201,cs),
(1600,526,o),
(1335,789,o),
(1010,789,cs),
(777,789,o),
(575,661,o),
(383,481,c)
);
},
{
closed = 1;
nodes = (
(468,477,o),
(469,478,o),
(469,479,c),
(469,480,o),
(468,481,o),
(467,481,c),
(390,481,l),
(581,658,o),
(780,785,o),
(1010,785,cs),
(1332,785,o),
(1596,523,o),
(1596,201,cs),
(1596,-135,o),
(1305,-361,o),
(998,-361,cs),
(819,-361,o),
(699,-271,o),
(607,-158,cs),
(451,37,o),
(375,297,o),
(227,297,cs),
(224,297,o),
(220,297,o),
(216,295,c),
(241,323,l),
(353,442,o),
(396,476,o),
(467,477,c)
);
}
);
width = 503;
},
{
guides = (
{
position = "{0, 474}";
}
);
hints = (
{
horizontal = 1;
place = (-6,38);
type = Stem;
},
{
horizontal = 1;
place = (-6,244);
type = Stem;
},
{
horizontal = 1;
place = (224,111);
type = Stem;
},
{
horizontal = 1;
place = (255,80);
type = Stem;
},
{
horizontal = 1;
place = (438,29);
type = Stem;
},
{
horizontal = 1;
place = (736,-20);
target = down;
type = TopGhost;
},
{
place = (88,207);
type = Stem;
},
{
place = (388,198);
type = Stem;
}
);
layerId = "50E4EC5D-70F1-40A1-976B-CDBCAECFE4D4";
shapes = (
{
closed = 1;
nodes = (
(342,481,l),
(340,481,o),
(339,480,o),
(339,478,c),
(339,476,o),
(340,474,o),
(342,474,c),
(389,470,o),
(384,377,o),
(319,306,cs),
(262,243,l),
(262,721,l),
(-12,689,l),
(-12,682,l),
(44,682,o),
(65,686,o),
(65,634,cs),
(65,53,l),
(-242,-262,o),
(-592,-492,o),
(-1028,-492,cs),
(-1505,-492,o),
(-1893,-229,o),
(-1893,247,cs),
(-1893,724,o),
(-1505,1112,o),
(-1028,1112,cs),
(-817,1112,o),
(-623,1035,o),
(-473,907,c),
(-468,911,l),
(-619,1039,o),
(-815,1116,o),
(-1028,1116,cs),
(-1508,1116,o),
(-1897,727,o),
(-1897,247,cs),
(-1897,-233,o),
(-1508,-652,o),
(-1028,-652,cs),
(-593,-652,o),
(-243,-299,o),
(65,39,c),
(65,0,l),
(262,0,l),
(262,233,l),
(289,262,ls),
(292,266,o),
(299,268,o),
(304,268,cs),
(348,268,o),
(351,37,o),
(478,-143,cs),
(576,-281,o),
(754,-381,o),
(1021,-381,cs),
(1333,-381,o),
(1600,-127,o),
(1600,201,cs),
(1600,526,o),
(1335,789,o),
(1010,789,cs),
(808,789,o),
(632,661,o),
(465,481,c)
);
},
{
closed = 1;
nodes = (
(584,474,o),
(585,475,o),
(585,477,c),
(585,479,o),
(584,481,o),
(582,481,c),
(474,481,l),
(639,659,o),
(812,785,o),
(1010,785,cs),
(1332,785,o),
(1596,523,o),
(1596,201,cs),
(1596,-116,o),
(1341,-364,o),
(1051,-364,cs),
(882,-364,o),
(800,-243,o),
(683,-75,cs),
(562,98,o),
(457,277,o),
(309,277,cs),
(306,277,o),
(302,276,o),
(299,274,c),
(328,305,l),
(400,385,o),
(510,471,o),
(582,474,c)
);
}
);
width = 603;
}
);
},
{
color = (153, 255, 154, 255);
glyphname = k.9;
layers = (
{
layerId = "CA214F42-74A2-49D4-A9E4-C2081DD5CDFC";
shapes = (
{
closed = 1;
nodes = (
(474.203,477.002,o),
(475,477.803,o),
(475,479,c),
(475,479,l),
(475,480.2,o),
(474.2,481,o),
(473.,481,cs),
(257.,481,ls),
(255.8,481,o),
(255,480.2,o),
(255,479,c),
(255,479,l),
(255,477.804,o),
(255.796,477.003,o),
(257,476.988,cs),
(340.699,475.981,o),
(321.343,411.28,o),
(238,320,cs),
(137,209,l),
(137,721,l),
(-7,687,l),
(-7,684,l),
(49,684,o),
(70,686,o),
(70,634,cs),
(70,0,l),
(137,0,l),
(137,202,l),
(221,295,l),
(228,294,o),
(235,292,o),
(241,289,c),
(336,238,o),
(376,-125,o),
(703,-125,cs),
(892,-125,o),
(989,5,o),
(989,139,cs),
(989,193,o),
(959,242,o),
(906,242,cs),
(868,242,o),
(842,216,o),
(842,185,cs),
(842,155,o),
(866,128,o),
(903,128,cs),
(932,128,o),
(956,145,o),
(965,166,c),
(970,150,o),
(972,136,o),
(972,118,cs),
(972,-10,o),
(876,-112,o),
(737,-112,cs),
(490,-112,o),
(391,293,o),
(226,300,c),
(247,323,ls),
(356.969,443.867,o),
(402.158,476.398,o),
(473.,476.992,cs)
);
}
);
width = 1028;
},
{
layerId = "50E4EC5D-70F1-40A1-976B-CDBCAECFE4D4";
shapes = (
{
closed = 1;
nodes = (
(583.62,474.013,o),
(585,475.42,o),
(585,477.5,c),
(585,477.5,l),
(585,479.6,o),
(583.6,481.,o),
(581.5,481,cs),
(342.5,481,ls),
(340.4,481,o),
(339,479.6,o),
(339,477.5,c),
(339,477.5,l),
(339,475.452,o),
(340.351,474.039,o),
(342.496,473.845,cs),
(389.778,469.557,o),
(384.429,377.288,o),
(319,306,cs),
(262,243,l),
(262,721,l),
(-12,689,l),
(-12,682,l),
(44,682,o),
(65,686,o),
(65,634,cs),
(65,0,l),
(262,0,l),
(262,233,l),
(314,290,l),
(313,281,o),
(312,271,o),
(312,260,cs),
(312,126,o),
(409,-152,o),
(721,-152,cs),
(940,-152,o),
(1052,-14,o),
(1052,123,cs),
(1052,216,o),
(1000,301,o),
(910,301,cs),
(845,301,o),
(801,256,o),
(801,203,cs),
(801,152,o),
(842,105,o),
(905,105,cs),
(954,105,o),
(995,134,o),
(1011,171,c),
(1019,144,o),
(1023,120,o),
(1023,94,cs),
(1023,-31,o),
(931,-121,o),
(798,-121,cs),
(510,-121,o),
(656,301,o),
(324,301,c),
(328,305,l),
(399.828,384.699,o),
(509.413,471.176,o),
(581.501,473.932,cs)
);
}
);
width = 1100;
}
);
},
{
color = (255, 153, 153, 255);
glyphname = l;
layers = (
{
hints = (
{
horizontal = 1;
place = (-6,38);
type = Stem;
},
{
horizontal = 1;
place = (736,-20);
target = down;
type = TopGhost;
},
{
place = (2,248);
type = Stem;
}
);
layerId = "CA214F42-74A2-49D4-A9E4-C2081DD5CDFC";
shapes = (
{
closed = 1;
nodes = (
(235,27,l),
(230,20,o),
(218,7,o),
(195,7,cs),
(148,7,o),
(132,39,o),
(132,122,cs),
(132,721,l),
(-12,687,l),
(-12,684,l),
(44,684,o),
(65,686,o),
(65,634,cs),
(65,118,ls),
(65,34,o),
(94,-9,o),
(159,-9,cs),
(197,-9,o),
(228,7,o),
(239,22,c)
);
}
);
width = 227;
},
{
hints = (
{
horizontal = 1;
place = (-6,38);
type = Stem;
},
{
horizontal = 1;
place = (736,-20);
target = down;
type = TopGhost;
},
{
place = (57,198);
type = Stem;
}
);
layerId = "50E4EC5D-70F1-40A1-976B-CDBCAECFE4D4";
shapes = (
{
closed = 1;
nodes = (
(307,34,l),
(304,28,o),
(292,18,o),
(279,18,cs),
(255,18,o),
(250,49,o),
(250,119,cs),
(250,721,l),
(-27,685,l),
(-27,682,l),
(29,682,o),
(57,686,o),
(57,634,cs),
(57,118,ls),
(57,34,o),
(102,-9,o),
(192,-9,cs),
(248,-9,o),
(294,9,o),
(310,30,c)
);
}
);
width = 315;
}
);
unicode = 108;
},
{
color = (153, 255, 154, 255);
glyphname = l.5;
layers = (
{
background = {
shapes = (
{
closed = 1;
nodes = (
(52,459,l),
(52,39,ls),
(52,-197,o),
(181,-444,o),
(504,-444,cs),
(682,-444,o),
(764,-303,o),
(764,-217,cs),
(764,-147,o),
(723,-79,o),
(676,-71,c),
(675,-76,l),
(721,-85,o),
(759,-149,o),
(759,-217,cs),
(759,-301,o),
(675,-435,o),
(505,-435,cs),
(250,-435,o),
(245,-192,o),
(245,39,cs),
(245,543,l)
);
}
);
};
layerId = "CA214F42-74A2-49D4-A9E4-C2081DD5CDFC";
leftMetricsKey = l;
shapes = (
{
closed = 1;
nodes = (
(498,-136,l),
(474,-196,o),
(399,-224,o),
(334,-224,cs),
(225,-224,o),
(132,-141,o),
(132,35,cs),
(132,721,l),
(-12,687,l),
(-12,684,l),
(44,684,o),
(65,686,o),
(65,634,cs),
(65,69,ls),
(65,-108,o),
(158,-230,o),
(318,-230,cs),
(394,-230,o),
(476,-202,o),
(501,-139,c)
);
}
);
width = 220;
},
{
layerId = "50E4EC5D-70F1-40A1-976B-CDBCAECFE4D4";
shapes = (
{
closed = 1;
nodes = (
(622,-136,l),
(599,-194,o),
(523,-224,o),
(458,-224,cs),
(350,-224,o),
(250,-145,o),
(250,31,cs),
(250,721,l),
(-20,689,l),
(-20,682,l),
(36,682,o),
(57,686,o),
(57,634,cs),
(57,129,ls),
(57,-52,o),
(99,-239,o),
(413,-239,cs),
(501,-239,o),
(596,-208,o),
(625,-139,c)
);
}
);
width = 312;
}
);
},
{
color = (153, 255, 154, 255);
glyphname = l.4;
layers = (
{
background = {
shapes = (
{
closed = 1;
nodes = (
(247,138,l),
(247,721,l),
(-23,689,l),
(-23,682,l),
(33,682,o),
(54,686,o),
(54,634,cs),
(54,202,l)
);
},
{
closed = 1;
nodes = (
(54,290,l),
(54,173,l),
(56,-192,o),
(373,-413,o),
(753,-413,cs),
(1096,-413,o),
(1373,-136,o),
(1373,207,cs),
(1373,544,o),
(1100,817,o),
(763,817,cs),
(605,817,o),
(461,757,o),
(353,659,c),
(359,655,l),
(466,752,o),
(608,811,o),
(763,811,cs),
(1096,811,o),
(1367,540,o),
(1367,207,cs),
(1367,-126,o),
(1096,-397,o),
(763,-397,cs),
(492,-397,o),
(249,-231,o),
(247,138,c),
(205,258,l)
);
}
);
};
layerId = "CA214F42-74A2-49D4-A9E4-C2081DD5CDFC";
shapes = (
{
closed = 1;
nodes = (
(-7,684,l),
(49,684,o),
(70,686,o),
(70,634,cs),
(70,137,ls),
(70,-231,o),
(333,-414,o),
(655,-414,cs),
(1008,-414,o),
(1316,-161,o),
(1316,207,cs),
(1316,544,o),
(1043,817,o),
(706,817,cs),
(549,817,o),
(405,757,o),
(298,659,c),
(302,655,l),
(409,754,o),
(551,813,o),
(706,813,cs),
(1040,813,o),
(1312,542,o),
(1312,207,cs),
(1312,-149,o),
(1010,-405,o),
(666,-405,cs),
(385,-405,o),
(137,-233,o),
(137,109,cs),
(137,721,l),
(-7,687,l)
);
}
);
width = 231;
},
{
layerId = "50E4EC5D-70F1-40A1-976B-CDBCAECFE4D4";
shapes = (
{
closed = 1;
nodes = (
(-30,682,l),
(26,682,o),
(54,686,o),
(54,634,cs),
(54,173,ls),
(54,-192,o),
(373,-413,o),
(753,-413,cs),
(1096,-413,o),
(1373,-136,o),
(1373,207,cs),
(1373,544,o),
(1100,817,o),
(763,817,cs),
(606,817,o),
(462,757,o),
(355,659,c),
(359,655,l),
(466,754,o),
(608,813,o),
(763,813,cs),
(1097,813,o),
(1369,542,o),
(1369,207,cs),
(1369,-127,o),
(1097,-399,o),
(763,-399,cs),
(492,-399,o),
(247,-232,o),
(247,138,cs),
(247,721,l),
(-30,685,l)
);
}
);
width = 312;
}
);
},
{
color = (153, 255, 154, 255);
glyphname = l.6;
layers = (
{
layerId = "CA214F42-74A2-49D4-A9E4-C2081DD5CDFC";
shapes = (
{
closed = 1;
nodes = (
(299,-192,l),
(433,-314,o),
(613,-389,o),
(810,-389,cs),
(1250,-389,o),
(1604,-29,o),
(1604,421,cs),
(1604,878,o),
(1245,1243,o),
(797,1243,cs),
(401,1243,o),
(70,923,o),
(70,517,cs),
(70,118,ls),
(70,34,o),
(99,-9,o),
(164,-9,cs),
(202,-9,o),
(233,7,o),
(244,22,c),
(240,27,l),
(235,20,o),
(223,7,o),
(200,7,cs),
(153,7,o),
(137,39,o),
(137,122,cs),
(137,617,ls),
(137,980,o),
(468,1236,o),
(800,1236,cs),
(1242,1236,o),
(1600,874,o),
(1600,421,cs),
(1600,-25,o),
(1246,-384,o),
(810,-384,cs),
(616,-384,o),
(438,-309,o),
(303,-188,c)
);
}
);
width = 236;
},
{
layerId = "50E4EC5D-70F1-40A1-976B-CDBCAECFE4D4";
shapes = (
{
closed = 1;
nodes = (
(323,-192,l),
(457,-314,o),
(637,-389,o),
(834,-389,cs),
(1274,-389,o),
(1628,-29,o),
(1628,421,cs),
(1628,878,o),
(1269,1243,o),
(821,1243,cs),
(352,1243,o),
(57,923,o),
(57,517,cs),
(57,118,ls),
(57,34,o),
(100,-9,o),
(192,-9,cs),
(248,-9,o),
(294,9,o),
(310,30,c),
(307,34,l),
(304,28,o),
(292,18,o),
(279,18,cs),
(255,18,o),
(250,49,o),
(250,119,cs),
(250,617,ls),
(250,980,o),
(495,1236,o),
(824,1236,cs),
(1266,1236,o),
(1624,874,o),
(1624,421,cs),
(1624,-25,o),
(1270,-384,o),
(834,-384,cs),
(640,-384,o),
(462,-309,o),
(327,-188,c)
);
}
);
width = 315;
}
);
},
{
color = (153, 255, 154, 255);
glyphname = l.6.more;
layers = (
{
layerId = "CA214F42-74A2-49D4-A9E4-C2081DD5CDFC";
shapes = (
{
closed = 1;
nodes = (
(-686,-318,l),
(-584,-208,o),
(-433,-144,o),
(-265,-144,cs),
(114,-144,o),
(380,-388,o),
(810,-388,cs),
(1250,-388,o),
(1604,-29,o),
(1604,421,cs),
(1604,878,o),
(1245,1243,o),
(797,1243,cs),
(401,1243,o),
(70,923,o),
(70,517,cs),
(70,118,ls),
(70,34,o),
(99,-9,o),
(164,-9,cs),
(202,-9,o),
(233,7,o),
(244,22,c),
(240,27,l),
(235,20,o),
(223,7,o),
(200,7,cs),
(153,7,o),
(137,39,o),
(137,122,cs),
(137,617,ls),
(137,978,o),
(468,1233,o),
(800,1233,cs),
(1242,1233,o),
(1600,872,o),
(1600,421,cs),
(1600,-24,o),
(1246,-382,o),
(810,-382,cs),
(388,-382,o),
(117,-140,o),
(-265,-140,cs),
(-436,-140,o),
(-590,-205,o),
(-693,-318,c)
);
}
);
width = 236;
},
{
layerId = "50E4EC5D-70F1-40A1-976B-CDBCAECFE4D4";
shapes = (
{
closed = 1;
nodes = (
(-663,-318,l),
(-561,-208,o),
(-410,-144,o),
(-242,-144,cs),
(137,-144,o),
(403,-388,o),
(833,-388,cs),
(1271,-388,o),
(1627,-28,o),
(1627,421,cs),
(1627,878,o),
(1268,1243,o),
(820,1243,cs),
(348,1243,o),
(52,923,o),
(52,517,cs),
(52,118,ls),
(52,34,o),
(95,-9,o),
(187,-9,cs),
(243,-9,o),
(289,9,o),
(305,30,c),
(302,34,l),
(299,28,o),
(287,18,o),
(274,18,cs),
(250,18,o),
(245,49,o),
(245,119,cs),
(245,617,ls),
(245,978,o),
(494,1233,o),
(823,1233,cs),
(1265,1233,o),
(1623,872,o),
(1623,421,cs),
(1623,-24,o),
(1269,-382,o),
(833,-382,cs),
(411,-382,o),
(140,-140,o),
(-242,-140,cs),
(-413,-140,o),
(-567,-205,o),
(-670,-318,c)
);
}
);
width = 310;
}
);
},
{
color = (153, 255, 154, 255);
glyphname = l.6.more.acc;
layers = (
{
layerId = "CA214F42-74A2-49D4-A9E4-C2081DD5CDFC";
shapes = (
{
closed = 1;
nodes = (
(-688,-320,l),
(-585,-209,o),
(-434,-144,o),
(-265,-144,cs),
(114,-144,o),
(380,-418,o),
(810,-418,cs),
(1250,-418,o),
(1604,-29,o),
(1604,421,cs),
(1604,878,o),
(1245,1243,o),
(797,1243,cs),
(401,1243,o),
(70,923,o),
(70,517,cs),
(70,118,ls),
(70,34,o),
(99,-9,o),
(164,-9,cs),
(202,-9,o),
(233,7,o),
(244,22,c),
(240,27,l),
(235,20,o),
(223,7,o),
(200,7,cs),
(153,7,o),
(137,39,o),
(137,122,cs),
(137,617,ls),
(137,980,o),
(468,1236,o),
(800,1236,cs),
(1242,1236,o),
(1600,874,o),
(1600,421,cs),
(1600,-24,o),
(1246,-348,o),
(810,-348,cs),
(388,-348,o),
(117,-140,o),
(-265,-140,cs),
(-436,-140,o),
(-590,-205,o),
(-693,-318,c)
);
}
);
width = 236;
},
{
layerId = "50E4EC5D-70F1-40A1-976B-CDBCAECFE4D4";
shapes = (
{
closed = 1;
nodes = (
(-665,-320,l),
(-562,-209,o),
(-411,-144,o),
(-242,-144,cs),
(137,-144,o),
(403,-459,o),
(833,-459,cs),
(1271,-459,o),
(1627,-28,o),
(1627,421,cs),
(1627,878,o),
(1268,1243,o),
(820,1243,cs),
(348,1243,o),
(52,923,o),
(52,517,cs),
(52,118,ls),
(52,34,o),
(95,-9,o),
(187,-9,cs),
(243,-9,o),
(289,9,o),
(305,30,c),
(302,34,l),
(299,28,o),
(287,18,o),
(274,18,cs),
(250,18,o),
(245,49,o),
(245,119,cs),
(245,617,ls),
(245,980,o),
(494,1236,o),
(823,1236,cs),
(1265,1236,o),
(1623,874,o),
(1623,421,cs),
(1623,-24,o),
(1269,-299,o),
(833,-299,cs),
(411,-299,o),
(140,-140,o),
(-242,-140,cs),
(-413,-140,o),
(-567,-205,o),
(-670,-318,c)
);
}
);
width = 310;
}
);
},
{
color = (153, 255, 154, 255);
glyphname = l.9;
layers = (
{
layerId = "CA214F42-74A2-49D4-A9E4-C2081DD5CDFC";
shapes = (
{
closed = 1;
nodes = (
(-7,684,l),
(49,684,o),
(67,686,o),
(67,634,cs),
(67,187,ls),
(67,10,o),
(161,-125,o),
(353,-125,cs),
(542,-125,o),
(639,5,o),
(639,139,cs),
(639,193,o),
(609,242,o),
(556,242,cs),
(518,242,o),
(492,216,o),
(492,185,cs),
(492,155,o),
(516,128,o),
(553,128,cs),
(582,128,o),
(606,145,o),
(615,166,c),
(620,150,o),
(622,136,o),
(622,118,cs),
(622,-12,o),
(523,-115,o),
(381,-115,cs),
(258,-115,o),
(137,-39,o),
(137,187,cs),
(137,721,l),
(-7,687,l)
);
}
);
width = 666;
},
{
layerId = "50E4EC5D-70F1-40A1-976B-CDBCAECFE4D4";
shapes = (
{
closed = 1;
nodes = (
(-27,682,l),
(29,682,o),
(57,686,o),
(57,634,cs),
(57,178,ls),
(57,-25,o),
(196,-152,o),
(394,-152,cs),
(599,-152,o),
(716,-14,o),
(716,124,cs),
(716,216,o),
(664,301,o),
(574,301,cs),
(509,301,o),
(465,256,o),
(465,203,cs),
(465,152,o),
(506,105,o),
(569,105,cs),
(618,105,o),
(659,134,o),
(675,171,c),
(683,144,o),
(687,120,o),
(687,94,cs),
(687,-31,o),
(593,-121,o),
(466,-121,cs),
(354,-121,o),
(250,-56,o),
(250,160,cs),
(250,721,l),
(-27,685,l)
);
}
);
width = 754;
}
);
},
{
color = (154, 153, 255, 255);
glyphname = m;
layers = (
{
hints = (
{
horizontal = 1;
place = (-6,38);
type = Stem;
},
{
horizontal = 1;
place = (446,21);
type = Stem;
},
{
place = (84,197);
type = Stem;
},
{
place = (403,198);
type = Stem;
},
{
place = (724,198);
type = Stem;
}
);
layerId = "CA214F42-74A2-49D4-A9E4-C2081DD5CDFC";
rightMetricsKey = n;
shapes = (
{
closed = 1;
nodes = (
(77,0,l),
(145,0,l),
(145,287,ls),
(145,392,o),
(203,474,o),
(293,474,cs),
(353,474,o),
(382,426,o),
(382,349,cs),
(382,0,l),
(450,0,l),
(450,289,ls),
(450,365,o),
(493,474,o),
(595,474,cs),
(660,474,o),
(687,426,o),
(687,349,cs),
(687,101,ls),
(687,26,o),
(719,-9,o),
(772,-9,cs),
(814,-9,o),
(835,12,o),
(846,35,c),
(843,39,l),
(834,18,o),
(821,11,o),
(804,11,cs),
(767,11,o),
(757,46,o),
(757,102,cs),
(757,351,ls),
(757,452,o),
(717,504,o),
(627,504,cs),
(547,504,o),
(478,437,o),
(450,355,c),
(445,444,o),
(410,504,o),
(331,504,cs),
(244,504,o),
(179,451,o),
(146,355,cs),
(133,317,o),
(142,371,o),
(142,382,cs),
(142,504,l),
(101,491,o),
(56,481,o),
(0,481,c),
(0,477,l),
(56,477,o),
(77,472,o),
(77,420,cs)
);
}
);
width = 838;
},
{
hints = (
{
horizontal = 1;
place = (-6,38);
type = Stem;
},
{
horizontal = 1;
place = (446,21);
type = Stem;
},
{
place = (84,197);
type = Stem;
},
{
place = (403,198);
type = Stem;
},
{
place = (724,198);
type = Stem;
}
);
layerId = "50E4EC5D-70F1-40A1-976B-CDBCAECFE4D4";
shapes = (
{
closed = 1;
nodes = (
(67,0,l),
(264,0,l),
(264,282,ls),
(264,390,o),
(298,450,o),
(338,450,cs),
(393,450,o),
(384,365,o),
(384,333,cs),
(384,0,l),
(585,0,l),
(585,282,ls),
(585,389,o),
(614,450,o),
(659,450,cs),
(714,450,o),
(705,365,o),
(705,333,cs),
(705,184,ls),
(705,47,o),
(753,-9,o),
(848,-9,cs),
(908,-9,o),
(937,13,o),
(949,45,c),
(945,47,l),
(940,30,o),
(931,25,o),
(924,25,cs),
(910,25,o),
(907,53,o),
(907,99,cs),
(906,299,ls),
(905,424,o),
(877,504,o),
(750,504,cs),
(621,504,o),
(591,389,o),
(583,357,c),
(573,448,o),
(535,504,o),
(429,504,cs),
(297,504,o),
(269,383,o),
(261,355,cs),
(257,343,o),
(253,348,o),
(253,355,cs),
(253,504,l),
(178,491,o),
(94,481,o),
(-10,481,c),
(-10,477,l),
(46,477,o),
(67,472,o),
(67,420,cs)
);
}
);
width = 966;
}
);
unicode = 109;
},
{
color = (153, 255, 154, 255);
glyphname = m.5;
layers = (
{
layerId = "CA214F42-74A2-49D4-A9E4-C2081DD5CDFC";
shapes = (
{
closed = 1;
nodes = (
(77,0,l),
(145,0,l),
(145,295,ls),
(145,393,o),
(203,474,o),
(293,474,cs),
(353,474,o),
(382,426,o),
(382,349,cs),
(382,0,l),
(450,0,l),
(450,295,ls),
(450,366,o),
(489,474,o),
(595,474,cs),
(660,474,o),
(687,426,o),
(687,349,cs),
(687,69,ls),
(687,-108,o),
(780,-230,o),
(940,-230,cs),
(1016,-230,o),
(1096,-202,o),
(1123,-139,c),
(1120,-136,l),
(1097,-193,o),
(1022,-223,o),
(958,-223,cs),
(849,-223,o),
(757,-144,o),
(757,31,cs),
(757,334,ls),
(757,435,o),
(717,504,o),
(627,504,cs),
(541,504,o),
(478,442,o),
(449,355,c),
(445,444,o),
(410,504,o),
(331,504,cs),
(244,504,o),
(179,451,o),
(146,355,c),
(146,354,o),
(143,343,o),
(142,340,c),
(142,504,l),
(101,491,o),
(56,481,o),
(0,481,c),
(0,477,l),
(56,477,o),
(77,472,o),
(77,420,cs)
);
}
);
width = 814;
},
{
layerId = "50E4EC5D-70F1-40A1-976B-CDBCAECFE4D4";
shapes = (
{
closed = 1;
nodes = (
(67,0,l),
(264,0,l),
(264,278,ls),
(264,387,o),
(300,453,o),
(347,453,cs),
(379,453,o),
(384,421,o),
(384,329,cs),
(384,0,l),
(585,0,l),
(585,278,ls),
(585,387,o),
(621,453,o),
(668,453,cs),
(700,453,o),
(705,421,o),
(705,329,cs),
(705,129,ls),
(705,-52,o),
(767,-257,o),
(1081,-257,cs),
(1169,-257,o),
(1264,-226,o),
(1293,-157,c),
(1290,-154,l),
(1267,-212,o),
(1191,-242,o),
(1126,-242,cs),
(1018,-242,o),
(906,-163,o),
(906,13,cs),
(906,295,ls),
(906,420,o),
(877,500,o),
(750,500,cs),
(621,500,o),
(591,385,o),
(583,353,c),
(573,444,o),
(535,500,o),
(429,500,cs),
(297,500,o),
(269,379,o),
(261,351,cs),
(257,339,o),
(253,344,o),
(253,351,cs),
(253,500,l),
(178,487,o),
(94,477,o),
(-10,477,c),
(-10,473,l),
(46,473,o),
(67,468,o),
(67,416,cs)
);
}
);
width = 966;
}
);
},
{
color = (153, 255, 154, 255);
glyphname = m.4;
layers = (
{
layerId = "CA214F42-74A2-49D4-A9E4-C2081DD5CDFC";
rightMetricsKey = n.4;
shapes = (
{
closed = 1;
nodes = (
(77,0,l),
(145,0,l),
(145,295,ls),
(145,393,o),
(203,474,o),
(293,474,cs),
(353,474,o),
(382,426,o),
(382,349,cs),
(382,0,l),
(450,0,l),
(450,323,l),
(460,391,o),
(504,474,o),
(593,474,cs),
(658,474,o),
(685,426,o),
(685,349,cs),
(685,173,ls),
(685,-192,o),
(949,-413,o),
(1263,-413,cs),
(1606,-413,o),
(1883,-136,o),
(1883,207,cs),
(1883,544,o),
(1610,817,o),
(1273,817,cs),
(1115,817,o),
(971,757,o),
(863,659,c),
(866,655,l),
(974,753,o),
(1117,813,o),
(1273,813,cs),
(1607,813,o),
(1879,541,o),
(1879,207,cs),
(1879,-130,o),
(1607,-405,o),
(1273,-405,cs),
(1002,-405,o),
(755,-236,o),
(755,138,cs),
(755,334,ls),
(755,435,o),
(715,504,o),
(625,504,cs),
(547,504,o),
(479,444,o),
(449,360,c),
(444,447,o),
(409,504,o),
(331,504,cs),
(244,504,o),
(179,451,o),
(146,355,cs),
(133,317,o),
(142,359,o),
(142,370,cs),
(142,504,l),
(101,491,o),
(56,481,o),
(0,481,c),
(0,477,l),
(56,477,o),
(77,472,o),
(77,420,cs)
);
}
);
width = 822;
},
{
layerId = "50E4EC5D-70F1-40A1-976B-CDBCAECFE4D4";
shapes = (
{
closed = 1;
nodes = (
(67,0,l),
(264,0,l),
(264,282,ls),
(264,391,o),
(300,457,o),
(347,457,cs),
(379,457,o),
(384,425,o),
(384,333,cs),
(384,0,l),
(585,0,l),
(585,282,ls),
(585,391,o),
(621,457,o),
(668,457,cs),
(700,457,o),
(705,428,o),
(705,349,cs),
(705,173,ls),
(705,-192,o),
(1029,-413,o),
(1415,-413,cs),
(1758,-413,o),
(2035,-132,o),
(2035,211,cs),
(2035,548,o),
(1762,817,o),
(1425,817,cs),
(1267,817,o),
(1123,757,o),
(1015,659,c),
(1018,655,l),
(1126,753,o),
(1269,813,o),
(1425,813,cs),
(1759,813,o),
(2031,545,o),
(2031,211,cs),
(2031,-126,o),
(1760,-404,o),
(1425,-405,c),
(1103,-405,o),
(907,-186,o),
(907,138,cs),
(907,299,ls),
(907,424,o),
(877,504,o),
(750,504,cs),
(621,504,o),
(591,389,o),
(583,357,c),
(573,448,o),
(535,504,o),
(429,504,cs),
(297,504,o),
(269,383,o),
(261,355,cs),
(257,343,o),
(253,348,o),
(253,355,cs),
(253,504,l),
(178,491,o),
(94,481,o),
(-10,481,c),
(-10,477,l),
(46,477,o),
(67,472,o),
(67,420,cs)
);
}
);
width = 966;
}
);
},
